<svg width="35" height="35" viewBox="0 0 35 35" fill="none" xmlns="http://www.w3.org/2000/svg">
<g clip-path="url(#clip0_1796_8224)">
<rect width="35" height="35" rx="17.5" fill="white"/>
<path d="M0 0H35V35H0V0Z" fill="#F7DF1E"/>
<path d="M17.0001 27.5308L18.3931 26.7389C18.6619 27.1865 18.9064 27.5652 19.4928 27.5652C20.0549 27.5652 20.4094 27.3587 20.4094 26.5553V21.0919H22.1201V26.578C22.1201 28.2423 21.0814 28.9998 19.5661 28.9998C18.1976 28.9998 17.4033 28.3341 17 27.5307M23.0492 27.3586L24.4421 26.6011C24.8088 27.1636 25.2854 27.5767 26.1285 27.5767C26.8374 27.5767 27.2893 27.2439 27.2893 26.7847C27.2893 26.2338 26.825 26.0387 26.0429 25.7174L25.6154 25.5451C24.3811 25.0517 23.5624 24.4319 23.5624 23.1234C23.5624 21.9182 24.54 21 26.0675 21C27.155 21 27.9371 21.3559 28.4991 22.2855L27.1671 23.089C26.8738 22.5955 26.5562 22.4004 26.0674 22.4004C25.5664 22.4004 25.2486 22.6988 25.2486 23.089C25.2486 23.5711 25.5664 23.7663 26.2995 24.0647L26.7271 24.2368C28.1813 24.8223 29 25.419 29 26.7618C29 28.2081 27.7903 29 26.1651 29C24.5766 29 23.5501 28.2884 23.0492 27.3587" fill="black"/>
</g>
<defs>
<clipPath id="clip0_1796_8224">
<rect width="35" height="35" rx="17.5" fill="white"/>
</clipPath>
</defs>
</svg>
