<svg width="51" height="51" viewBox="0 0 51 51" fill="none" xmlns="http://www.w3.org/2000/svg">
<g filter="url(#filter0_d_1964_10552)">
<g clip-path="url(#clip0_1964_10552)">
<rect x="8" y="4" width="35" height="35" rx="17.5" fill="white"/>
<g clip-path="url(#clip1_1964_10552)">
<path d="M34.9233 5.56601C22.686 -1.62939 7.13619 7.15888 7.00089 21.3469C6.86877 35.2014 21.5308 44.15 33.7407 38.0521L20.4096 18.4386L20.4096 30.579C20.4096 31.9241 17.8356 31.9241 17.8356 30.579V14.3038C17.8356 13.2361 19.8191 13.1484 20.3812 14.0766L35.576 37.0062C46.9904 29.6541 46.8362 12.5706 34.9233 5.56601ZM33.2066 28.542L30.6245 24.598V13.8007C30.6245 12.7939 33.2066 12.7939 33.2066 13.8007V28.542Z" fill="black"/>
</g>
</g>
</g>
<defs>
<filter id="filter0_d_1964_10552" x="0" y="0" width="51" height="51" filterUnits="userSpaceOnUse" color-interpolation-filters="sRGB">
<feFlood flood-opacity="0" result="BackgroundImageFix"/>
<feColorMatrix in="SourceAlpha" type="matrix" values="0 0 0 0 0 0 0 0 0 0 0 0 0 0 0 0 0 0 127 0" result="hardAlpha"/>
<feOffset dy="4"/>
<feGaussianBlur stdDeviation="4"/>
<feComposite in2="hardAlpha" operator="out"/>
<feColorMatrix type="matrix" values="0 0 0 0 0 0 0 0 0 0 0 0 0 0 0 0 0 0 0.15 0"/>
<feBlend mode="normal" in2="BackgroundImageFix" result="effect1_dropShadow_1964_10552"/>
<feBlend mode="normal" in="SourceGraphic" in2="effect1_dropShadow_1964_10552" result="shape"/>
</filter>
<clipPath id="clip0_1964_10552">
<rect x="8" y="4" width="35" height="35" rx="17.5" fill="white"/>
</clipPath>
<clipPath id="clip1_1964_10552">
<rect width="37" height="37" fill="white" transform="translate(7 3)"/>
</clipPath>
</defs>
</svg>
