<svg width="35" height="35" viewBox="0 0 35 35" fill="none" xmlns="http://www.w3.org/2000/svg">
<g clip-path="url(#clip0_1796_8213)">
<rect width="35" height="35" rx="17.5" fill="white"/>
<g clip-path="url(#clip1_1796_8213)">
<path d="M26.9233 1.56601C14.686 -5.62939 -0.863813 3.15888 -0.999114 17.3469C-1.13123 31.2014 13.5308 40.15 25.7407 34.0521L12.4096 14.4386L12.4096 26.579C12.4096 27.9241 9.8356 27.9241 9.8356 26.579V10.3038C9.8356 9.23606 11.8191 9.14843 12.3812 10.0766L27.576 33.0062C38.9904 25.6541 38.8362 8.5706 26.9233 1.56601ZM25.2066 24.542L22.6245 20.598V9.8007C22.6245 8.79386 25.2066 8.79386 25.2066 9.8007V24.542Z" fill="black"/>
</g>
</g>
<defs>
<clipPath id="clip0_1796_8213">
<rect width="35" height="35" rx="17.5" fill="white"/>
</clipPath>
<clipPath id="clip1_1796_8213">
<rect width="37" height="37" fill="white" transform="translate(-1 -1)"/>
</clipPath>
</defs>
</svg>
