<svg width="51" height="51" viewBox="0 0 51 51" fill="none" xmlns="http://www.w3.org/2000/svg">
<g filter="url(#filter0_d_1964_10700)">
<rect x="8" y="4" width="35" height="35" rx="17.5" fill="white"/>
<g clip-path="url(#clip0_1964_10700)">
<path d="M33.7251 12.1804C31.4934 8.98628 27.0846 8.03958 23.8982 10.0699L18.3002 13.6376C17.5429 14.1124 16.893 14.74 16.3922 15.4803C15.8913 16.2206 15.5505 17.0573 15.3916 17.9369C15.3207 18.3333 15.2847 18.7352 15.2841 19.1379C15.2876 20.2328 15.556 21.3105 16.0665 22.2792C15.5878 23.0062 15.2611 23.8226 15.1061 24.6792C14.9474 25.5766 14.9694 26.4966 15.171 27.3853C15.3725 28.274 15.7494 29.1136 16.2797 29.8547C18.5114 33.0489 22.93 33.9956 26.1066 31.9653L31.6987 28.3975C32.4556 27.9222 33.1047 27.2938 33.6042 26.5527C34.1038 25.8116 34.4428 24.9743 34.5995 24.0944C34.6714 23.6987 34.7074 23.2974 34.707 22.8953C34.7057 21.8026 34.4406 20.7263 33.9344 19.7579C34.4129 19.0315 34.7395 18.2158 34.8948 17.3599C34.9642 16.964 34.9995 16.5628 35.0004 16.1609C35.0008 14.7347 34.5548 13.3443 33.7251 12.1843V12.1804Z" fill="#FF3E00"/>
<path d="M23.3499 30.1559C22.9845 30.2504 22.6085 30.2983 22.2311 30.2987C21.5131 30.2989 20.8057 30.1249 20.1697 29.7917C19.5337 29.4586 18.9879 28.9761 18.5792 28.3857C18.0801 27.688 17.812 26.8514 17.8125 25.9936C17.8128 25.7523 17.8337 25.5115 17.8751 25.2737C17.9083 25.0968 17.9534 24.9224 18.0101 24.7515L18.1157 24.4307L18.4013 24.6478C19.0642 25.1343 19.805 25.5047 20.592 25.7432L20.7993 25.8058L20.7797 26.0131C20.7797 26.0483 20.7797 26.0855 20.7797 26.1207C20.7793 26.3801 20.86 26.6331 21.0105 26.8444C21.1322 27.0243 21.2959 27.1718 21.4875 27.274C21.679 27.3763 21.8927 27.4303 22.1098 27.4312C22.2234 27.4316 22.3365 27.4171 22.4462 27.3882C22.568 27.3559 22.6841 27.3051 22.7905 27.2376L28.3827 23.6522C28.5504 23.546 28.6885 23.3989 28.7839 23.2248C28.8794 23.0507 28.9291 22.8552 28.9284 22.6566C28.9268 22.3972 28.844 22.1448 28.6917 21.9349C28.5682 21.7572 28.4036 21.6121 28.2118 21.512C28.02 21.4119 27.8068 21.3596 27.5905 21.3598C27.477 21.3594 27.3639 21.3739 27.2541 21.4028C27.1326 21.4344 27.0171 21.4853 26.9118 21.5535L24.7797 22.9148C24.4283 23.1375 24.0451 23.3057 23.6433 23.4136C23.2778 23.5078 22.9019 23.5558 22.5245 23.5564C21.8067 23.5563 21.0997 23.3824 20.4637 23.0496C19.8278 22.7168 19.2819 22.235 18.8726 21.6454C18.3741 20.9473 18.1061 20.111 18.1059 19.2532C18.1062 19.0119 18.1271 18.7711 18.1685 18.5334C18.2641 18.0047 18.4686 17.5017 18.7689 17.0562C19.0693 16.6107 19.459 16.2325 19.9132 15.9456L25.5113 12.3799C25.8625 12.1563 26.2457 11.9875 26.6477 11.8791C27.0133 11.7854 27.3892 11.7381 27.7665 11.7383C28.4861 11.7364 29.1953 11.9092 29.8334 12.2417C30.4715 12.5742 31.0194 13.0565 31.4301 13.6473C31.9255 14.3471 32.1902 15.1841 32.1871 16.0415C32.1868 16.2834 32.1659 16.5249 32.1245 16.7632C32.0913 16.9401 32.0462 17.1146 31.9895 17.2855L31.8839 17.6063L31.5983 17.397C30.9358 16.9097 30.1949 16.5393 29.4076 16.3016L29.2003 16.2371L29.2198 16.0297C29.2198 15.9945 29.2198 15.9574 29.2198 15.9222C29.2199 15.6622 29.1392 15.4087 28.989 15.1965C28.8657 15.0191 28.7014 14.8742 28.51 14.7741C28.3186 14.6739 28.1058 14.6216 27.8898 14.6214C27.7772 14.6239 27.6654 14.641 27.5572 14.6723C27.435 14.7033 27.3187 14.7542 27.213 14.8229L21.6149 18.3887C21.4779 18.4756 21.3604 18.59 21.2698 18.7247C21.1793 18.8594 21.1176 19.0114 21.0888 19.1711C21.075 19.2394 21.0665 19.3087 21.0634 19.3784C21.0632 19.6371 21.1439 19.8895 21.2942 20.1002C21.4173 20.2776 21.5817 20.4227 21.7731 20.5228C21.9645 20.6229 22.1774 20.6752 22.3934 20.6752C22.507 20.6756 22.6201 20.6611 22.7299 20.6322C22.852 20.6008 22.9682 20.5499 23.0741 20.4816L25.2101 19.1124C25.5613 18.8893 25.9445 18.7211 26.3465 18.6136C26.712 18.5193 27.0879 18.4713 27.4653 18.4708C28.1834 18.4708 28.8907 18.6446 29.527 18.9773C30.1633 19.3101 30.7096 19.792 31.1191 20.3818C31.6176 21.0799 31.8857 21.9162 31.8858 22.774C31.8864 23.018 31.8648 23.2615 31.8213 23.5016C31.7261 24.0305 31.5218 24.5337 31.2214 24.9792C30.9211 25.4248 30.5311 25.8029 30.0766 26.0894L24.4883 29.6552C24.1364 29.8789 23.7526 30.0477 23.3499 30.1559Z" fill="white"/>
</g>
</g>
<defs>
<filter id="filter0_d_1964_10700" x="0" y="0" width="51" height="51" filterUnits="userSpaceOnUse" color-interpolation-filters="sRGB">
<feFlood flood-opacity="0" result="BackgroundImageFix"/>
<feColorMatrix in="SourceAlpha" type="matrix" values="0 0 0 0 0 0 0 0 0 0 0 0 0 0 0 0 0 0 127 0" result="hardAlpha"/>
<feOffset dy="4"/>
<feGaussianBlur stdDeviation="4"/>
<feComposite in2="hardAlpha" operator="out"/>
<feColorMatrix type="matrix" values="0 0 0 0 0 0 0 0 0 0 0 0 0 0 0 0 0 0 0.15 0"/>
<feBlend mode="normal" in2="BackgroundImageFix" result="effect1_dropShadow_1964_10700"/>
<feBlend mode="normal" in="SourceGraphic" in2="effect1_dropShadow_1964_10700" result="shape"/>
</filter>
<clipPath id="clip0_1964_10700">
<rect width="20" height="24.0352" fill="white" transform="translate(15 9)"/>
</clipPath>
</defs>
</svg>
