<svg width="35" height="35" viewBox="0 0 35 35" fill="none" xmlns="http://www.w3.org/2000/svg">
<rect width="35" height="35" rx="17.5" fill="white"/>
<g clip-path="url(#clip0_1796_8361)">
<path d="M25.7251 8.17993C23.4934 4.9858 19.0846 4.0391 15.8982 6.06941L10.3002 9.63714C9.54288 10.1119 8.893 10.7395 8.39216 11.4798C7.89132 12.2201 7.55055 13.0568 7.39164 13.9364C7.32066 14.3328 7.28466 14.7347 7.28406 15.1374C7.2876 16.2323 7.55604 17.3101 8.06646 18.2787C7.58777 19.0058 7.26109 19.8221 7.10607 20.6787C6.94737 21.5761 6.96944 22.4961 7.17096 23.3848C7.37249 24.2736 7.74942 25.1131 8.27966 25.8543C10.5114 29.0484 14.93 29.9951 18.1066 27.9648L23.6987 24.397C24.4556 23.9217 25.1047 23.2933 25.6042 22.5522C26.1038 21.8112 26.4428 20.9738 26.5995 20.0939C26.6714 19.6983 26.7074 19.2969 26.707 18.8948C26.7057 17.8021 26.4406 16.7258 25.9344 15.7574C26.4129 15.031 26.7395 14.2153 26.8948 13.3594C26.9642 12.9635 26.9995 12.5623 27.0004 12.1604C27.0008 10.7342 26.5548 9.34376 25.7251 8.18384V8.17993Z" fill="#FF3E00"/>
<path d="M15.3499 26.1559C14.9845 26.2504 14.6085 26.2983 14.2311 26.2987C13.5131 26.2989 12.8057 26.1249 12.1697 25.7917C11.5337 25.4586 10.9879 24.9761 10.5792 24.3857C10.0801 23.688 9.812 22.8514 9.8125 21.9936C9.81277 21.7523 9.83371 21.5115 9.87509 21.2737C9.90832 21.0968 9.95341 20.9224 10.0101 20.7515L10.1157 20.4307L10.4013 20.6478C11.0642 21.1343 11.805 21.5047 12.592 21.7432L12.7993 21.8058L12.7797 22.0131C12.7797 22.0483 12.7797 22.0855 12.7797 22.1207C12.7793 22.3801 12.86 22.6331 13.0105 22.8444C13.1322 23.0243 13.2959 23.1718 13.4875 23.274C13.679 23.3763 13.8927 23.4303 14.1098 23.4312C14.2234 23.4316 14.3365 23.4171 14.4462 23.3882C14.568 23.3559 14.6841 23.3051 14.7905 23.2376L20.3827 19.6522C20.5504 19.546 20.6885 19.3989 20.7839 19.2248C20.8794 19.0507 20.9291 18.8552 20.9284 18.6566C20.9268 18.3972 20.844 18.1448 20.6917 17.9349C20.5682 17.7572 20.4036 17.6121 20.2118 17.512C20.02 17.4119 19.8068 17.3596 19.5905 17.3598C19.477 17.3594 19.3639 17.3739 19.2541 17.4028C19.1326 17.4344 19.0171 17.4853 18.9118 17.5535L16.7797 18.9148C16.4283 19.1375 16.0451 19.3057 15.6433 19.4136C15.2778 19.5078 14.9019 19.5558 14.5245 19.5564C13.8067 19.5563 13.0997 19.3824 12.4637 19.0496C11.8278 18.7168 11.2819 18.235 10.8726 17.6454C10.3741 16.9473 10.1061 16.111 10.1059 15.2532C10.1062 15.0119 10.1271 14.7711 10.1685 14.5334C10.2641 14.0047 10.4686 13.5017 10.7689 13.0562C11.0693 12.6107 11.459 12.2325 11.9132 11.9456L17.5113 8.37986C17.8625 8.15632 18.2457 7.98748 18.6477 7.87913C19.0133 7.78544 19.3892 7.73813 19.7665 7.7383C20.4861 7.73645 21.1953 7.90919 21.8334 8.24169C22.4715 8.5742 23.0194 9.05654 23.4301 9.64734C23.9255 10.3471 24.1902 11.1841 24.1871 12.0415C24.1868 12.2834 24.1659 12.5249 24.1245 12.7632C24.0913 12.9401 24.0462 13.1146 23.9895 13.2855L23.8839 13.6063L23.5983 13.397C22.9358 12.9097 22.1949 12.5393 21.4076 12.3016L21.2003 12.2371L21.2198 12.0297C21.2198 11.9945 21.2198 11.9574 21.2198 11.9222C21.2199 11.6622 21.1392 11.4087 20.989 11.1965C20.8657 11.0191 20.7014 10.8742 20.51 10.7741C20.3186 10.6739 20.1058 10.6216 19.8898 10.6214C19.7772 10.6239 19.6654 10.641 19.5572 10.6723C19.435 10.7033 19.3187 10.7542 19.213 10.8229L13.6149 14.3887C13.4779 14.4756 13.3604 14.59 13.2698 14.7247C13.1793 14.8594 13.1176 15.0114 13.0888 15.1711C13.075 15.2394 13.0665 15.3087 13.0634 15.3784C13.0632 15.6371 13.1439 15.8895 13.2942 16.1002C13.4173 16.2776 13.5817 16.4227 13.7731 16.5228C13.9645 16.6229 14.1774 16.6752 14.3934 16.6752C14.507 16.6756 14.6201 16.6611 14.7299 16.6322C14.852 16.6008 14.9682 16.5499 15.0741 16.4816L17.2101 15.1124C17.5613 14.8893 17.9445 14.7211 18.3465 14.6136C18.712 14.5193 19.0879 14.4713 19.4653 14.4708C20.1834 14.4708 20.8907 14.6446 21.527 14.9773C22.1633 15.3101 22.7096 15.792 23.1191 16.3818C23.6176 17.0799 23.8857 17.9162 23.8858 18.774C23.8864 19.018 23.8648 19.2615 23.8213 19.5016C23.7261 20.0305 23.5218 20.5337 23.2214 20.9792C22.9211 21.4248 22.5311 21.8029 22.0766 22.0894L16.4883 25.6552C16.1364 25.8789 15.7526 26.0477 15.3499 26.1559Z" fill="white"/>
</g>
<defs>
<clipPath id="clip0_1796_8361">
<rect width="20" height="24.0352" fill="white" transform="translate(7 5)"/>
</clipPath>
</defs>
</svg>
