<svg width="51" height="51" viewBox="0 0 51 51" fill="none" xmlns="http://www.w3.org/2000/svg">
<g filter="url(#filter0_d_1964_10560)">
<g clip-path="url(#clip0_1964_10560)">
<rect x="8" y="4" width="35" height="35" rx="17.5" fill="white"/>
<path d="M6 21.5V2H45V41H6" fill="#007ACC"/>
<path d="M25 25.8072V26.5118H27.2321V32.9094H28.816V26.5118H31.0481V25.8202C31.0481 25.4311 31.0481 25.1156 31.0309 25.1069C31.0309 25.094 29.6702 25.0896 28.0176 25.0896L25.0129 25.1026V25.8115L25 25.8072ZM35.0314 25.0853C35.4693 25.1891 35.8041 25.3879 36.1046 25.7035C36.2634 25.8764 36.4995 26.1789 36.5166 26.2568C36.5166 26.2827 35.774 26.7884 35.3233 27.0694C35.3062 27.0824 35.2375 27.0089 35.1688 26.8965C34.9456 26.5766 34.7181 26.4383 34.3618 26.4124C33.8467 26.3778 33.5033 26.6501 33.5033 27.104C33.5033 27.2423 33.5291 27.3201 33.5806 27.4325C33.6965 27.6703 33.9111 27.8129 34.5764 28.1069C35.8041 28.6386 36.3363 28.9887 36.6583 29.4901C37.0231 30.0521 37.1047 30.9339 36.86 31.5953C36.5853 32.3172 35.9157 32.8056 34.9585 32.9656C34.658 33.0174 33.9712 33.0088 33.6493 32.9526C32.9625 32.8229 32.3057 32.4771 31.9023 32.0319C31.7434 31.8589 31.4387 31.3964 31.4558 31.3662L31.6189 31.2624L32.2628 30.8863L32.7479 30.601L32.8595 30.7523C33.0011 30.9771 33.3188 31.2797 33.5033 31.3835C34.0613 31.6731 34.8082 31.6342 35.1774 31.297C35.3362 31.15 35.4049 30.9944 35.4049 30.7783C35.4049 30.5794 35.3748 30.4887 35.2761 30.3374C35.1388 30.1472 34.864 29.9916 34.0914 29.6457C33.2029 29.2653 32.8251 29.0233 32.4731 28.6515C32.2714 28.4267 32.0868 28.0766 32.001 27.787C31.9366 27.5363 31.9151 26.9224 31.9752 26.6761C32.1598 25.8115 32.808 25.2063 33.7351 25.0334C34.0356 24.9729 34.7438 24.9989 35.04 25.0767L35.0314 25.0853Z" fill="white"/>
</g>
</g>
<defs>
<filter id="filter0_d_1964_10560" x="0" y="0" width="51" height="51" filterUnits="userSpaceOnUse" color-interpolation-filters="sRGB">
<feFlood flood-opacity="0" result="BackgroundImageFix"/>
<feColorMatrix in="SourceAlpha" type="matrix" values="0 0 0 0 0 0 0 0 0 0 0 0 0 0 0 0 0 0 127 0" result="hardAlpha"/>
<feOffset dy="4"/>
<feGaussianBlur stdDeviation="4"/>
<feComposite in2="hardAlpha" operator="out"/>
<feColorMatrix type="matrix" values="0 0 0 0 0 0 0 0 0 0 0 0 0 0 0 0 0 0 0.15 0"/>
<feBlend mode="normal" in2="BackgroundImageFix" result="effect1_dropShadow_1964_10560"/>
<feBlend mode="normal" in="SourceGraphic" in2="effect1_dropShadow_1964_10560" result="shape"/>
</filter>
<clipPath id="clip0_1964_10560">
<rect x="8" y="4" width="35" height="35" rx="17.5" fill="white"/>
</clipPath>
</defs>
</svg>
