<svg width="35" height="35" viewBox="0 0 35 35" fill="none" xmlns="http://www.w3.org/2000/svg">
<g clip-path="url(#clip0_1796_8221)">
<rect width="35" height="35" rx="17.5" fill="white"/>
<path d="M-2 17.5V-2H37V37H-2" fill="#007ACC"/>
<path d="M17 21.8072V22.5118H19.2321V28.9094H20.816V22.5118H23.0481V21.8202C23.0481 21.4311 23.0481 21.1156 23.0309 21.1069C23.0309 21.094 21.6702 21.0896 20.0176 21.0896L17.0129 21.1026V21.8115L17 21.8072ZM27.0314 21.0853C27.4693 21.1891 27.8041 21.3879 28.1046 21.7035C28.2634 21.8764 28.4995 22.1789 28.5166 22.2568C28.5166 22.2827 27.774 22.7884 27.3233 23.0694C27.3062 23.0824 27.2375 23.0089 27.1688 22.8965C26.9456 22.5766 26.7181 22.4383 26.3618 22.4124C25.8467 22.3778 25.5033 22.6501 25.5033 23.104C25.5033 23.2423 25.5291 23.3201 25.5806 23.4325C25.6965 23.6703 25.9111 23.8129 26.5764 24.1069C27.8041 24.6386 28.3363 24.9887 28.6583 25.4901C29.0231 26.0521 29.1047 26.9339 28.86 27.5953C28.5853 28.3172 27.9157 28.8056 26.9585 28.9656C26.658 29.0174 25.9712 29.0088 25.6493 28.9526C24.9625 28.8229 24.3057 28.4771 23.9023 28.0319C23.7434 27.8589 23.4387 27.3964 23.4558 27.3662L23.6189 27.2624L24.2628 26.8863L24.7479 26.601L24.8595 26.7523C25.0011 26.9771 25.3188 27.2797 25.5033 27.3835C26.0613 27.6731 26.8082 27.6342 27.1774 27.297C27.3362 27.15 27.4049 26.9944 27.4049 26.7783C27.4049 26.5794 27.3748 26.4887 27.2761 26.3374C27.1388 26.1472 26.864 25.9916 26.0914 25.6457C25.2029 25.2653 24.8251 25.0233 24.4731 24.6515C24.2714 24.4267 24.0868 24.0766 24.001 23.787C23.9366 23.5363 23.9151 22.9224 23.9752 22.6761C24.1598 21.8115 24.808 21.2063 25.7351 21.0334C26.0356 20.9729 26.7438 20.9989 27.04 21.0767L27.0314 21.0853Z" fill="white"/>
</g>
<defs>
<clipPath id="clip0_1796_8221">
<rect width="35" height="35" rx="17.5" fill="white"/>
</clipPath>
</defs>
</svg>
