<svg width="35" height="35" viewBox="0 0 35 35" fill="none" xmlns="http://www.w3.org/2000/svg">
<g clip-path="url(#clip0_1796_8192)">
<rect width="35" height="35" rx="17.5" fill="white"/>
<path d="M28.4375 35H6.5625C2.93781 35 0 32.0622 0 28.4375V6.5625C0 2.93781 2.93781 0 6.5625 0H28.4375C32.0622 0 35 2.93781 35 6.5625V28.4375C35 32.0622 32.0622 35 28.4375 35Z" fill="#E3F8FA"/>
<path d="M17.9985 15.9609C17.0099 15.9609 16.21 16.7621 16.21 17.7495C16.21 18.7381 17.0111 19.538 17.9985 19.538C18.9859 19.538 19.787 18.7368 19.787 17.7495C19.787 16.7621 18.9871 15.9609 17.9985 15.9609Z" fill="#8CE1EB"/>
<path d="M11.7608 20.9157C11.937 20.9744 12.112 21.0332 12.292 21.0844C12.2332 21.3181 12.1832 21.5494 12.1357 21.7881C11.7258 23.9566 12.0457 25.6739 13.0694 26.2638C14.1242 26.8725 15.8978 26.2475 17.6238 24.7365C17.76 24.6152 17.8975 24.4903 18.0337 24.3578C18.205 24.5265 18.385 24.6865 18.5649 24.8415C20.236 26.2788 21.8883 26.86 22.9094 26.2713C23.9643 25.6626 24.308 23.8153 23.863 21.5656C23.828 21.3944 23.7893 21.2182 23.7455 21.0382C23.8705 21.0032 23.9918 20.9644 24.113 20.9244C26.3665 20.1783 28 18.9709 28 17.7336C28 16.55 26.4614 15.4026 24.3367 14.6715V14.6702C24.1255 14.6002 23.9155 14.534 23.7043 14.4715C23.7393 14.3278 23.7705 14.1828 23.8018 14.0378C24.283 11.7106 23.9655 9.83958 22.8994 9.22216C21.872 8.63223 20.196 9.24591 18.5012 10.722C18.3325 10.8657 18.17 11.0182 18.0125 11.1707C17.9063 11.0694 17.7975 10.9669 17.6888 10.8695C15.9115 9.2909 14.1305 8.62724 13.0644 9.24841C12.0407 9.84208 11.7358 11.6044 12.1657 13.8053C12.2095 14.0241 12.2557 14.239 12.3095 14.4578C12.0595 14.5277 11.8133 14.6065 11.5833 14.689C9.49481 15.4126 8 16.5525 8 17.7323C8 18.9509 9.5923 20.1733 11.7608 20.9157ZM17.0726 24.0978C16.4289 24.6877 15.6815 25.1564 14.8691 25.4764C14.4354 25.6826 13.9355 25.7026 13.4906 25.5276C12.8694 25.1689 12.6119 23.7891 12.9631 21.9343C13.0069 21.7156 13.0531 21.4969 13.1069 21.2819C13.9818 21.4694 14.8641 21.5981 15.759 21.6644C16.2752 22.3955 16.8401 23.0942 17.4463 23.7491C17.3226 23.8703 17.1976 23.9878 17.0726 24.0978ZM22.0332 16.7637C21.8495 16.42 21.662 16.0763 21.4671 15.7401C21.2758 15.4089 21.0759 15.0802 20.8696 14.7565C21.4983 14.8352 22.1007 14.9402 22.6632 15.0689C22.4819 15.6476 22.272 16.21 22.0332 16.7637ZM22.0407 18.7085C22.2907 19.2747 22.5094 19.8496 22.7007 20.4395C22.0945 20.5757 21.4821 20.682 20.8646 20.752C21.0759 20.4233 21.2746 20.0883 21.4708 19.7521C21.6695 19.4071 21.857 19.0597 22.0407 18.7085ZM21.5896 17.7373C21.3283 18.276 21.0459 18.8072 20.7459 19.3309C20.4497 19.8496 20.1322 20.3545 19.801 20.8545C19.2198 20.8982 18.6137 20.9169 18 20.9169C17.3863 20.9169 16.7939 20.8982 16.219 20.862C15.879 20.3658 15.5591 19.8583 15.2578 19.3396C14.9566 18.821 14.6792 18.2935 14.4179 17.7536H14.4167C14.6742 17.2149 14.9554 16.6875 15.2528 16.1675C15.5491 15.6489 15.8703 15.1439 16.2065 14.649C16.7927 14.6052 17.3901 14.5827 18 14.5827C18.6099 14.5827 19.2111 14.6065 19.7935 14.649C20.1247 15.1414 20.4422 15.6451 20.7422 16.16C21.0434 16.675 21.3233 17.2024 21.5896 17.7373ZM14.5254 15.7476C14.3342 16.0788 14.1467 16.4188 13.9705 16.7625C13.7243 16.1813 13.5181 15.6114 13.3456 15.0602C13.908 14.9352 14.5054 14.834 15.1266 14.7552C14.9204 15.0802 14.7179 15.4114 14.5254 15.7476ZM13.9718 18.7385C14.1517 19.0822 14.3355 19.4221 14.5304 19.7583C14.7292 20.0983 14.9329 20.4383 15.1479 20.7695C14.5392 20.7032 13.933 20.6057 13.3356 20.4758C13.5068 19.9146 13.7218 19.3334 13.9718 18.7385ZM18.03 23.1479C17.6313 22.7192 17.2338 22.243 16.8464 21.7306C17.2213 21.7468 17.6075 21.7543 17.9987 21.7543C18.4012 21.7543 18.7949 21.7468 19.1861 21.7268C18.8274 22.2218 18.4412 22.6955 18.03 23.1479ZM23.1356 24.3215C23.0994 24.7977 22.8656 25.2427 22.4907 25.5426C21.8695 25.9013 20.5459 25.4339 19.1161 24.2065C18.9524 24.0653 18.7874 23.9128 18.6199 23.7578C19.2173 23.0979 19.7685 22.3993 20.2685 21.6656C21.1621 21.5919 22.0532 21.4544 22.9319 21.2557C22.9706 21.4156 23.0056 21.5756 23.0381 21.7318C23.2306 22.5755 23.2606 23.4541 23.1356 24.3215ZM23.4756 15.2752C23.6793 15.3339 23.8743 15.3964 24.0617 15.4589C25.8815 16.0838 27.1589 17.0137 27.1589 17.7248C27.1589 18.491 25.7953 19.4784 23.8468 20.122C23.738 20.157 23.628 20.192 23.5156 20.2233C23.2418 19.3721 22.9069 18.5397 22.5194 17.7311C22.8931 16.9349 23.2106 16.115 23.4756 15.2752ZM19.0486 11.3544C20.5022 10.0896 21.857 9.59336 22.4757 9.94832C23.1356 10.327 23.3893 11.8581 22.9756 13.8691C22.9481 14.0016 22.9206 14.1303 22.8856 14.2603C22.0182 14.0653 21.1396 13.9241 20.2572 13.8466C19.7498 13.1204 19.1948 12.4255 18.5937 11.7731C18.7449 11.6281 18.8924 11.4906 19.0486 11.3544ZM18.0062 12.3705C18.4162 12.8155 18.8024 13.2842 19.1624 13.7678C18.3887 13.7328 17.6113 13.7328 16.8389 13.7678C17.2213 13.2642 17.6163 12.7955 18.0062 12.3705ZM13.4756 9.97582C14.133 9.59336 15.5891 10.1395 17.1239 11.4994C17.2213 11.5856 17.3188 11.6794 17.4201 11.7731C16.8139 12.4255 16.2565 13.1204 15.744 13.8466C14.8616 13.9253 13.9868 14.0616 13.1194 14.2528C13.0681 14.0541 13.0256 13.8503 12.9831 13.6466C12.6157 11.7568 12.8581 10.3308 13.4756 9.97582ZM11.8545 15.4826C12.077 15.4039 12.3032 15.3339 12.5307 15.2677C12.7969 16.115 13.1169 16.9474 13.4868 17.7511C13.1119 18.5672 12.7882 19.4109 12.5182 20.2695L12.5169 20.2708C12.3532 20.2245 12.1932 20.1733 12.0332 20.1183C11.2021 19.8571 10.256 19.4421 9.5723 18.8997C9.1786 18.626 8.91239 18.2048 8.83864 17.7311C8.83989 17.0174 10.0735 16.1026 11.8545 15.4826Z" fill="#26C6DA"/>
</g>
<defs>
<clipPath id="clip0_1796_8192">
<rect width="35" height="35" rx="17.5" fill="white"/>
</clipPath>
</defs>
</svg>
