<svg width="51" height="51" viewBox="0 0 51 51" fill="none" xmlns="http://www.w3.org/2000/svg">
<g filter="url(#filter0_d_1964_10531)">
<g clip-path="url(#clip0_1964_10531)">
<rect x="8" y="4" width="35" height="35" rx="17.5" fill="white"/>
<path d="M36.4375 39H14.5625C10.9378 39 8 36.0622 8 32.4375V10.5625C8 6.93781 10.9378 4 14.5625 4H36.4375C40.0622 4 43 6.93781 43 10.5625V32.4375C43 36.0622 40.0622 39 36.4375 39Z" fill="#E3F8FA"/>
<path d="M25.9985 19.9595C25.0099 19.9595 24.21 20.7606 24.21 21.748C24.21 22.7366 25.0111 23.5365 25.9985 23.5365C26.9859 23.5365 27.787 22.7354 27.787 21.748C27.787 20.7606 26.9871 19.9595 25.9985 19.9595Z" fill="#8CE1EB"/>
<path d="M19.7608 24.9157C19.937 24.9744 20.112 25.0332 20.292 25.0844C20.2332 25.3181 20.1832 25.5494 20.1357 25.7881C19.7258 27.9566 20.0457 29.6739 21.0694 30.2638C22.1242 30.8725 23.8978 30.2475 25.6238 28.7365C25.76 28.6152 25.8975 28.4903 26.0337 28.3578C26.205 28.5265 26.385 28.6865 26.5649 28.8415C28.236 30.2788 29.8883 30.86 30.9094 30.2713C31.9643 29.6626 32.308 27.8153 31.863 25.5656C31.828 25.3944 31.7893 25.2182 31.7455 25.0382C31.8705 25.0032 31.9918 24.9644 32.113 24.9244C34.3665 24.1783 36 22.9709 36 21.7336C36 20.55 34.4614 19.4026 32.3367 18.6715V18.6702C32.1255 18.6002 31.9155 18.534 31.7043 18.4715C31.7393 18.3278 31.7705 18.1828 31.8018 18.0378C32.283 15.7106 31.9655 13.8396 30.8994 13.2222C29.872 12.6322 28.196 13.2459 26.5012 14.722C26.3325 14.8657 26.17 15.0182 26.0125 15.1707C25.9063 15.0694 25.7975 14.9669 25.6888 14.8695C23.9115 13.2909 22.1305 12.6272 21.0644 13.2484C20.0407 13.8421 19.7358 15.6044 20.1657 17.8053C20.2095 18.0241 20.2557 18.239 20.3095 18.4578C20.0595 18.5277 19.8133 18.6065 19.5833 18.689C17.4948 19.4126 16 20.5525 16 21.7323C16 22.9509 17.5923 24.1733 19.7608 24.9157ZM25.0726 28.0978C24.4289 28.6877 23.6815 29.1564 22.8691 29.4764C22.4354 29.6826 21.9355 29.7026 21.4906 29.5276C20.8694 29.1689 20.6119 27.7891 20.9631 25.9343C21.0069 25.7156 21.0531 25.4969 21.1069 25.2819C21.9818 25.4694 22.8641 25.5981 23.759 25.6644C24.2752 26.3955 24.8401 27.0942 25.4463 27.7491C25.3226 27.8703 25.1976 27.9878 25.0726 28.0978ZM30.0332 20.7637C29.8495 20.42 29.662 20.0763 29.4671 19.7401C29.2758 19.4089 29.0759 19.0802 28.8696 18.7565C29.4983 18.8352 30.1007 18.9402 30.6632 19.0689C30.4819 19.6476 30.272 20.21 30.0332 20.7637ZM30.0407 22.7085C30.2907 23.2747 30.5094 23.8496 30.7007 24.4395C30.0945 24.5757 29.4821 24.682 28.8646 24.752C29.0759 24.4233 29.2746 24.0883 29.4708 23.7521C29.6695 23.4071 29.857 23.0597 30.0407 22.7085ZM29.5896 21.7373C29.3283 22.276 29.0459 22.8072 28.7459 23.3309C28.4497 23.8496 28.1322 24.3545 27.801 24.8545C27.2198 24.8982 26.6137 24.9169 26 24.9169C25.3863 24.9169 24.7939 24.8982 24.219 24.862C23.879 24.3658 23.5591 23.8583 23.2578 23.3396C22.9566 22.821 22.6792 22.2935 22.4179 21.7536H22.4167C22.6742 21.2149 22.9554 20.6875 23.2528 20.1675C23.5491 19.6489 23.8703 19.1439 24.2065 18.649C24.7927 18.6052 25.3901 18.5827 26 18.5827C26.6099 18.5827 27.2111 18.6065 27.7935 18.649C28.1247 19.1414 28.4422 19.6451 28.7422 20.16C29.0434 20.675 29.3233 21.2024 29.5896 21.7373ZM22.5254 19.7476C22.3342 20.0788 22.1467 20.4188 21.9705 20.7625C21.7243 20.1813 21.5181 19.6114 21.3456 19.0602C21.908 18.9352 22.5054 18.834 23.1266 18.7552C22.9204 19.0802 22.7179 19.4114 22.5254 19.7476ZM21.9718 22.7385C22.1517 23.0822 22.3355 23.4221 22.5304 23.7583C22.7292 24.0983 22.9329 24.4383 23.1479 24.7695C22.5392 24.7032 21.933 24.6057 21.3356 24.4758C21.5068 23.9146 21.7218 23.3334 21.9718 22.7385ZM26.03 27.1479C25.6313 26.7192 25.2338 26.243 24.8464 25.7306C25.2213 25.7468 25.6075 25.7543 25.9987 25.7543C26.4012 25.7543 26.7949 25.7468 27.1861 25.7268C26.8274 26.2218 26.4412 26.6955 26.03 27.1479ZM31.1356 28.3215C31.0994 28.7977 30.8656 29.2427 30.4907 29.5426C29.8695 29.9013 28.5459 29.4339 27.1161 28.2065C26.9524 28.0653 26.7874 27.9128 26.6199 27.7578C27.2173 27.0979 27.7685 26.3993 28.2685 25.6656C29.1621 25.5919 30.0532 25.4544 30.9319 25.2557C30.9706 25.4156 31.0056 25.5756 31.0381 25.7318C31.2306 26.5755 31.2606 27.4541 31.1356 28.3215ZM31.4756 19.2752C31.6793 19.3339 31.8743 19.3964 32.0617 19.4589C33.8815 20.0838 35.1589 21.0137 35.1589 21.7248C35.1589 22.491 33.7953 23.4784 31.8468 24.122C31.738 24.157 31.628 24.192 31.5156 24.2233C31.2418 23.3721 30.9069 22.5397 30.5194 21.7311C30.8931 20.9349 31.2106 20.115 31.4756 19.2752ZM27.0486 15.3544C28.5022 14.0896 29.857 13.5934 30.4757 13.9483C31.1356 14.327 31.3893 15.8581 30.9756 17.8691C30.9481 18.0016 30.9206 18.1303 30.8856 18.2603C30.0182 18.0653 29.1396 17.9241 28.2572 17.8466C27.7498 17.1204 27.1948 16.4255 26.5937 15.7731C26.7449 15.6281 26.8924 15.4906 27.0486 15.3544ZM26.0062 16.3705C26.4162 16.8155 26.8024 17.2842 27.1624 17.7678C26.3887 17.7328 25.6113 17.7328 24.8389 17.7678C25.2213 17.2642 25.6163 16.7955 26.0062 16.3705ZM21.4756 13.9758C22.133 13.5934 23.5891 14.1395 25.1239 15.4994C25.2213 15.5856 25.3188 15.6794 25.4201 15.7731C24.8139 16.4255 24.2565 17.1204 23.744 17.8466C22.8616 17.9253 21.9868 18.0616 21.1194 18.2528C21.0681 18.0541 21.0256 17.8503 20.9831 17.6466C20.6157 15.7568 20.8581 14.3308 21.4756 13.9758ZM19.8545 19.4826C20.077 19.4039 20.3032 19.3339 20.5307 19.2677C20.7969 20.115 21.1169 20.9474 21.4868 21.7511C21.1119 22.5672 20.7882 23.4109 20.5182 24.2695L20.5169 24.2708C20.3532 24.2245 20.1932 24.1733 20.0332 24.1183C19.2021 23.8571 18.256 23.4421 17.5723 22.8997C17.1786 22.626 16.9124 22.2048 16.8386 21.7311C16.8399 21.0174 18.0735 20.1026 19.8545 19.4826Z" fill="#26C6DA"/>
</g>
</g>
<defs>
<filter id="filter0_d_1964_10531" x="0" y="0" width="51" height="51" filterUnits="userSpaceOnUse" color-interpolation-filters="sRGB">
<feFlood flood-opacity="0" result="BackgroundImageFix"/>
<feColorMatrix in="SourceAlpha" type="matrix" values="0 0 0 0 0 0 0 0 0 0 0 0 0 0 0 0 0 0 127 0" result="hardAlpha"/>
<feOffset dy="4"/>
<feGaussianBlur stdDeviation="4"/>
<feComposite in2="hardAlpha" operator="out"/>
<feColorMatrix type="matrix" values="0 0 0 0 0 0 0 0 0 0 0 0 0 0 0 0 0 0 0.15 0"/>
<feBlend mode="normal" in2="BackgroundImageFix" result="effect1_dropShadow_1964_10531"/>
<feBlend mode="normal" in="SourceGraphic" in2="effect1_dropShadow_1964_10531" result="shape"/>
</filter>
<clipPath id="clip0_1964_10531">
<rect x="8" y="4" width="35" height="35" rx="17.5" fill="white"/>
</clipPath>
</defs>
</svg>
