<svg width="35" height="35" viewBox="0 0 35 35" fill="none" xmlns="http://www.w3.org/2000/svg">
<g clip-path="url(#clip0_1796_8202)">
<rect width="35" height="35" rx="17.5" fill="white"/>
<path d="M35.997 8.19249C35.9968 7.37494 35.9182 6.55948 35.7625 5.75836C35.6067 4.93825 35.3419 4.14506 34.9759 3.40195C34.5933 2.68217 34.1178 2.02105 33.5628 1.43724C32.9904 0.850744 32.3256 0.372218 31.5976 0.0227693C30.8792 -0.356587 30.1108 -0.621669 29.3178 -0.763737C28.5311 -0.922282 27.6673 -0.922282 26.8806 -1H7.47521C6.86988 -0.989678 6.2659 -0.93671 5.66736 -0.841455C5.07339 -0.768229 4.49197 -0.60921 3.93967 -0.36893C3.78233 -0.291212 3.54782 -0.210385 3.39048 -0.132667C2.86795 0.160658 2.37125 0.501879 1.90621 0.886994C1.74888 1.04554 1.59154 1.12326 1.43421 1.27869C0.855658 1.84065 0.377193 2.50592 0.021181 3.2434C-0.367601 3.97607 -0.63367 4.77307 -0.765485 5.59981C-0.882469 6.40657 -0.960739 7.21897 -1 8.03394V26.8075C-0.999756 27.6251 -0.921191 28.4405 -0.765485 29.2416C-0.609701 30.0617 -0.344902 30.8549 0.021181 31.598C0.403764 32.3178 0.879247 32.9789 1.43421 33.5628C2.00659 34.1493 2.67143 34.6278 3.39939 34.9772C4.11779 35.3566 4.88619 35.6217 5.67924 35.7637C6.4659 35.9223 7.32975 35.9223 8.11642 36H26.8836C27.7012 35.9994 28.517 35.9203 29.3208 35.7637C30.1138 35.6217 30.8822 35.3566 31.6006 34.9772C32.313 34.5997 32.974 34.124 33.5658 33.5628C34.1443 33.0008 34.6228 32.3355 34.9788 31.598C35.3676 30.8654 35.6337 30.0684 35.7655 29.2416C35.8825 28.4349 35.9607 27.6225 36 26.8075V8.19249H35.997Z" fill="#F05138"/>
<path d="M22.3369 23.8921C20.0986 25.1083 17.022 25.2333 13.9254 23.9854C11.5109 23.0206 9.44657 21.3638 8 19.2296C8.67227 19.7364 9.40672 20.1577 10.186 20.4836C13.3834 21.8922 16.5788 21.795 18.8293 20.4836C15.6258 18.1702 12.9059 15.1624 10.8791 12.7062C10.4791 12.2911 10.1221 11.8378 9.81327 11.3531C12.2632 13.4581 16.1597 16.1147 17.5459 16.8667C15.5667 14.8697 13.748 12.7245 12.1061 10.4503C14.8354 13.0623 17.8388 15.3814 21.0656 17.3686C21.2087 17.444 21.3195 17.5075 21.4081 17.567C21.5027 17.3396 21.5841 17.1071 21.6519 16.8706C22.3994 14.3132 21.5451 11.4066 19.6795 9C23.9991 11.4542 26.5679 16.0651 25.492 19.926C25.4638 20.0312 25.4336 20.1244 25.4014 20.2336L25.4396 20.2772C27.5733 22.783 26.987 25.4357 26.719 24.9397C25.5605 22.8009 23.4189 23.4616 22.3369 23.8921Z" fill="#FEFEFE"/>
</g>
<defs>
<clipPath id="clip0_1796_8202">
<rect width="35" height="35" rx="17.5" fill="white"/>
</clipPath>
</defs>
</svg>
