<svg width="51" height="51" viewBox="0 0 51 51" fill="none" xmlns="http://www.w3.org/2000/svg">
<g filter="url(#filter0_d_1964_10541)">
<g clip-path="url(#clip0_1964_10541)">
<rect x="8" y="4" width="35" height="35" rx="17.5" fill="white"/>
<path d="M43.997 12.1925C43.9968 11.3749 43.9182 10.5595 43.7625 9.75836C43.6067 8.93825 43.3419 8.14506 42.9759 7.40195C42.5933 6.68217 42.1178 6.02105 41.5628 5.43724C40.9904 4.85074 40.3256 4.37222 39.5976 4.02277C38.8792 3.64341 38.1108 3.37833 37.3178 3.23626C36.5311 3.07772 35.6673 3.07772 34.8806 3H15.4752C14.8699 3.01032 14.2659 3.06329 13.6674 3.15854C13.0734 3.23177 12.492 3.39079 11.9397 3.63107C11.7823 3.70879 11.5478 3.78962 11.3905 3.86733C10.8679 4.16066 10.3712 4.50188 9.90621 4.88699C9.74888 5.04554 9.59154 5.12326 9.43421 5.27869C8.85566 5.84065 8.37719 6.50592 8.02118 7.2434C7.6324 7.97607 7.36633 8.77307 7.23452 9.59981C7.11753 10.4066 7.03926 11.219 7 12.0339V30.8075C7.00024 31.6251 7.07881 32.4405 7.23452 33.2416C7.3903 34.0617 7.6551 34.8549 8.02118 35.598C8.40376 36.3178 8.87925 36.9789 9.43421 37.5628C10.0066 38.1493 10.6714 38.6278 11.3994 38.9772C12.1178 39.3566 12.8862 39.6217 13.6792 39.7637C14.4659 39.9223 15.3297 39.9223 16.1164 40H34.8836C35.7012 39.9994 36.517 39.9203 37.3208 39.7637C38.1138 39.6217 38.8822 39.3566 39.6006 38.9772C40.313 38.5997 40.974 38.124 41.5658 37.5628C42.1443 37.0008 42.6228 36.3355 42.9788 35.598C43.3676 34.8654 43.6337 34.0684 43.7655 33.2416C43.8825 32.4349 43.9607 31.6225 44 30.8075V12.1925H43.997Z" fill="#F05138"/>
<path d="M30.3369 27.8921C28.0986 29.1083 25.022 29.2333 21.9254 27.9854C19.5109 27.0206 17.4466 25.3638 16 23.2296C16.6723 23.7364 17.4067 24.1577 18.186 24.4836C21.3834 25.8922 24.5788 25.795 26.8293 24.4836C23.6258 22.1702 20.9059 19.1624 18.8791 16.7062C18.4791 16.2911 18.1221 15.8378 17.8133 15.3531C20.2632 17.4581 24.1597 20.1147 25.5459 20.8667C23.5667 18.8697 21.748 16.7245 20.1061 14.4503C22.8354 17.0623 25.8388 19.3814 29.0656 21.3686C29.2087 21.444 29.3195 21.5075 29.4081 21.567C29.5027 21.3396 29.5841 21.1071 29.6519 20.8706C30.3994 18.3132 29.5451 15.4066 27.6795 13C31.9991 15.4542 34.5679 20.0651 33.492 23.926C33.4638 24.0312 33.4336 24.1244 33.4014 24.2336L33.4396 24.2772C35.5733 26.783 34.987 29.4357 34.719 28.9397C33.5605 26.8009 31.4189 27.4616 30.3369 27.8921Z" fill="#FEFEFE"/>
</g>
</g>
<defs>
<filter id="filter0_d_1964_10541" x="0" y="0" width="51" height="51" filterUnits="userSpaceOnUse" color-interpolation-filters="sRGB">
<feFlood flood-opacity="0" result="BackgroundImageFix"/>
<feColorMatrix in="SourceAlpha" type="matrix" values="0 0 0 0 0 0 0 0 0 0 0 0 0 0 0 0 0 0 127 0" result="hardAlpha"/>
<feOffset dy="4"/>
<feGaussianBlur stdDeviation="4"/>
<feComposite in2="hardAlpha" operator="out"/>
<feColorMatrix type="matrix" values="0 0 0 0 0 0 0 0 0 0 0 0 0 0 0 0 0 0 0.15 0"/>
<feBlend mode="normal" in2="BackgroundImageFix" result="effect1_dropShadow_1964_10541"/>
<feBlend mode="normal" in="SourceGraphic" in2="effect1_dropShadow_1964_10541" result="shape"/>
</filter>
<clipPath id="clip0_1964_10541">
<rect x="8" y="4" width="35" height="35" rx="17.5" fill="white"/>
</clipPath>
</defs>
</svg>
