<svg width="35" height="35" viewBox="0 0 35 35" fill="none" xmlns="http://www.w3.org/2000/svg">
<rect width="35" height="35" rx="17.5" fill="white"/>
<path d="M19.341 18.0014L23.2865 11.3562L25.1935 18.005L23.2865 24.6512L19.341 18.005V18.0014ZM17.418 19.0803L21.3645 25.7301L14.4918 24.0104L9.52701 19.0803H17.418ZM21.3636 10.2726L17.418 16.9215H9.52701L14.4918 11.9915L21.3626 10.2726H21.3636ZM27 15.7389L24.5895 7L15.605 9.34218L14.2748 11.6239L11.5759 11.6046L5 18.0014L11.5759 24.3972L14.2729 24.3771L15.605 26.6587L24.5895 29L26.9944 20.2629L25.6294 18.0005L27 15.7389Z" fill="black"/>
</svg>
