<svg width="24" height="28" viewBox="0 0 24 28" fill="none" xmlns="http://www.w3.org/2000/svg">
<path d="M8.69268 25.25C9.5741 26.028 10.7319 26.5 12 26.5C13.268 26.5 14.4258 26.028 15.3072 25.25M19.5 9C19.5 7.01088 18.7098 5.10322 17.3033 3.6967C15.8967 2.29018 13.9891 1.5 12 1.5C10.0108 1.5 8.10318 2.29018 6.69666 3.6967C5.29014 5.10322 4.49996 7.01088 4.49996 9C4.49996 12.8627 3.52555 15.5074 2.43704 17.2568C1.51887 18.7323 1.05979 19.4701 1.07662 19.6759C1.09526 19.9038 1.14354 19.9907 1.32718 20.127C1.49304 20.25 2.2407 20.25 3.73603 20.25H20.2639C21.7592 20.25 22.5069 20.25 22.6727 20.127C22.8564 19.9907 22.9047 19.9038 22.9233 19.6759C22.9401 19.4701 22.4811 18.7323 21.5629 17.2568C20.4744 15.5074 19.5 12.8627 19.5 9Z" stroke="#555555" stroke-width="2" stroke-linecap="round" stroke-linejoin="round"/>
</svg>
