<svg width="20" height="18" viewBox="0 0 20 18" fill="none" xmlns="http://www.w3.org/2000/svg">
<path d="M10.0007 17.25L9.90893 17.1124C9.27218 16.1573 8.9538 15.6797 8.53316 15.334C8.16077 15.0279 7.73169 14.7983 7.27046 14.6582C6.74946 14.5 6.1755 14.5 5.02757 14.5H3.76732C2.74055 14.5 2.22717 14.5 1.835 14.3002C1.49004 14.1244 1.20957 13.8439 1.03381 13.499C0.833984 13.1068 0.833984 12.5934 0.833984 11.5667V3.68333C0.833984 2.65657 0.833984 2.14319 1.03381 1.75102C1.20957 1.40605 1.49004 1.12559 1.835 0.949821C2.22717 0.75 2.74055 0.75 3.76732 0.75H4.13398C6.18751 0.75 7.21427 0.75 7.99862 1.14964C8.68854 1.50118 9.24947 2.06211 9.60101 2.75203C10.0007 3.53638 10.0007 4.56314 10.0007 6.61667M10.0007 17.25V6.61667M10.0007 17.25L10.0924 17.1124C10.7291 16.1573 11.0475 15.6797 11.4681 15.334C11.8405 15.0279 12.2696 14.7983 12.7308 14.6582C13.2518 14.5 13.8258 14.5 14.9737 14.5H16.234C17.2607 14.5 17.7741 14.5 18.1663 14.3002C18.5113 14.1244 18.7917 13.8439 18.9675 13.499C19.1673 13.1068 19.1673 12.5934 19.1673 11.5667V3.68333C19.1673 2.65657 19.1673 2.14319 18.9675 1.75102C18.7917 1.40605 18.5113 1.12559 18.1663 0.949821C17.7741 0.75 17.2607 0.75 16.234 0.75H15.8673C13.8138 0.75 12.787 0.75 12.0027 1.14964C11.3128 1.50118 10.7518 2.06211 10.4003 2.75203C10.0007 3.53638 10.0007 4.56314 10.0007 6.61667" stroke="#222222" stroke-linecap="round" stroke-linejoin="round"/>
</svg>
