<svg width="45" height="45" viewBox="0 0 45 45" fill="none" xmlns="http://www.w3.org/2000/svg">
<rect width="45" height="45" rx="22.5" fill="black" fill-opacity="0.6"/>
<path d="M12.3401 33.9099L20.5858 25.6642C21.0808 25.1692 21.3283 24.9217 21.6137 24.8289C21.8648 24.7474 22.1352 24.7474 22.3863 24.8289C22.6717 24.9217 22.9192 25.1692 23.4142 25.6642L31.6049 33.8549M24.5 26.75L28.0858 23.1642C28.5808 22.6692 28.8283 22.4217 29.1137 22.3289C29.3648 22.2474 29.6352 22.2474 29.8863 22.3289C30.1717 22.4217 30.4192 22.6692 30.9142 23.1642L34.5 26.75M19.5 19.25C19.5 20.6307 18.3807 21.75 17 21.75C15.6193 21.75 14.5 20.6307 14.5 19.25C14.5 17.8693 15.6193 16.75 17 16.75C18.3807 16.75 19.5 17.8693 19.5 19.25ZM15.5 34.25H28.5C30.6002 34.25 31.6503 34.25 32.4525 33.8413C33.1581 33.4817 33.7317 32.9081 34.0913 32.2025C34.5 31.4003 34.5 30.3502 34.5 28.25V17.75C34.5 15.6498 34.5 14.5997 34.0913 13.7975C33.7317 13.0919 33.1581 12.5183 32.4525 12.1587C31.6503 11.75 30.6002 11.75 28.5 11.75H15.5C13.3998 11.75 12.3497 11.75 11.5475 12.1587C10.8419 12.5183 10.2683 13.0919 9.90873 13.7975C9.5 14.5997 9.5 15.6498 9.5 17.75V28.25C9.5 30.3502 9.5 31.4003 9.90873 32.2025C10.2683 32.9081 10.8419 33.4817 11.5475 33.8413C12.3497 34.25 13.3998 34.25 15.5 34.25Z" stroke="white" stroke-width="1.5" stroke-linecap="round" stroke-linejoin="round"/>
</svg>
