<svg width="20" height="18" viewBox="0 0 20 18" fill="none" xmlns="http://www.w3.org/2000/svg">
<path d="M14.584 11.2919V8.53682C14.584 8.3723 14.584 8.29004 14.5589 8.21741C14.5368 8.15319 14.5006 8.09469 14.4531 8.04616C14.3993 7.99127 14.3258 7.95448 14.1786 7.88091L10.0007 5.79193M2.66732 6.7086V12.948C2.66732 13.2889 2.66732 13.4594 2.7205 13.6086C2.76752 13.7406 2.84414 13.86 2.9445 13.9577C3.05801 14.0682 3.21298 14.1392 3.52289 14.2813L9.38956 16.9702C9.61436 17.0732 9.72675 17.1247 9.84385 17.1451C9.94761 17.1631 10.0537 17.1631 10.1575 17.1451C10.2745 17.1247 10.3869 17.0732 10.6117 16.9702L16.4784 14.2813C16.7883 14.1392 16.9433 14.0682 17.0568 13.9577C17.1572 13.86 17.2338 13.7406 17.2808 13.6086C17.334 13.4594 17.334 13.2889 17.334 12.948V6.7086M0.833984 5.79193L9.67269 1.37257C9.79294 1.31245 9.85307 1.28239 9.91613 1.27055C9.97199 1.26008 10.0293 1.26008 10.0852 1.27055C10.1482 1.28239 10.2084 1.31245 10.3286 1.37257L19.1673 5.79193L10.3286 10.2113C10.2084 10.2714 10.1482 10.3015 10.0852 10.3133C10.0293 10.3238 9.97199 10.3238 9.91613 10.3133C9.85307 10.3015 9.79294 10.2714 9.67269 10.2113L0.833984 5.79193Z" stroke="#222222" stroke-linecap="round" stroke-linejoin="round"/>
</svg>
