<svg width="120" height="38" viewBox="0 0 120 38" fill="none" xmlns="http://www.w3.org/2000/svg">
<path d="M10.4565 35.124V12.8565H7.24588C6.36222 12.8565 5.59637 12.6793 4.9189 12.3249C4.24142 11.9705 3.68176 11.498 3.26938 10.9074C2.88646 10.3758 2.62136 9.81468 2.44463 9.16496C2.29735 8.60385 2.20898 8.04273 2.20898 7.48162C2.20898 6.9205 2.29735 6.35938 2.44463 5.76873C2.62136 5.14855 2.91591 4.5579 3.29884 4.05585C3.74067 3.49474 4.30032 3.02222 4.9778 2.69736C5.65528 2.37251 6.42113 2.19531 7.27534 2.19531H25.4494C26.3036 2.19531 27.0695 2.37251 27.747 2.69736C28.4244 3.02222 28.9841 3.49474 29.4259 4.05585C29.8088 4.5579 30.1034 5.14855 30.2801 5.76873C30.4569 6.32985 30.5158 6.89097 30.5158 7.48162C30.5158 8.04273 30.4274 8.60385 30.2801 9.1945C30.1034 9.84421 29.8088 10.4349 29.3965 10.9664C28.9546 11.5276 28.4244 11.9705 27.8059 12.3249C27.1284 12.6793 26.3331 12.8565 25.4494 12.8565H22.2388V35.124H10.4565Z" fill="#549D2D"/>
<path d="M25.4201 4.42987C25.9503 4.42987 26.3922 4.51846 26.7456 4.69566C27.0991 4.87285 27.3937 5.10911 27.6293 5.40444C27.865 5.69976 28.0122 6.02462 28.1301 6.40854C28.2479 6.76293 28.2773 7.14685 28.2773 7.50124C28.2773 7.85562 28.2184 8.21002 28.1301 8.59394C28.0122 8.97786 27.865 9.30272 27.6293 9.62757C27.3937 9.9229 27.0991 10.1887 26.7456 10.3659C26.3922 10.5431 25.9503 10.6612 25.4496 10.6612H20.0298V32.9287H12.6659V10.6612H7.24606C6.71586 10.6612 6.27403 10.5726 5.92056 10.3659C5.5671 10.1887 5.27254 9.9229 5.0369 9.62757C4.80125 9.33225 4.65398 8.97786 4.53615 8.59394C4.41833 8.21002 4.38888 7.85562 4.38888 7.50124C4.38888 7.14685 4.44779 6.79246 4.53615 6.40854C4.65398 6.05415 4.80125 5.69976 5.0369 5.40444C5.27254 5.10911 5.5671 4.87285 5.92056 4.69566C6.27403 4.51846 6.71586 4.42987 7.24606 4.42987H25.4201ZM25.4201 0H7.24606C6.06784 0 4.94853 0.236259 4.00595 0.708778C3.00446 1.1813 2.17971 1.89007 1.53168 2.74651C0.972029 3.45529 0.559652 4.2822 0.324007 5.19771C0.117818 5.93602 0 6.73339 0 7.50124C0 8.26908 0.117818 9.03692 0.324007 9.80477C0.559652 10.6907 0.972029 11.5176 1.50223 12.256C2.1208 13.1124 2.94556 13.8212 3.91759 14.3232C4.91908 14.8253 6.03839 15.0911 7.27552 15.0911H8.27701V32.9287V37.3585H12.6953H20.0592H24.4776V32.9287V15.0911H25.4791C26.7162 15.0911 27.865 14.8253 28.8664 14.2937C29.7796 13.8212 30.5454 13.1419 31.164 12.3446C31.7531 11.5767 32.1655 10.7498 32.4306 9.80477C32.6368 9.03692 32.7546 8.26908 32.7546 7.50124C32.7546 6.73339 32.6368 5.93602 32.4306 5.16818C32.1655 4.2822 31.7531 3.48482 31.2229 2.74651C30.5749 1.89007 29.7207 1.21083 28.7486 0.708778C27.7177 0.236259 26.6278 0 25.4201 0Z" fill="white"/>
<path d="M37.8171 35.7628C36.4622 35.7628 35.0778 35.5856 33.6934 35.2312C32.1911 34.8473 30.8067 34.1976 29.599 33.2526C28.3324 32.3075 27.3015 31.0081 26.5356 29.4724C25.7698 27.9072 25.3574 25.9876 25.3574 23.7431V20.4945C25.3574 18.2501 25.7403 16.3305 26.5062 14.7653C27.272 13.2 28.303 11.9301 29.5401 10.9556C30.7773 10.0105 32.1322 9.36082 33.6344 8.9769C35.0188 8.62251 36.4327 8.44531 37.7877 8.44531C39.1426 8.44531 40.527 8.62251 41.9114 8.9769C43.4137 9.36082 44.7981 10.0105 46.0058 10.9556C47.2724 11.9301 48.3033 13.2 49.0691 14.7357C49.835 16.3009 50.2474 18.2205 50.2474 20.465V23.7136C50.2474 25.958 49.8644 27.9072 49.0691 29.4429C48.3033 31.0081 47.2724 32.278 46.0058 33.223C44.7686 34.1681 43.4137 34.8178 41.9114 35.2017C40.5565 35.5856 39.1721 35.7628 37.8171 35.7628ZM37.8171 18.8703C37.6993 18.8703 37.552 18.8998 37.4047 18.9589C37.1396 19.1656 37.0513 19.2837 36.9924 19.4314C36.9629 19.4904 36.904 19.7267 36.904 20.1697V24.068C36.904 24.511 36.9629 24.7177 36.9924 24.8063C37.0513 24.9835 37.1396 25.1016 37.228 25.1902C37.5815 25.3674 37.6993 25.3969 37.8466 25.3969C37.9939 25.3969 38.1117 25.3674 38.259 25.3083C38.5241 25.1016 38.6124 24.9835 38.6713 24.8358C38.7008 24.7768 38.7597 24.5405 38.7597 24.0975V20.1992C38.7597 19.7562 38.7008 19.52 38.6713 19.4609C38.6124 19.3133 38.5241 19.1656 38.4357 19.1065C38.0822 18.8998 37.9349 18.8703 37.8171 18.8703Z" fill="#549D2D"/>
<path d="M37.8173 10.6603C38.9955 10.6603 40.2032 10.808 41.4109 11.1329C42.6186 11.4282 43.7379 11.9598 44.7099 12.7276C45.7114 13.4955 46.5067 14.4996 47.1253 15.7399C47.7438 16.9803 48.0678 18.575 48.0678 20.4946V23.7432C48.0678 25.6628 47.7438 27.228 47.1253 28.4979C46.5067 29.7383 45.6819 30.7424 44.7099 31.5102C43.7084 32.2781 42.6186 32.8097 41.4109 33.105C40.2032 33.4003 38.9955 33.5775 37.8173 33.5775C36.6391 33.5775 35.4314 33.4298 34.2237 33.105C33.0161 32.8097 31.8967 32.2781 30.9247 31.5102C29.9232 30.7424 29.1279 29.7383 28.5093 28.4979C27.8908 27.2576 27.5668 25.6628 27.5668 23.7432V20.4946C27.5668 18.575 27.8613 17.0098 28.4799 15.7399C29.0985 14.4996 29.8938 13.4955 30.8953 12.7276C31.8967 11.9598 32.9866 11.4282 34.1943 11.1329C35.4019 10.808 36.6096 10.6603 37.8173 10.6603ZM37.8173 27.5824C38.2002 27.5824 38.5832 27.5234 38.9366 27.3757C39.3195 27.2576 39.6436 27.0508 39.9381 26.7555C40.2327 26.4602 40.4683 26.1058 40.6745 25.6628C40.8512 25.2198 40.969 24.6882 40.969 24.0385V20.1402C40.969 19.4905 40.8807 18.9589 40.6745 18.516C40.4978 18.073 40.2327 17.7186 39.9381 17.4233C39.6436 17.1279 39.3195 16.9212 38.9366 16.8031C38.5537 16.685 38.1708 16.5964 37.8173 16.5964C37.4638 16.5964 37.0515 16.6554 36.698 16.8031C36.3151 16.9212 35.9911 17.1279 35.6965 17.4233C35.402 17.7186 35.1663 18.073 34.9601 18.516C34.7834 18.9589 34.6656 19.4905 34.6656 20.1402V24.0385C34.6656 24.6882 34.7539 25.2198 34.9601 25.6628C35.1369 26.1058 35.402 26.4602 35.6965 26.7555C35.9911 27.0508 36.3151 27.2576 36.698 27.3757C37.0515 27.4938 37.4344 27.5824 37.8173 27.5824ZM37.8173 6.23047C36.2562 6.23047 34.6656 6.4372 33.1044 6.82112C31.3076 7.26411 29.6581 8.06148 28.2148 9.18371C26.6831 10.365 25.446 11.9007 24.5329 13.7612C23.6197 15.6218 23.1484 17.8662 23.1484 20.4651V23.7137C23.1484 26.3125 23.6197 28.5865 24.5623 30.4471C25.4754 32.3076 26.742 33.8433 28.2737 34.9951C29.717 36.1173 31.396 36.9147 33.1633 37.3577C34.7245 37.7416 36.2856 37.9483 37.8173 37.9483C39.349 37.9483 40.9396 37.7416 42.5007 37.3577C44.2975 36.9147 45.947 36.1173 47.3904 34.9951C48.922 33.8433 50.1592 32.3076 51.0723 30.4471C52.0149 28.5865 52.4862 26.3125 52.4862 23.7137V20.4651C52.4862 17.8662 52.0149 15.5923 51.0723 13.7317C50.1592 11.8712 48.8926 10.3355 47.3904 9.18371C45.9176 8.06148 44.2681 7.26411 42.5007 6.82112C40.9101 6.4372 39.349 6.23047 37.8173 6.23047Z" fill="white"/>
<path d="M53.4604 35.124V12.8565H50.2498C49.3661 12.8565 48.6003 12.6793 47.9228 12.3249C47.2453 11.9705 46.6857 11.498 46.2733 10.9074C45.8904 10.3758 45.6253 9.81468 45.4485 9.16496C45.3013 8.60385 45.2129 8.04273 45.2129 7.48162C45.2129 6.9205 45.3013 6.35938 45.4485 5.76873C45.6253 5.14855 45.9198 4.5579 46.3027 4.05585C46.7446 3.49474 47.3042 3.02222 47.9817 2.69736C48.6592 2.37251 49.425 2.19531 50.2792 2.19531H68.4533C69.3075 2.19531 70.0734 2.37251 70.7509 2.69736C71.4283 3.02222 71.988 3.49474 72.4298 4.05585C72.8127 4.5579 73.1073 5.14855 73.284 5.76873C73.4608 6.32985 73.5197 6.89097 73.5197 7.48162C73.5197 8.04273 73.4313 8.60385 73.284 9.1945C73.1073 9.84421 72.8127 10.4349 72.4004 10.9664C71.9585 11.5276 71.4283 11.9705 70.8098 12.3249C70.1323 12.6793 69.337 12.8565 68.4533 12.8565H65.2427V35.124H53.4604Z" fill="#549D2D"/>
<path d="M68.424 4.42987C68.9542 4.42987 69.3961 4.51846 69.7495 4.69566C70.103 4.87285 70.3976 5.10911 70.6332 5.40444C70.8689 5.69976 71.0161 6.02462 71.134 6.40854C71.2518 6.76293 71.2812 7.14685 71.2812 7.50124C71.2812 7.85562 71.2223 8.21002 71.134 8.59394C71.0161 8.97786 70.8689 9.30272 70.6332 9.62757C70.3976 9.9229 70.103 10.1887 69.7495 10.3659C69.3961 10.5431 68.9543 10.6612 68.4535 10.6612H63.0337V32.9287H55.6698V10.6612H50.25C49.7198 10.6612 49.2779 10.5726 48.9245 10.3659C48.571 10.1887 48.2764 9.9229 48.0408 9.62757C47.8052 9.33225 47.6579 8.97786 47.5401 8.59394C47.4222 8.21002 47.3928 7.85562 47.3928 7.50124C47.3928 7.14685 47.4517 6.79246 47.5401 6.40854C47.6579 6.05415 47.8052 5.69976 48.0408 5.40444C48.2764 5.10911 48.571 4.87285 48.9245 4.69566C49.2779 4.51846 49.7198 4.42987 50.25 4.42987H68.424ZM68.424 0H50.25C49.0717 0 47.9524 0.236259 47.0099 0.708778C46.0084 1.1813 45.1836 1.89007 44.5356 2.74651C43.9759 3.45529 43.5636 4.2822 43.3279 5.19771C43.1217 5.93602 43.0039 6.73339 43.0039 7.50124C43.0039 8.26908 43.1217 9.03692 43.3279 9.80477C43.5636 10.6907 43.9759 11.5176 44.5061 12.256C45.1247 13.1124 45.9495 13.8212 46.9215 14.3232C47.923 14.8253 49.0423 15.0911 50.2794 15.0911H51.2809V32.9287V37.3585H55.6992H63.0631H67.4815V32.9287V15.0911H68.483C69.7201 15.0911 70.8689 14.8253 71.8704 14.2937C72.7835 13.8212 73.5493 13.1419 74.1679 12.3446C74.757 11.5767 75.1694 10.7498 75.4345 9.80477C75.6407 9.03692 75.7585 8.26908 75.7585 7.50124C75.7585 6.73339 75.6407 5.93602 75.4345 5.16818C75.1694 4.2822 74.757 3.48482 74.2268 2.74651C73.5788 1.89007 72.7246 1.21083 71.7525 0.708778C70.7216 0.236259 69.6317 0 68.424 0Z" fill="white"/>
<path d="M81.6251 35.7072C80.1818 35.7072 78.709 35.53 77.2363 35.1461C75.6751 34.7621 74.2318 34.0829 72.9652 33.1674C71.6397 32.2224 70.5499 30.9229 69.7546 29.3577C68.9593 27.7925 68.5469 25.8729 68.5469 23.6875V20.557C68.5469 18.3421 68.9298 16.4225 69.7251 14.8573C70.4909 13.3216 71.5219 12.0517 72.759 11.0771C73.9667 10.1321 75.3217 9.48238 76.7944 9.06893C78.1788 8.71454 79.5338 8.50781 80.8593 8.50781C82.2732 8.50781 83.6576 8.68501 84.9831 9.00986C86.4853 9.39379 87.8697 10.1321 89.0479 11.1953C90.2262 12.2584 91.1687 13.7055 91.8462 15.507C92.4942 17.2494 92.8183 19.3757 92.8183 22.0041C92.8183 22.3585 92.7888 22.8015 92.7593 23.3036C92.7299 23.7761 92.671 24.1895 92.6121 24.5439L92.3175 26.434H91.4338C91.5222 26.6112 91.6106 26.7589 91.6989 26.936C92.4942 28.7966 92.1113 30.3027 91.6695 31.2183C91.1098 32.3405 90.1967 33.256 88.989 33.9648C88.6061 34.1715 88.1348 34.4078 87.5752 34.6145C87.0744 34.7917 86.5148 34.9689 85.8667 35.1461C85.2187 35.3233 84.5412 35.4414 83.8343 35.53C83.0979 35.6481 82.3615 35.7072 81.6251 35.7072Z" fill="#549D2D"/>
<path d="M80.7988 10.7424C82.0359 10.7424 83.2141 10.89 84.3924 11.1854C85.5706 11.4807 86.6015 12.0418 87.5146 12.8687C88.4278 13.6956 89.1642 14.8474 89.7238 16.324C90.2835 17.8006 90.5486 19.7202 90.5486 22.0533C90.5486 22.3486 90.5191 22.7325 90.4897 23.146C90.4602 23.5594 90.4013 23.9434 90.3718 24.2387H77.7059V24.2682C77.7059 24.8884 77.8238 25.3905 78.0889 25.8039C78.354 26.2174 78.678 26.5422 79.0904 26.808C79.5027 27.0738 79.9151 27.251 80.3864 27.3691C80.8577 27.4873 81.2995 27.5168 81.7413 27.5168C82.625 27.5168 83.273 27.4873 83.7443 27.3987C84.2156 27.3396 84.6869 27.2215 85.1582 27.0443C85.4233 26.9557 85.6884 26.8375 85.9535 26.7489C86.2186 26.6308 86.5131 26.5717 86.8077 26.5127C86.955 26.4832 87.1023 26.4832 87.2495 26.4832C87.6914 26.4832 88.1037 26.5717 88.4867 26.7194C88.9874 26.9261 89.3703 27.3101 89.606 27.8416C89.9889 28.7276 89.9889 29.525 89.6354 30.2338C89.282 30.9426 88.6634 31.5627 87.8092 32.0648C87.5146 32.242 87.1612 32.3896 86.7193 32.5668C86.2775 32.744 85.7768 32.8917 85.2466 33.0393C84.6869 33.187 84.0978 33.3051 83.4792 33.3642C82.8607 33.4528 82.2126 33.4823 81.5941 33.4823C80.3275 33.4823 79.0314 33.3051 77.7354 32.9803C76.4393 32.6554 75.2611 32.0943 74.2302 31.356C73.1698 30.5882 72.345 29.5841 71.697 28.3142C71.049 27.0443 70.725 25.5086 70.725 23.648V20.5176C70.725 18.6275 71.049 17.0623 71.6676 15.7924C72.2861 14.552 73.0814 13.5479 74.0829 12.7801C75.0549 12.0123 76.1448 11.4807 77.323 11.1558C78.5307 10.89 79.6795 10.7424 80.7988 10.7424ZM80.7988 6.3125C79.2965 6.3125 77.7354 6.51922 76.1742 6.93268C74.4069 7.4052 72.8163 8.20258 71.373 9.32481C69.8708 10.4766 68.6336 12.0123 67.7205 13.8728C66.7779 15.7333 66.3066 18.0073 66.3066 20.5767V23.7071C66.3066 26.2469 66.8074 28.4914 67.7794 30.3814C68.7515 32.2715 70.0475 33.8072 71.6676 34.9885C73.1698 36.0517 74.8488 36.849 76.675 37.3216C78.3245 37.735 79.974 37.9417 81.6235 37.9417C82.4483 37.9417 83.273 37.8827 84.0978 37.7941C84.8931 37.6759 85.6589 37.5578 86.3659 37.3511C87.1023 37.1739 87.7503 36.9672 88.3394 36.7309C88.9874 36.4946 89.5765 36.2289 90.0773 35.9335C91.6679 35.018 92.8461 33.7777 93.6119 32.301C94.26 31.0016 94.4956 29.5545 94.2894 28.1074L94.7902 24.9475C94.8491 24.5635 94.908 24.091 94.9374 23.5299C94.9963 22.9688 94.9963 22.4963 94.9963 22.0828C94.9963 19.1886 94.6429 16.7965 93.877 14.7883C93.0817 12.662 91.933 10.89 90.4897 9.5906C89.0463 8.29117 87.3674 7.37567 85.4822 6.90315C83.9505 6.4897 82.3894 6.3125 80.7988 6.3125Z" fill="white"/>
<path d="M104.712 35.6972C103.976 35.6972 103.24 35.6381 102.533 35.5495C101.826 35.4609 101.148 35.3133 100.5 35.1656C99.8523 34.9884 99.2927 34.8112 98.7919 34.634C98.2323 34.4273 97.761 34.191 97.378 33.9843C96.1704 33.2755 95.2572 32.36 94.6976 31.2673C94.2263 30.3518 93.8434 28.8457 94.6681 26.9851C94.7565 26.8079 94.8449 26.6307 94.9332 26.4535H94.0496L93.755 24.5635C93.6961 24.2091 93.6667 23.7956 93.6077 23.2936C93.5783 22.7915 93.5488 22.3781 93.5488 22.0237C93.5488 19.3953 93.8728 17.2689 94.5209 15.5265C95.1983 13.7251 96.1409 12.278 97.3191 11.2148C98.4974 10.1516 99.8818 9.41332 101.384 9.0294C102.71 8.67501 104.123 8.52734 105.508 8.52734C106.833 8.52734 108.188 8.70454 109.573 9.08846C111.045 9.47238 112.4 10.1516 113.608 11.0967C114.845 12.0712 115.876 13.3411 116.642 14.8768C117.408 16.442 117.82 18.3616 117.82 20.5766V23.707C117.82 25.8924 117.408 27.812 116.613 29.3772C115.817 30.9425 114.727 32.2419 113.402 33.1869C112.135 34.1024 110.692 34.7521 109.131 35.1656C107.658 35.52 106.156 35.6972 104.712 35.6972Z" fill="#FFBD13"/>
<path d="M105.537 10.7424C106.657 10.7424 107.835 10.89 109.013 11.2149C110.191 11.5397 111.281 12.0713 112.253 12.8392C113.225 13.607 114.021 14.6111 114.669 15.8515C115.287 17.0918 115.611 18.6866 115.611 20.5767V23.7071C115.611 25.5381 115.287 27.1033 114.639 28.3732C113.991 29.6431 113.137 30.6472 112.106 31.4151C111.046 32.1829 109.897 32.7145 108.601 33.0394C107.305 33.3642 106.009 33.5414 104.742 33.5414C104.094 33.5414 103.476 33.5119 102.857 33.4233C102.238 33.3347 101.649 33.2165 101.09 33.0984C100.53 32.9508 100.029 32.8031 99.6168 32.6259C99.175 32.4487 98.8216 32.301 98.527 32.1238C97.6728 31.6218 97.0837 31.0311 96.7008 30.2928C96.3473 29.5841 96.3473 28.7867 96.7302 27.9007C96.9658 27.3691 97.3488 26.9852 97.8495 26.7785C98.2324 26.6308 98.6448 26.5422 99.0866 26.5422C99.2339 26.5422 99.3812 26.5422 99.5285 26.5718C99.823 26.6308 100.118 26.6899 100.383 26.808C100.648 26.9261 100.913 27.0147 101.178 27.1033C101.649 27.2805 102.121 27.3987 102.592 27.4577C103.063 27.5168 103.741 27.5759 104.595 27.5759C105.007 27.5759 105.479 27.5168 105.95 27.4282C106.421 27.3101 106.863 27.1329 107.246 26.8671C107.658 26.6013 107.982 26.2764 108.247 25.863C108.512 25.4495 108.63 24.9475 108.63 24.3273V24.2978H95.9644C95.9055 24.0024 95.876 23.6185 95.8465 23.2051C95.8171 22.7916 95.7876 22.4077 95.7876 22.1124C95.7876 19.7793 96.0527 17.8597 96.6124 16.3831C97.172 14.9064 97.9084 13.7547 98.8215 12.9278C99.7347 12.1009 100.795 11.5397 101.944 11.2444C103.122 10.89 104.3 10.7424 105.537 10.7424ZM105.537 6.3125C103.947 6.3125 102.386 6.51923 100.854 6.90315C98.9983 7.37567 97.3193 8.29118 95.8465 9.5906C94.4032 10.89 93.2544 12.6324 92.4591 14.7883C91.7228 16.7965 91.3398 19.1591 91.3398 22.0828C91.3398 22.4963 91.3693 22.9983 91.3988 23.5594C91.4282 24.091 91.4871 24.5635 91.546 24.9475L92.0468 28.1074C91.8406 29.5545 92.0468 31.0016 92.6948 32.301C93.4606 33.8072 94.6389 35.018 96.2295 35.9631C96.7302 36.2584 97.3193 36.5242 97.9673 36.79C98.5565 36.9967 99.175 37.2034 99.9114 37.4102C100.648 37.5874 101.414 37.735 102.209 37.8531C103.034 37.9713 103.858 38.0008 104.683 38.0008C106.303 38.0008 107.982 37.7941 109.632 37.3806C111.458 36.9081 113.137 36.1403 114.639 35.0476C116.259 33.8958 117.555 32.3306 118.527 30.4405C119.499 28.5504 120 26.306 120 23.7662V20.6357C120 18.0664 119.529 15.8219 118.586 13.9319C117.673 12.0713 116.436 10.5652 114.934 9.38387C113.49 8.26164 111.87 7.46426 110.132 6.99174C108.601 6.51923 107.04 6.3125 105.537 6.3125Z" fill="white"/>
<path d="M86.2742 21.4395C87.1527 21.4395 87.8648 20.7255 87.8648 19.8448C87.8648 18.964 87.1527 18.25 86.2742 18.25C85.3957 18.25 84.6836 18.964 84.6836 19.8448C84.6836 20.7255 85.3957 21.4395 86.2742 21.4395Z" fill="white"/>
<path d="M100.501 21.4395C101.379 21.4395 102.091 20.7255 102.091 19.8448C102.091 18.964 101.379 18.25 100.501 18.25C99.6223 18.25 98.9102 18.964 98.9102 19.8448C98.9102 20.7255 99.6223 21.4395 100.501 21.4395Z" fill="white"/>
</svg>