<svg width="20" height="15" viewBox="0 0 20 15" fill="none" xmlns="http://www.w3.org/2000/svg">
<path d="M13.6218 0.0960151V0.0927734H14.4658L14.7742 0.154365C14.9798 0.194352 15.1664 0.246753 15.3341 0.311587C15.5019 0.376421 15.6642 0.452065 15.8211 0.538505C15.978 0.624944 16.1203 0.713021 16.2479 0.802702C16.3745 0.891313 16.4882 0.985322 16.5888 1.08473C16.6883 1.18522 16.8436 1.21115 17.0546 1.16253C17.2656 1.1139 17.4928 1.04636 17.7363 0.959923C17.9798 0.873484 18.2205 0.776233 18.4586 0.668172C18.6966 0.56011 18.8416 0.4915 18.8936 0.462325C18.9444 0.43208 18.9715 0.415872 18.9747 0.4137L18.978 0.408837L18.9942 0.400733L19.0104 0.392629L19.0266 0.384525L19.0429 0.376421L19.0461 0.371558L19.051 0.368316L19.0559 0.365075L19.0591 0.360212L19.0753 0.35535L19.0916 0.352108L19.0883 0.376421L19.0835 0.400733L19.0753 0.425046L19.0672 0.449358L19.0591 0.465567L19.051 0.481775L19.0429 0.506088C19.0375 0.522296 19.0321 0.543902 19.0266 0.570921C19.0212 0.597941 18.9698 0.705986 18.8725 0.89509C18.7751 1.08419 18.6533 1.27599 18.5073 1.47049C18.3612 1.66499 18.2303 1.81193 18.1145 1.91136C17.9976 2.01185 17.9203 2.08208 17.8824 2.12207C17.8445 2.16312 17.7985 2.20094 17.7444 2.23552L17.6633 2.28901L17.647 2.29712L17.6308 2.30522L17.6276 2.31008L17.6227 2.31333L17.6178 2.31657L17.6146 2.32143L17.5983 2.32953L17.5821 2.33764L17.5789 2.3425L17.574 2.34574L17.5691 2.34898L17.5659 2.35385L17.5626 2.35871L17.5578 2.36195L17.5529 2.36519L17.5496 2.37005H17.6308L18.0853 2.2728C18.3882 2.20797 18.6777 2.12964 18.9536 2.03778L19.3918 1.89191L19.4405 1.8757L19.4649 1.86759L19.4811 1.85949L19.4973 1.85139L19.5136 1.84328L19.5298 1.83518L19.5623 1.83031L19.5947 1.82707V1.85949L19.5866 1.86273L19.5785 1.86759L19.5753 1.87246L19.5704 1.8757L19.5655 1.87894L19.5623 1.8838L19.559 1.88867L19.5541 1.89191L19.5493 1.89515L19.546 1.90001L19.5428 1.90487L19.5379 1.90812L19.5298 1.92432L19.5217 1.94053L19.5168 1.94377C19.5147 1.94702 19.446 2.03885 19.3107 2.21932C19.1754 2.40085 19.1024 2.49269 19.0916 2.49486C19.0808 2.4981 19.0656 2.51431 19.0461 2.54348C19.0277 2.57373 18.913 2.69422 18.702 2.90493C18.491 3.11564 18.2844 3.30311 18.082 3.46736C17.8786 3.63269 17.7758 3.83583 17.7736 4.0768C17.7704 4.31668 17.7579 4.58792 17.7363 4.89046C17.7147 5.19302 17.6741 5.51988 17.6146 5.87107C17.5551 6.22226 17.4631 6.61936 17.3386 7.06239C17.2142 7.50541 17.0627 7.93764 16.8842 8.35906C16.7056 8.78048 16.519 9.15867 16.3242 9.49365C16.1294 9.82863 15.9509 10.1123 15.7886 10.3446C15.6263 10.5769 15.4613 10.7957 15.2936 11.001C15.1258 11.2063 14.9138 11.4376 14.6573 11.6948C14.3998 11.9508 14.2591 12.0913 14.2353 12.1162C14.2104 12.1399 14.1044 12.2286 13.9172 12.382C13.7311 12.5365 13.5309 12.691 13.3166 12.8455C13.1035 12.999 12.9076 13.127 12.7291 13.2297C12.5505 13.3323 12.3352 13.4496 12.0831 13.5814C11.8321 13.7143 11.5605 13.8375 11.2683 13.951C10.9762 14.0644 10.6678 14.1698 10.3431 14.267C10.0185 14.3643 9.70474 14.4399 9.40176 14.4939C9.09879 14.548 8.75524 14.5939 8.3711 14.6317L7.79491 14.6884V14.6965H6.7399V14.6884L6.60194 14.6803C6.50998 14.6749 6.43423 14.6695 6.37471 14.6641C6.31521 14.6587 6.09067 14.629 5.70113 14.575C5.31159 14.521 5.00591 14.4669 4.78409 14.4129C4.56228 14.3589 4.23224 14.2562 3.79401 14.1049C3.35577 13.9537 2.98084 13.8008 2.66921 13.6462C2.35866 13.4928 2.16389 13.3955 2.0849 13.3545C2.00699 13.3145 1.91934 13.2648 1.82196 13.2054L1.67588 13.1162L1.67265 13.1114L1.66777 13.1081L1.6629 13.1049L1.65965 13.1L1.64342 13.0919L1.62719 13.0838L1.62396 13.079L1.61907 13.0757L1.6142 13.0725L1.61096 13.0676L1.60773 13.0627L1.60284 13.0595H1.59473V13.0271L1.61096 13.0303L1.62719 13.0352L1.70023 13.0433C1.74892 13.0487 1.88148 13.0568 2.09788 13.0676C2.3143 13.0784 2.54423 13.0784 2.78769 13.0676C3.03116 13.0568 3.28004 13.0325 3.53431 12.9947C3.7886 12.9569 4.08887 12.892 4.43512 12.8002C4.78139 12.7083 5.09952 12.5992 5.38951 12.4728C5.67842 12.3453 5.884 12.2502 6.00628 12.1875C6.12746 12.1259 6.3125 12.0114 6.56136 11.8439L6.93467 11.5926L6.93792 11.5878L6.94279 11.5845L6.94767 11.5813L6.9509 11.5764L6.95415 11.5716L6.95902 11.5683L6.9639 11.5651L6.96713 11.5602L6.98337 11.5554L6.9996 11.5521L7.00284 11.5359L7.00771 11.5197L7.0126 11.5165L7.01583 11.5116L6.88598 11.5035C6.79942 11.4981 6.71556 11.4927 6.6344 11.4873C6.55325 11.4819 6.42611 11.4576 6.25298 11.4143C6.07986 11.3711 5.8932 11.3063 5.69301 11.2198C5.49284 11.1334 5.29807 11.0307 5.1087 10.9119C4.91935 10.793 4.78246 10.6941 4.69806 10.6153C4.61475 10.5375 4.50654 10.4273 4.37345 10.2846C4.24144 10.1409 4.12674 9.9934 4.02935 9.84213C3.93197 9.69086 3.83892 9.51633 3.7502 9.3186L3.61547 9.02361L3.60735 8.99929L3.59924 8.97498L3.59437 8.95877L3.59112 8.94256L3.61547 8.94581L3.63981 8.95067L3.81835 8.97498C3.93739 8.99119 4.12404 8.99659 4.37832 8.99119C4.6326 8.98579 4.80843 8.97498 4.90582 8.95877C5.0032 8.94256 5.06272 8.93175 5.08436 8.92636L5.11682 8.91825L5.1574 8.91015L5.19797 8.90204L5.20122 8.89718L5.20609 8.89394L5.21097 8.8907L5.2142 8.88583L5.18174 8.87773L5.14928 8.86963L5.11682 8.86152L5.08436 8.85342L5.0519 8.84531C5.03026 8.83992 4.99239 8.82911 4.93828 8.8129C4.88418 8.79669 4.7381 8.73725 4.50005 8.6346C4.26201 8.53196 4.07264 8.432 3.93197 8.33475C3.79095 8.23722 3.65648 8.13055 3.52944 8.01544C3.40284 7.89874 3.26381 7.74854 3.11231 7.56485C2.96083 7.38116 2.82558 7.16774 2.70654 6.92462C2.58752 6.68149 2.49825 6.44918 2.43873 6.22766C2.37945 6.00744 2.34034 5.7823 2.32188 5.55501L2.29265 5.21463L2.30888 5.21787L2.32511 5.22273L2.34135 5.23084L2.35758 5.23894L2.37381 5.24705L2.39004 5.25515L2.64162 5.36861C2.80935 5.44425 3.01764 5.50909 3.2665 5.56311C3.51539 5.61713 3.66416 5.64686 3.71285 5.65226L3.78589 5.66036H3.93197L3.92874 5.6555L3.92385 5.65226L3.91898 5.64902L3.91574 5.64415L3.91251 5.63929L3.90762 5.63605L3.90275 5.63281L3.89951 5.62794L3.88327 5.61984L3.86704 5.61174L3.86381 5.60687L3.85893 5.60363L3.85406 5.60039L3.85081 5.59553L3.83458 5.58742L3.81835 5.57932L3.81512 5.57446C3.81188 5.57229 3.76534 5.53771 3.67552 5.47072C3.58679 5.40265 3.49373 5.31459 3.39635 5.20653C3.29896 5.09846 3.20158 4.98501 3.10419 4.86615C3.00663 4.74702 2.91973 4.61957 2.8445 4.48525C2.76877 4.35019 2.68869 4.17836 2.60428 3.96982C2.52097 3.76236 2.45767 3.55327 2.41438 3.34256C2.37111 3.13185 2.34677 2.92385 2.34135 2.71854C2.33594 2.51322 2.34135 2.33764 2.35758 2.19176C2.37381 2.04589 2.40627 1.8811 2.45496 1.69741C2.50365 1.51372 2.574 1.31922 2.66596 1.1139L2.80392 0.805943L2.81204 0.781631L2.82015 0.757318L2.82504 0.754076L2.82827 0.749214L2.83152 0.744351L2.83639 0.74111L2.84127 0.744351L2.8445 0.749214L2.84775 0.754076L2.85262 0.757318L2.8575 0.76056L2.86073 0.765422L2.86398 0.770285L2.86885 0.773527L2.87696 0.789735L2.88508 0.805943L2.88996 0.809185L2.89319 0.814048L3.11231 1.05717C3.25839 1.21926 3.43152 1.40026 3.6317 1.60016C3.83189 1.80005 3.94279 1.90379 3.96443 1.91136C3.98608 1.92 4.01312 1.94484 4.04558 1.98592C4.07804 2.0259 4.18626 2.12153 4.3702 2.2728C4.55416 2.42408 4.79491 2.59968 5.09247 2.79958C5.39005 2.99948 5.72007 3.19668 6.08255 3.39118C6.44505 3.58569 6.83459 3.76127 7.25117 3.91796C7.66777 4.07464 7.95993 4.17729 8.12764 4.22592C8.29537 4.27454 8.5821 4.33667 8.98787 4.41231C9.39364 4.48796 9.69934 4.53658 9.90492 4.55819C10.1105 4.5798 10.2512 4.59223 10.3269 4.59547L10.4405 4.59871L10.4373 4.5744L10.4324 4.55009L10.4 4.34748C10.3783 4.21242 10.3675 4.02331 10.3675 3.78019C10.3675 3.53706 10.3864 3.31285 10.4243 3.10754C10.4622 2.90223 10.519 2.69422 10.5947 2.48351C10.6705 2.2728 10.7446 2.10369 10.8171 1.97619C10.8907 1.84976 10.987 1.70551 11.106 1.54343C11.225 1.38134 11.3792 1.21386 11.5686 1.04097C11.7579 0.86807 11.9743 0.71409 12.2178 0.579026C12.4613 0.443961 12.6858 0.341297 12.8914 0.271066C13.097 0.200835 13.2701 0.1549 13.4108 0.133294C13.5514 0.111689 13.6218 0.0992568 13.6218 0.0960151Z" fill="white"/>
</svg>
