<svg width="51" height="51" viewBox="0 0 51 51" fill="none" xmlns="http://www.w3.org/2000/svg">
<g filter="url(#filter0_d_1964_10651)">
<rect x="8" y="4" width="35" height="35" rx="17.5" fill="white"/>
<path d="M33.1891 22.5791H33.1881H33.1891ZM13.1061 24.9261C16.2361 27.7811 20.3781 29.4991 24.9761 29.4991C28.2561 29.4991 32.0721 28.4591 34.6981 26.4991C35.1291 26.1761 34.7541 25.6841 34.3151 25.8861C31.3691 27.1441 28.1691 27.7571 25.2551 27.7571C20.9371 27.7571 16.7621 26.5551 13.3781 24.5711C13.0821 24.3941 12.8591 24.7011 13.1061 24.9261Z" fill="#FF9800"/>
<path d="M30.1812 15.4091C30.1812 15.2731 30.1082 15.2071 29.9812 15.2071H29.2402L29.2062 15.2061C29.1022 15.2061 29.0062 15.2361 28.9272 15.2881C28.8712 15.3361 28.8152 15.4421 28.7672 15.6031L27.3862 21.0061L26.1252 15.6031C26.0942 15.4491 26.0372 15.3361 25.9742 15.2881C25.9102 15.2321 25.8062 15.2071 25.6542 15.2071H25.0182L24.9832 15.2061C24.8817 15.2057 24.7821 15.2341 24.6962 15.2881C24.6332 15.3361 24.5852 15.4421 24.5452 15.6031L23.3002 20.9421L21.9582 15.6031C21.9112 15.4491 21.8632 15.3361 21.7982 15.2881C21.7432 15.2321 21.6392 15.2071 21.4882 15.2071H20.7052C20.5782 15.2071 20.5142 15.2801 20.5142 15.4091L20.5152 15.4151C20.5272 15.5291 20.5522 15.6391 20.5862 15.7331L22.4612 21.9681C22.5092 22.1211 22.5652 22.2341 22.6292 22.2821C22.6932 22.3391 22.7892 22.3631 22.9332 22.3631L23.6192 22.3621C23.7622 22.3621 23.8742 22.3381 23.9392 22.2811C24.0022 22.2241 24.0492 22.1191 24.0892 21.9581L25.3192 16.7651L26.5572 21.9661C26.5882 22.1281 26.6442 22.2331 26.7072 22.2891C26.7722 22.3461 26.8762 22.3701 27.0272 22.3701H27.7132L27.7422 22.3711C27.8442 22.3711 27.9392 22.3411 28.0172 22.2891C28.0812 22.2411 28.1372 22.1361 28.1852 21.9751L30.1082 15.7411L30.1052 15.7491C30.1313 15.6811 30.1511 15.6108 30.1642 15.5391C30.1722 15.4901 30.1812 15.4501 30.1812 15.4091ZM34.6822 20.4511V20.4731C34.6825 20.6223 34.6445 20.769 34.5718 20.8993C34.4992 21.0296 34.3943 21.139 34.2672 21.2171C33.9962 21.3951 33.6042 21.4841 33.1022 21.4841C32.7822 21.4841 32.4712 21.4521 32.1522 21.3871C31.8503 21.3247 31.5559 21.2302 31.2742 21.1051C31.1942 21.0731 31.1222 21.0401 31.0742 21.0241C31.0278 21.0084 30.9791 21.0003 30.9302 21.0001C30.8112 21.0001 30.7472 21.0811 30.7472 21.2501V21.6611C30.7482 21.7431 30.7652 21.8211 30.7952 21.8871C30.8272 21.9601 30.9142 22.0411 31.0422 22.1121C31.2502 22.2331 31.5612 22.3381 31.9602 22.4351C32.3624 22.5312 32.7746 22.5795 33.1882 22.5791C33.5749 22.5815 33.9597 22.5245 34.3292 22.4101C34.6722 22.3051 34.9672 22.1601 35.2152 21.9581C35.4622 21.7641 35.6542 21.5231 35.7982 21.2481C35.9332 20.9741 36.0052 20.6591 36.0052 20.3121C36.0052 19.8931 35.8852 19.5141 35.6382 19.1831C35.3912 18.8531 34.9752 18.5941 34.4012 18.4081L33.2672 18.0461C32.8442 17.9091 32.5492 17.7551 32.3902 17.6011C32.3123 17.5277 32.2507 17.4388 32.2094 17.3401C32.168 17.2414 32.1479 17.1351 32.1502 17.0281C32.1502 16.6981 32.2782 16.4641 32.5252 16.3111C32.7722 16.1571 33.1322 16.0861 33.5872 16.0861H33.6432C34.1519 16.0841 34.6553 16.1912 35.1192 16.4001L35.1152 16.3981C35.2098 16.4515 35.3142 16.4852 35.4222 16.4971C35.5422 16.4971 35.6062 16.4081 35.6062 16.2381V15.8631C35.6123 15.769 35.5873 15.6756 35.5352 15.5971L35.5342 15.5951C35.4704 15.5114 35.3887 15.4431 35.2952 15.3951C35.1895 15.3337 35.0771 15.2847 34.9602 15.2491C34.8101 15.201 34.6583 15.1583 34.5052 15.1211C34.3372 15.0891 34.1702 15.0561 33.9872 15.0321C33.8097 15.0095 33.631 14.9988 33.4522 15.0001C33.1012 15.0001 32.7662 15.0411 32.4462 15.1371C32.1262 15.2331 31.8562 15.3701 31.6162 15.5561C31.3793 15.7327 31.1832 15.9581 31.0412 16.2171C30.8936 16.492 30.8193 16.8002 30.8252 17.1121C30.8272 17.5551 30.9772 17.9631 31.2252 18.2821C31.4882 18.6451 31.9192 18.9191 32.5022 19.1031L33.6592 19.4671C34.0502 19.5961 34.3222 19.7341 34.4662 19.8861C34.6002 20.0261 34.6822 20.2181 34.6822 20.4291V20.4511Z" fill="#212121"/>
<path d="M35.4241 28.4183C36.8291 27.2253 37.1961 24.7333 36.9091 24.3703C36.6221 24.0153 34.1551 23.7093 32.6551 24.7733C32.4231 24.9433 32.4631 25.1693 32.7181 25.1373C33.5721 25.0323 35.4561 24.8073 35.7921 25.2413C36.1271 25.6693 35.4171 27.4683 35.0971 28.2663C35.0011 28.5073 35.2091 28.6043 35.4241 28.4183Z" fill="#FF9800"/>
<path d="M17.5202 18.1926C17.2399 18.152 16.9573 18.1303 16.6742 18.1276C15.8522 18.1276 15.2062 18.3376 14.7192 18.7566C14.2322 19.1746 13.9932 19.7326 13.9932 20.4176C13.9932 21.0636 14.1922 21.5796 14.5832 21.9666C14.9742 22.3536 15.5092 22.5466 16.1792 22.5466C17.1212 22.5466 17.9042 22.1756 18.5262 21.4346L18.5422 21.4716C18.6182 21.6316 18.7012 21.7866 18.7742 21.9096L18.7802 21.9196C18.8632 22.0516 18.9572 22.1766 19.0612 22.2886C19.1402 22.3616 19.2202 22.4026 19.3002 22.4026H19.3012C19.3759 22.3996 19.448 22.3742 19.5082 22.3296L20.0112 21.9916C20.1152 21.9106 20.1632 21.8296 20.1632 21.7496C20.1623 21.6839 20.1429 21.6198 20.1072 21.5646C20.0077 21.3772 19.9221 21.1826 19.8512 20.9826C19.7865 20.7493 19.7569 20.5077 19.7632 20.2656L19.7472 20.2666V17.6526C19.7472 16.7656 19.5242 16.1036 19.0852 15.6696C18.6382 15.2336 17.9442 15.0156 16.9942 15.0156H16.9482C16.5222 15.0156 16.1082 15.0716 15.7482 15.1686C15.4001 15.2499 15.0628 15.3718 14.7432 15.5316L14.7392 15.5326C14.6538 15.5704 14.5785 15.6276 14.5192 15.6996C14.4792 15.7566 14.4632 15.8536 14.4632 15.9826V16.3776C14.4632 16.5466 14.5192 16.6276 14.6312 16.6276H14.6322C14.675 16.6259 14.7175 16.6182 14.7582 16.6046L14.7742 16.6006C14.8643 16.5724 14.9525 16.5383 15.0382 16.4986C15.3172 16.3856 15.6052 16.2966 15.9002 16.2236C16.1952 16.1506 16.4832 16.1196 16.7632 16.1196C17.3772 16.1196 17.8082 16.2396 18.0632 16.4906C18.3112 16.7406 18.4382 17.1676 18.4382 17.7806V18.3696C18.1349 18.2974 17.8286 18.2383 17.5202 18.1926ZM18.4552 19.2736V19.6116C18.4552 19.8856 18.4222 20.1196 18.3752 20.3126C18.3255 20.5036 18.2324 20.6805 18.1032 20.8296C17.9 21.065 17.6386 21.2429 17.3452 21.3456C17.0809 21.4386 16.8033 21.4876 16.5232 21.4906C16.1552 21.4906 15.8762 21.3936 15.6852 21.1916C15.4852 20.9986 15.3902 20.7156 15.3902 20.3366C15.3902 19.9336 15.5172 19.6276 15.7802 19.4106C16.0442 19.1926 16.4352 19.0876 16.9702 19.0876C17.2352 19.0876 17.4952 19.1056 17.7202 19.1356L17.7542 19.1396C18.0082 19.1736 18.2572 19.2216 18.4552 19.2736Z" fill="#212121"/>
</g>
<defs>
<filter id="filter0_d_1964_10651" x="0" y="0" width="51" height="51" filterUnits="userSpaceOnUse" color-interpolation-filters="sRGB">
<feFlood flood-opacity="0" result="BackgroundImageFix"/>
<feColorMatrix in="SourceAlpha" type="matrix" values="0 0 0 0 0 0 0 0 0 0 0 0 0 0 0 0 0 0 127 0" result="hardAlpha"/>
<feOffset dy="4"/>
<feGaussianBlur stdDeviation="4"/>
<feComposite in2="hardAlpha" operator="out"/>
<feColorMatrix type="matrix" values="0 0 0 0 0 0 0 0 0 0 0 0 0 0 0 0 0 0 0.15 0"/>
<feBlend mode="normal" in2="BackgroundImageFix" result="effect1_dropShadow_1964_10651"/>
<feBlend mode="normal" in="SourceGraphic" in2="effect1_dropShadow_1964_10651" result="shape"/>
</filter>
</defs>
</svg>
