<svg width="35" height="35" viewBox="0 0 35 35" fill="none" xmlns="http://www.w3.org/2000/svg">
<rect width="35" height="35" rx="17.5" fill="white"/>
<path d="M25.1891 18.5781H25.1881H25.1891ZM5.10612 20.9251C8.23612 23.7801 12.3781 25.4981 16.9761 25.4981C20.2561 25.4981 24.0721 24.4581 26.6981 22.4981C27.1291 22.1751 26.7541 21.6831 26.3151 21.8851C23.3691 23.1431 20.1691 23.7561 17.2551 23.7561C12.9371 23.7561 8.76212 22.5541 5.37812 20.5701C5.08212 20.3931 4.85912 20.7001 5.10612 20.9251Z" fill="#FF9800"/>
<path d="M22.1812 11.4091C22.1812 11.2731 22.1082 11.2071 21.9812 11.2071H21.2402L21.2062 11.2061C21.1022 11.2061 21.0062 11.2361 20.9272 11.2881C20.8712 11.3361 20.8152 11.4421 20.7672 11.6031L19.3862 17.0061L18.1252 11.6031C18.0942 11.4491 18.0372 11.3361 17.9742 11.2881C17.9102 11.2321 17.8062 11.2071 17.6542 11.2071H17.0182L16.9832 11.2061C16.8817 11.2057 16.7821 11.2341 16.6962 11.2881C16.6332 11.3361 16.5852 11.4421 16.5452 11.6031L15.3002 16.9421L13.9582 11.6031C13.9112 11.4491 13.8632 11.3361 13.7982 11.2881C13.7432 11.2321 13.6392 11.2071 13.4882 11.2071H12.7052C12.5782 11.2071 12.5142 11.2801 12.5142 11.4091L12.5152 11.4151C12.5272 11.5291 12.5522 11.6391 12.5862 11.7331L14.4612 17.9681C14.5092 18.1211 14.5652 18.2341 14.6292 18.2821C14.6932 18.3391 14.7892 18.3631 14.9332 18.3631L15.6192 18.3621C15.7622 18.3621 15.8742 18.3381 15.9392 18.2811C16.0022 18.2241 16.0492 18.1191 16.0892 17.9581L17.3192 12.7651L18.5572 17.9661C18.5882 18.1281 18.6442 18.2331 18.7072 18.2891C18.7722 18.3461 18.8762 18.3701 19.0272 18.3701H19.7132L19.7422 18.3711C19.8442 18.3711 19.9392 18.3411 20.0172 18.2891C20.0812 18.2411 20.1372 18.1361 20.1852 17.9751L22.1082 11.7411L22.1052 11.7491C22.1313 11.6811 22.1511 11.6108 22.1642 11.5391C22.1722 11.4901 22.1812 11.4501 22.1812 11.4091ZM26.6822 16.4511V16.4731C26.6825 16.6223 26.6445 16.769 26.5718 16.8993C26.4992 17.0296 26.3943 17.139 26.2672 17.2171C25.9962 17.3951 25.6042 17.4841 25.1022 17.4841C24.7822 17.4841 24.4712 17.4521 24.1522 17.3871C23.8503 17.3247 23.5559 17.2302 23.2742 17.1051C23.1942 17.0731 23.1222 17.0401 23.0742 17.0241C23.0278 17.0084 22.9791 17.0003 22.9302 17.0001C22.8112 17.0001 22.7472 17.0811 22.7472 17.2501V17.6611C22.7482 17.7431 22.7652 17.8211 22.7952 17.8871C22.8272 17.9601 22.9142 18.0411 23.0422 18.1121C23.2502 18.2331 23.5612 18.3381 23.9602 18.4351C24.3624 18.5312 24.7746 18.5795 25.1882 18.5791C25.5749 18.5815 25.9597 18.5245 26.3292 18.4101C26.6722 18.3051 26.9672 18.1601 27.2152 17.9581C27.4622 17.7641 27.6542 17.5231 27.7982 17.2481C27.9332 16.9741 28.0052 16.6591 28.0052 16.3121C28.0052 15.8931 27.8852 15.5141 27.6382 15.1831C27.3912 14.8531 26.9752 14.5941 26.4012 14.4081L25.2672 14.0461C24.8442 13.9091 24.5492 13.7551 24.3902 13.6011C24.3123 13.5277 24.2507 13.4388 24.2094 13.3401C24.168 13.2414 24.1479 13.1351 24.1502 13.0281C24.1502 12.6981 24.2782 12.4641 24.5252 12.3111C24.7722 12.1571 25.1322 12.0861 25.5872 12.0861H25.6432C26.1519 12.0841 26.6553 12.1912 27.1192 12.4001L27.1152 12.3981C27.2098 12.4515 27.3142 12.4852 27.4222 12.4971C27.5422 12.4971 27.6062 12.4081 27.6062 12.2381V11.8631C27.6123 11.769 27.5873 11.6756 27.5352 11.5971L27.5342 11.5951C27.4704 11.5114 27.3887 11.4431 27.2952 11.3951C27.1895 11.3337 27.0771 11.2847 26.9602 11.2491C26.8101 11.201 26.6583 11.1583 26.5052 11.1211C26.3372 11.0891 26.1702 11.0561 25.9872 11.0321C25.8097 11.0095 25.631 10.9988 25.4522 11.0001C25.1012 11.0001 24.7662 11.0411 24.4462 11.1371C24.1262 11.2331 23.8562 11.3701 23.6162 11.5561C23.3793 11.7327 23.1832 11.9581 23.0412 12.2171C22.8936 12.492 22.8193 12.8002 22.8252 13.1121C22.8272 13.5551 22.9772 13.9631 23.2252 14.2821C23.4882 14.6451 23.9192 14.9191 24.5022 15.1031L25.6592 15.4671C26.0502 15.5961 26.3222 15.7341 26.4662 15.8861C26.6002 16.0261 26.6822 16.2181 26.6822 16.4291V16.4511Z" fill="#212121"/>
<path d="M27.4241 24.4183C28.8291 23.2253 29.1961 20.7333 28.9091 20.3703C28.6221 20.0153 26.1551 19.7093 24.6551 20.7733C24.4231 20.9433 24.4631 21.1693 24.7181 21.1373C25.5721 21.0323 27.4561 20.8073 27.7921 21.2413C28.1271 21.6693 27.4171 23.4683 27.0971 24.2663C27.0011 24.5073 27.2091 24.6043 27.4241 24.4183Z" fill="#FF9800"/>
<path d="M9.52016 14.1926C9.23995 14.152 8.9573 14.1303 8.67416 14.1276C7.85216 14.1276 7.20616 14.3376 6.71916 14.7566C6.23216 15.1746 5.99316 15.7326 5.99316 16.4176C5.99316 17.0636 6.19216 17.5796 6.58316 17.9666C6.97416 18.3536 7.50916 18.5466 8.17916 18.5466C9.12116 18.5466 9.90416 18.1756 10.5262 17.4346L10.5422 17.4716C10.6182 17.6316 10.7012 17.7866 10.7742 17.9096L10.7802 17.9196C10.8632 18.0516 10.9572 18.1766 11.0612 18.2886C11.1402 18.3616 11.2202 18.4026 11.3002 18.4026H11.3012C11.3759 18.3996 11.448 18.3742 11.5082 18.3296L12.0112 17.9916C12.1152 17.9106 12.1632 17.8296 12.1632 17.7496C12.1623 17.6839 12.1429 17.6198 12.1072 17.5646C12.0077 17.3772 11.9221 17.1826 11.8512 16.9826C11.7865 16.7493 11.7569 16.5077 11.7632 16.2656L11.7472 16.2666V13.6526C11.7472 12.7656 11.5242 12.1036 11.0852 11.6696C10.6382 11.2336 9.94416 11.0156 8.99416 11.0156H8.94816C8.52216 11.0156 8.10816 11.0716 7.74816 11.1686C7.40013 11.2499 7.06283 11.3718 6.74316 11.5316L6.73916 11.5326C6.65384 11.5704 6.57851 11.6276 6.51916 11.6996C6.47916 11.7566 6.46316 11.8536 6.46316 11.9826V12.3776C6.46316 12.5466 6.51916 12.6276 6.63116 12.6276H6.63216C6.67504 12.6259 6.71746 12.6182 6.75816 12.6046L6.77416 12.6006C6.86428 12.5724 6.95247 12.5383 7.03816 12.4986C7.31716 12.3856 7.60516 12.2966 7.90016 12.2236C8.19516 12.1506 8.48316 12.1196 8.76316 12.1196C9.37716 12.1196 9.80816 12.2396 10.0632 12.4906C10.3112 12.7406 10.4382 13.1676 10.4382 13.7806V14.3696C10.1349 14.2974 9.82858 14.2383 9.52016 14.1926ZM10.4552 15.2736V15.6116C10.4552 15.8856 10.4222 16.1196 10.3752 16.3126C10.3255 16.5036 10.2324 16.6805 10.1032 16.8296C9.89999 17.065 9.63862 17.2429 9.34516 17.3456C9.08094 17.4386 8.80325 17.4876 8.52316 17.4906C8.15516 17.4906 7.87616 17.3936 7.68516 17.1916C7.48516 16.9986 7.39016 16.7156 7.39016 16.3366C7.39016 15.9336 7.51716 15.6276 7.78016 15.4106C8.04416 15.1926 8.43516 15.0876 8.97016 15.0876C9.23516 15.0876 9.49516 15.1056 9.72016 15.1356L9.75416 15.1396C10.0082 15.1736 10.2572 15.2216 10.4552 15.2736Z" fill="#212121"/>
</svg>
