<svg width="51" height="51" viewBox="0 0 51 51" fill="none" xmlns="http://www.w3.org/2000/svg">
<g filter="url(#filter0_d_1964_10690)">
<rect x="8" y="4" width="35" height="35" rx="17.5" fill="white"/>
<path d="M37.4026 16.2365C37.4025 15.7669 37.302 15.352 37.0989 14.9959C36.8994 14.6457 36.6007 14.3522 36.1999 14.1201C32.8919 12.2127 29.5807 10.3111 26.2738 8.40178C25.3823 7.88708 24.5179 7.90585 23.633 8.42793C22.3163 9.20444 15.7241 12.9812 13.7598 14.119C12.9508 14.5873 12.5571 15.3041 12.5569 16.2357C12.5557 20.0716 12.5569 23.9074 12.5557 27.7434C12.5559 28.2026 12.652 28.6095 12.8462 28.9603C13.0458 29.3211 13.3487 29.6227 13.7587 29.86C15.7232 30.9978 22.3162 34.7743 23.6326 35.551C24.5179 36.0734 25.3823 36.092 26.2741 35.5771C29.5811 33.6677 32.8925 31.7662 36.201 29.8588C36.611 29.6216 36.9139 29.3198 37.1135 28.9593C37.3074 28.6085 37.4037 28.2017 37.4039 27.7423C37.4039 27.7423 37.4039 20.0725 37.4026 16.2365Z" fill="#5C8DBC"/>
<path d="M25.0178 21.9521L12.8462 28.9603C13.0458 29.3211 13.3487 29.6227 13.7587 29.86C15.7232 30.9978 22.3162 34.7743 23.6326 35.551C24.5179 36.0734 25.3823 36.0921 26.2741 35.5772C29.5812 33.6677 32.8925 31.7662 36.201 29.8588C36.611 29.6216 36.9139 29.3198 37.1135 28.9593L25.0178 21.9521Z" fill="#1A4674"/>
<path d="M21.4126 24.028C22.1209 25.2645 23.4523 26.0985 24.9797 26.0985C26.5165 26.0985 27.8555 25.2539 28.5602 24.0042L25.0177 21.9521L21.4126 24.028Z" fill="#1A4674"/>
<path d="M37.4024 16.2367C37.4022 15.7672 37.3018 15.3522 37.0987 14.9961L25.0176 21.9523L37.1133 28.9595C37.3071 28.6088 37.4035 28.2019 37.4037 27.7425C37.4037 27.7425 37.4037 20.0727 37.4024 16.2367Z" fill="#1B598E"/>
<path d="M36.7375 22.4528H35.7923V23.3982H34.847V22.4528H33.9019V21.5077H34.847V20.5625H35.7923V21.5077H36.7375V22.4528Z" fill="white"/>
<path d="M33.2886 22.4528H32.3435V23.3982H31.3983V22.4528H30.4531V21.5077H31.3983V20.5625H32.3435V21.5077H33.2886V22.4528Z" fill="white"/>
<path d="M28.5603 24.0042C27.8556 25.2539 26.5166 26.0984 24.9798 26.0984C23.4524 26.0984 22.1209 25.2645 21.4127 24.028C21.0686 23.4272 20.8708 22.7315 20.8708 21.9894C20.8708 19.7202 22.7105 17.8805 24.9798 17.8805C26.4973 17.8805 27.8218 18.7041 28.5335 19.9279L32.125 17.8598C30.6975 15.3956 28.0323 13.7378 24.9798 13.7378C20.4224 13.7378 16.728 17.4322 16.728 21.9894C16.728 23.4845 17.1258 24.8866 17.8209 26.0959C19.2448 28.5731 21.9176 30.2412 24.9798 30.2412C28.0476 30.2412 30.7245 28.5664 32.1464 26.0819L28.5603 24.0042Z" fill="white"/>
</g>
<defs>
<filter id="filter0_d_1964_10690" x="0" y="0" width="51" height="51" filterUnits="userSpaceOnUse" color-interpolation-filters="sRGB">
<feFlood flood-opacity="0" result="BackgroundImageFix"/>
<feColorMatrix in="SourceAlpha" type="matrix" values="0 0 0 0 0 0 0 0 0 0 0 0 0 0 0 0 0 0 127 0" result="hardAlpha"/>
<feOffset dy="4"/>
<feGaussianBlur stdDeviation="4"/>
<feComposite in2="hardAlpha" operator="out"/>
<feColorMatrix type="matrix" values="0 0 0 0 0 0 0 0 0 0 0 0 0 0 0 0 0 0 0.15 0"/>
<feBlend mode="normal" in2="BackgroundImageFix" result="effect1_dropShadow_1964_10690"/>
<feBlend mode="normal" in="SourceGraphic" in2="effect1_dropShadow_1964_10690" result="shape"/>
</filter>
</defs>
</svg>
