<svg width="35" height="35" viewBox="0 0 35 35" fill="none" xmlns="http://www.w3.org/2000/svg">
<rect width="35" height="35" rx="17.5" fill="white"/>
<path d="M29.4026 12.238C29.4025 11.7684 29.302 11.3535 29.0989 10.9973C28.8994 10.6471 28.6007 10.3536 28.1999 10.1216C24.8919 8.21416 21.5807 6.31259 18.2738 4.40324C17.3823 3.88855 16.5179 3.90731 15.633 4.42939C14.3163 5.20591 7.72414 8.9827 5.75976 10.1205C4.95078 10.5888 4.55712 11.3055 4.55693 12.2371C4.55566 16.073 4.55693 19.9088 4.55566 23.7448C4.55586 24.2041 4.65201 24.611 4.84616 24.9618C5.04576 25.3225 5.34871 25.6241 5.75869 25.8614C7.72316 26.9992 14.3162 30.7757 15.6326 31.5524C16.5179 32.0748 17.3823 32.0935 18.2741 31.5786C21.5811 29.6692 24.8925 27.7677 28.201 25.8603C28.611 25.6231 28.9139 25.3213 29.1135 24.9608C29.3074 24.61 29.4037 24.2031 29.4039 23.7438C29.4039 23.7438 29.4039 16.074 29.4026 12.238Z" fill="#5C8DBC"/>
<path d="M17.0178 17.9531L4.84619 24.9613C5.04579 25.3221 5.34873 25.6237 5.75872 25.861C7.72319 26.9988 14.3162 30.7753 15.6326 31.552C16.5179 32.0744 17.3823 32.093 18.2741 31.5781C21.5812 29.6687 24.8925 27.7672 28.201 25.8598C28.611 25.6226 28.9139 25.3208 29.1135 24.9603L17.0178 17.9531Z" fill="#1A4674"/>
<path d="M13.4126 20.029C14.1209 21.2655 15.4523 22.0995 16.9797 22.0995C18.5165 22.0995 19.8555 21.2549 20.5602 20.0052L17.0177 17.9531L13.4126 20.029Z" fill="#1A4674"/>
<path d="M29.4024 12.2367C29.4022 11.7672 29.3018 11.3522 29.0987 10.9961L17.0176 17.9523L29.1133 24.9595C29.3071 24.6088 29.4035 24.2019 29.4037 23.7425C29.4037 23.7425 29.4037 16.0727 29.4024 12.2367Z" fill="#1B598E"/>
<path d="M28.7375 18.4528H27.7923V19.3982H26.847V18.4528H25.9019V17.5077H26.847V16.5625H27.7923V17.5077H28.7375V18.4528Z" fill="white"/>
<path d="M25.2886 18.4528H24.3435V19.3982H23.3983V18.4528H22.4531V17.5077H23.3983V16.5625H24.3435V17.5077H25.2886V18.4528Z" fill="white"/>
<path d="M20.5603 20.0047C19.8556 21.2544 18.5166 22.0989 16.9798 22.0989C15.4524 22.0989 14.1209 21.2649 13.4127 20.0285C13.0686 19.4276 12.8708 18.732 12.8708 17.9899C12.8708 15.7207 14.7105 13.881 16.9798 13.881C18.4973 13.881 19.8218 14.7046 20.5335 15.9284L24.125 13.8603C22.6975 11.3961 20.0323 9.73828 16.9798 9.73828C12.4224 9.73828 8.72803 13.4327 8.72803 17.9899C8.72803 19.485 9.12576 20.887 9.8209 22.0964C11.2448 24.5736 13.9176 26.2417 16.9798 26.2417C20.0476 26.2417 22.7245 24.5669 24.1464 22.0824L20.5603 20.0047Z" fill="white"/>
</svg>
