<svg width="35" height="35" viewBox="0 0 35 35" fill="none" xmlns="http://www.w3.org/2000/svg">
<rect width="35" height="35" rx="17.5" fill="white"/>
<path d="M21.4531 27.275C21.4531 27.2211 21.4711 27.1672 21.4531 27.1133C21.4172 27.0594 21.3992 27.0234 21.3633 26.9875C21.2734 26.8797 21.1836 26.7898 21.0758 26.682L20.0156 25.6039L20.8422 24.7594L21.2914 24.2742C21.3633 24.2023 21.4531 24.0586 21.4531 23.9508V23.8789C21.4531 23.7172 21.3812 23.6273 21.2195 23.5914L21.2555 23.6094H21.1297C21.0219 23.6094 20.7164 23.8969 20.6445 23.9867C20.375 24.2563 20.1953 24.5078 19.8359 24.7773V22.6391C19.8359 22.4414 19.7281 22.3516 19.5305 22.3516H19.4766C19.2789 22.3516 19.1172 22.4414 19.1172 22.6391V27.293C19.1172 27.4906 19.2789 27.5625 19.4766 27.5625H19.5305C19.7281 27.5625 19.8359 27.4727 19.8359 27.293V26.4664L20.375 26.9875C20.5367 27.1492 20.6984 27.257 20.8422 27.4008C20.9141 27.4727 21.0578 27.5625 21.1656 27.5625H21.2195C21.3992 27.5625 21.4531 27.4727 21.4891 27.3289L21.4531 27.3469V27.275ZM28.4789 23.6094H28.407C28.0117 23.6094 27.6523 23.7172 27.3289 23.9508C26.7898 24.3461 26.4844 24.8672 26.4844 25.55V27.3109C26.4844 27.5086 26.5562 27.5625 26.7539 27.5625H26.8078C27.0055 27.5625 27.2031 27.4906 27.2031 27.3109V25.6578C27.2031 25.2984 27.275 24.957 27.5445 24.6875C27.7602 24.4719 28.0297 24.2922 28.3352 24.2922C28.5688 24.2922 28.8383 24.2383 28.8383 23.9508C28.8383 23.7352 28.6766 23.6094 28.4789 23.6094ZM25.7117 24.5078C25.5141 24.1844 25.2445 23.9328 24.9031 23.7711C24.2742 23.4656 23.6094 23.4297 22.9984 23.7891L22.9086 23.843C22.657 23.9867 22.4414 24.1664 22.2797 24.4C21.8125 25.0828 21.7586 25.8555 22.1719 26.5742L22.2078 26.6461C22.3875 26.9516 22.6211 27.2031 22.9266 27.3648C23.5734 27.7242 24.2742 27.7602 24.9211 27.4008L24.975 27.3648C25.1547 27.257 25.1906 27.0773 25.1008 26.8977C25.0648 26.8258 24.993 26.7719 24.9211 26.7359H24.8852C24.7594 26.718 24.418 26.8617 24.2922 26.9156C24.0406 26.9516 23.7531 26.9695 23.5016 26.8797L24.8672 25.6938C25.0648 25.5141 25.2805 25.3164 25.4961 25.1547C25.6758 25.0109 25.8555 24.8133 25.7117 24.5617V24.5078ZM24.4719 25.1547L22.9445 26.4664C22.8906 26.4125 22.8547 26.3406 22.8188 26.2867C22.7109 26.107 22.6391 25.8914 22.6391 25.6758C22.6211 25.1367 22.8188 24.6875 23.3039 24.418C23.6633 24.2023 24.0586 24.1664 24.4539 24.3102C24.6516 24.382 24.8852 24.5078 25.0109 24.6875C24.8313 24.8492 24.6336 24.993 24.4719 25.1547ZM9.95312 22.3516H9.89922C9.70156 22.3516 9.59375 22.4234 9.59375 22.6211V24.0766C9.23438 23.7531 8.80313 23.6273 8.3 23.6273H8.15625C7.81484 23.6273 7.49141 23.6813 7.18594 23.8609C6.53906 24.2383 6.17969 24.7953 6.17969 25.55V25.6938C6.17969 26.0352 6.26953 26.3227 6.44922 26.6281C6.82656 27.275 7.41953 27.5984 8.15625 27.5984H8.3C8.64141 27.5984 9.00078 27.5445 9.28828 27.3828C9.93516 27.0055 10.3125 26.4484 10.3125 25.7117V22.657C10.3125 22.4234 10.1508 22.3516 9.95312 22.3516ZM9.39609 26.2688C9.12656 26.718 8.73125 26.9695 8.21016 26.9695C7.99453 26.9695 7.77891 26.9156 7.59922 26.8078C7.13203 26.5563 6.8625 26.143 6.8625 25.6039C6.8625 25.4063 6.89844 25.2266 6.98828 25.0469C7.23984 24.5258 7.65312 24.2383 8.22812 24.2383C8.51562 24.2383 8.76719 24.3281 8.98281 24.4898C9.36016 24.7594 9.57578 25.1188 9.57578 25.5859C9.59375 25.8375 9.52187 26.0531 9.39609 26.2688ZM12.7562 23.6094H12.6484C12.307 23.6094 11.9656 23.6633 11.6781 23.843C11.0312 24.2203 10.6719 24.7773 10.6719 25.532V25.6758C10.6719 26.0172 10.7617 26.3047 10.9414 26.6102C11.3187 27.257 11.9117 27.5805 12.6664 27.5805H12.8102C13.1516 27.5805 13.493 27.5266 13.7984 27.3648C14.4453 26.9875 14.8227 26.4305 14.8227 25.6938V25.55C14.8227 25.2266 14.7148 24.957 14.5711 24.6875C14.1758 23.9688 13.5469 23.6094 12.7562 23.6094ZM13.9062 26.2688C13.6367 26.7 13.2594 26.9695 12.7383 26.9695C12.5047 26.9695 12.2711 26.9156 12.0555 26.7898C11.6063 26.5203 11.3547 26.143 11.3547 25.6219C11.3547 25.4242 11.3906 25.2445 11.4805 25.0648C11.732 24.5438 12.1453 24.2563 12.7203 24.2563C12.9898 24.2563 13.2234 24.3281 13.4391 24.4719C13.8344 24.7414 14.068 25.1188 14.068 25.6039C14.0859 25.8195 14.032 26.0531 13.9062 26.2688ZM18.3086 23.8609L18.2906 23.8789C17.9852 23.6813 17.6438 23.6094 17.2844 23.6094H17.1406C16.7992 23.6094 16.4578 23.6633 16.1703 23.843C15.5234 24.2203 15.1641 24.7773 15.1641 25.5141V25.6578C15.1641 25.8375 15.2 25.9992 15.2359 26.1789C15.5234 27.1672 16.2961 27.7242 17.3383 27.6523C17.6258 27.6344 18.3984 27.5445 18.3984 27.1133V27.0414C18.3984 26.8797 18.2727 26.7359 18.1289 26.7L18.1109 26.6641H17.9852L17.9492 26.718C17.7875 26.7898 17.518 26.9336 17.3383 26.9336C17.1227 26.9336 16.8891 26.9336 16.6914 26.8258C16.1703 26.5742 15.8648 26.1609 15.8648 25.5859C15.8648 25.3883 15.9008 25.2086 15.9906 25.0289C16.2422 24.5258 16.6555 24.2023 17.2305 24.2203C17.3383 24.2203 17.5359 24.2742 17.6438 24.3281C17.7336 24.3641 17.9672 24.5078 18.075 24.5078H18.1109L18.1289 24.4719C18.2906 24.4359 18.4164 24.3102 18.4164 24.1484V24.0766C18.4164 24.0047 18.3805 23.9508 18.3445 23.8969L18.3086 23.8609ZM7.04219 18.2547L7.06016 18.2906C8.47969 20.6984 10.9594 21.7047 13.6727 21.7047C18.9195 21.7047 23.25 19.3508 25.2266 14.4094C26.5562 14.4813 27.9219 14.0859 28.5688 12.8102L28.7305 12.4867L28.407 12.307C27.6344 11.8578 26.6102 11.8039 25.7477 12.0555C25.6398 11.1211 25.0289 10.3125 24.3102 9.7375L24.0227 9.50391L23.7891 9.79141C23.3039 10.3484 23.1602 11.2828 23.232 12.0016C23.2859 12.5227 23.4477 13.0617 23.7711 13.493C23.5195 13.6367 23.25 13.8344 22.9984 13.9242C22.4953 14.1039 21.9383 14.2836 21.3992 14.2836H20.1953V11.75H17.8594V7.25781H15.1641V9.41406H10.6719V11.75H8.33594V14.2656H6.32344L6.2875 14.5352C6.19766 15.6852 6.34141 16.7992 6.82656 17.8594L7.04219 18.2547ZM17.8594 12.2891H19.8359V14.2656H17.8594V12.2891ZM15.5234 7.61719H17.5V9.59375H15.5234V7.61719ZM15.5234 9.95313H17.5V11.9297H15.5234V9.95313ZM15.5234 12.2891H17.5V14.2656H15.5234V12.2891ZM13.1875 9.95313H15.1641V11.9297H13.1875V9.95313ZM13.1875 12.2891H15.1641V14.2656H13.1875V12.2891ZM13.3852 17.8953C13.3852 18.2008 13.1336 18.4523 12.8281 18.4523C12.5227 18.4523 12.2711 18.2008 12.2711 17.8953C12.2711 17.5898 12.5227 17.3383 12.8281 17.3383C13.1336 17.3563 13.3852 17.5898 13.3852 17.8953ZM11.0312 9.95313H12.8281V11.9297H11.0312V9.95313ZM11.0312 12.2891H12.8281V14.2656H11.0312V12.2891ZM8.69531 12.2891H10.6719V14.2656H8.69531V12.2891ZM9.12656 19.1172C9.41406 19.1172 9.70156 19.1172 9.97109 19.0992C10.6719 19.0633 11.2828 18.9734 11.7859 18.8297C12.1992 19.782 12.9539 20.6625 14.3016 21.3094L13.6727 21.3273C10.8336 21.3094 9.30625 20.357 8.04844 19.0992C8.42578 19.1172 8.78516 19.1172 9.12656 19.1172ZM12.8281 18.2906C13.0437 18.2906 13.2234 18.1109 13.2234 17.8953C13.2234 17.8414 13.2055 17.7875 13.1875 17.7516C13.1516 17.8055 13.1156 17.8414 13.0438 17.8414C12.9539 17.8414 12.882 17.7695 12.882 17.6797C12.882 17.6258 12.918 17.5719 12.9539 17.5359C12.9359 17.518 12.882 17.5 12.8281 17.5C12.6125 17.5 12.4328 17.6797 12.4328 17.8953C12.4508 18.1109 12.6125 18.2906 12.8281 18.2906Z" fill="#019BC6"/>
</svg>
