<svg width="51" height="51" viewBox="0 0 51 51" fill="none" xmlns="http://www.w3.org/2000/svg">
<g filter="url(#filter0_d_1964_10661)">
<rect x="8" y="4" width="35" height="35" rx="17.5" fill="white"/>
<path d="M29.4531 31.275C29.4531 31.2211 29.4711 31.1672 29.4531 31.1133C29.4172 31.0594 29.3992 31.0234 29.3633 30.9875C29.2734 30.8797 29.1836 30.7898 29.0758 30.682L28.0156 29.6039L28.8422 28.7594L29.2914 28.2742C29.3633 28.2023 29.4531 28.0586 29.4531 27.9508V27.8789C29.4531 27.7172 29.3812 27.6273 29.2195 27.5914L29.2555 27.6094H29.1297C29.0219 27.6094 28.7164 27.8969 28.6445 27.9867C28.375 28.2563 28.1953 28.5078 27.8359 28.7773V26.6391C27.8359 26.4414 27.7281 26.3516 27.5305 26.3516H27.4766C27.2789 26.3516 27.1172 26.4414 27.1172 26.6391V31.293C27.1172 31.4906 27.2789 31.5625 27.4766 31.5625H27.5305C27.7281 31.5625 27.8359 31.4727 27.8359 31.293V30.4664L28.375 30.9875C28.5367 31.1492 28.6984 31.257 28.8422 31.4008C28.9141 31.4727 29.0578 31.5625 29.1656 31.5625H29.2195C29.3992 31.5625 29.4531 31.4727 29.4891 31.3289L29.4531 31.3469V31.275ZM36.4789 27.6094H36.407C36.0117 27.6094 35.6523 27.7172 35.3289 27.9508C34.7898 28.3461 34.4844 28.8672 34.4844 29.55V31.3109C34.4844 31.5086 34.5562 31.5625 34.7539 31.5625H34.8078C35.0055 31.5625 35.2031 31.4906 35.2031 31.3109V29.6578C35.2031 29.2984 35.275 28.957 35.5445 28.6875C35.7602 28.4719 36.0297 28.2922 36.3352 28.2922C36.5688 28.2922 36.8383 28.2383 36.8383 27.9508C36.8383 27.7352 36.6766 27.6094 36.4789 27.6094ZM33.7117 28.5078C33.5141 28.1844 33.2445 27.9328 32.9031 27.7711C32.2742 27.4656 31.6094 27.4297 30.9984 27.7891L30.9086 27.843C30.657 27.9867 30.4414 28.1664 30.2797 28.4C29.8125 29.0828 29.7586 29.8555 30.1719 30.5742L30.2078 30.6461C30.3875 30.9516 30.6211 31.2031 30.9266 31.3648C31.5734 31.7242 32.2742 31.7602 32.9211 31.4008L32.975 31.3648C33.1547 31.257 33.1906 31.0773 33.1008 30.8977C33.0648 30.8258 32.993 30.7719 32.9211 30.7359H32.8852C32.7594 30.718 32.418 30.8617 32.2922 30.9156C32.0406 30.9516 31.7531 30.9695 31.5016 30.8797L32.8672 29.6938C33.0648 29.5141 33.2805 29.3164 33.4961 29.1547C33.6758 29.0109 33.8555 28.8133 33.7117 28.5617V28.5078ZM32.4719 29.1547L30.9445 30.4664C30.8906 30.4125 30.8547 30.3406 30.8188 30.2867C30.7109 30.107 30.6391 29.8914 30.6391 29.6758C30.6211 29.1367 30.8188 28.6875 31.3039 28.418C31.6633 28.2023 32.0586 28.1664 32.4539 28.3102C32.6516 28.382 32.8852 28.5078 33.0109 28.6875C32.8313 28.8492 32.6336 28.993 32.4719 29.1547ZM17.9531 26.3516H17.8992C17.7016 26.3516 17.5938 26.4234 17.5938 26.6211V28.0766C17.2344 27.7531 16.8031 27.6273 16.3 27.6273H16.1562C15.8148 27.6273 15.4914 27.6813 15.1859 27.8609C14.5391 28.2383 14.1797 28.7953 14.1797 29.55V29.6938C14.1797 30.0352 14.2695 30.3227 14.4492 30.6281C14.8266 31.275 15.4195 31.5984 16.1562 31.5984H16.3C16.6414 31.5984 17.0008 31.5445 17.2883 31.3828C17.9352 31.0055 18.3125 30.4484 18.3125 29.7117V26.657C18.3125 26.4234 18.1508 26.3516 17.9531 26.3516ZM17.3961 30.2688C17.1266 30.718 16.7313 30.9695 16.2102 30.9695C15.9945 30.9695 15.7789 30.9156 15.5992 30.8078C15.132 30.5563 14.8625 30.143 14.8625 29.6039C14.8625 29.4063 14.8984 29.2266 14.9883 29.0469C15.2398 28.5258 15.6531 28.2383 16.2281 28.2383C16.5156 28.2383 16.7672 28.3281 16.9828 28.4898C17.3602 28.7594 17.5758 29.1188 17.5758 29.5859C17.5938 29.8375 17.5219 30.0531 17.3961 30.2688ZM20.7562 27.6094H20.6484C20.307 27.6094 19.9656 27.6633 19.6781 27.843C19.0312 28.2203 18.6719 28.7773 18.6719 29.532V29.6758C18.6719 30.0172 18.7617 30.3047 18.9414 30.6102C19.3187 31.257 19.9117 31.5805 20.6664 31.5805H20.8102C21.1516 31.5805 21.493 31.5266 21.7984 31.3648C22.4453 30.9875 22.8227 30.4305 22.8227 29.6938V29.55C22.8227 29.2266 22.7148 28.957 22.5711 28.6875C22.1758 27.9688 21.5469 27.6094 20.7562 27.6094ZM21.9062 30.2688C21.6367 30.7 21.2594 30.9695 20.7383 30.9695C20.5047 30.9695 20.2711 30.9156 20.0555 30.7898C19.6063 30.5203 19.3547 30.143 19.3547 29.6219C19.3547 29.4242 19.3906 29.2445 19.4805 29.0648C19.732 28.5438 20.1453 28.2563 20.7203 28.2563C20.9898 28.2563 21.2234 28.3281 21.4391 28.4719C21.8344 28.7414 22.068 29.1188 22.068 29.6039C22.0859 29.8195 22.032 30.0531 21.9062 30.2688ZM26.3086 27.8609L26.2906 27.8789C25.9852 27.6813 25.6438 27.6094 25.2844 27.6094H25.1406C24.7992 27.6094 24.4578 27.6633 24.1703 27.843C23.5234 28.2203 23.1641 28.7773 23.1641 29.5141V29.6578C23.1641 29.8375 23.2 29.9992 23.2359 30.1789C23.5234 31.1672 24.2961 31.7242 25.3383 31.6523C25.6258 31.6344 26.3984 31.5445 26.3984 31.1133V31.0414C26.3984 30.8797 26.2727 30.7359 26.1289 30.7L26.1109 30.6641H25.9852L25.9492 30.718C25.7875 30.7898 25.518 30.9336 25.3383 30.9336C25.1227 30.9336 24.8891 30.9336 24.6914 30.8258C24.1703 30.5742 23.8648 30.1609 23.8648 29.5859C23.8648 29.3883 23.9008 29.2086 23.9906 29.0289C24.2422 28.5258 24.6555 28.2023 25.2305 28.2203C25.3383 28.2203 25.5359 28.2742 25.6438 28.3281C25.7336 28.3641 25.9672 28.5078 26.075 28.5078H26.1109L26.1289 28.4719C26.2906 28.4359 26.4164 28.3102 26.4164 28.1484V28.0766C26.4164 28.0047 26.3805 27.9508 26.3445 27.8969L26.3086 27.8609ZM15.0422 22.2547L15.0602 22.2906C16.4797 24.6984 18.9594 25.7047 21.6727 25.7047C26.9195 25.7047 31.25 23.3508 33.2266 18.4094C34.5562 18.4813 35.9219 18.0859 36.5688 16.8102L36.7305 16.4867L36.407 16.307C35.6344 15.8578 34.6102 15.8039 33.7477 16.0555C33.6398 15.1211 33.0289 14.3125 32.3102 13.7375L32.0227 13.5039L31.7891 13.7914C31.3039 14.3484 31.1602 15.2828 31.232 16.0016C31.2859 16.5227 31.4477 17.0617 31.7711 17.493C31.5195 17.6367 31.25 17.8344 30.9984 17.9242C30.4953 18.1039 29.9383 18.2836 29.3992 18.2836H28.1953V15.75H25.8594V11.2578H23.1641V13.4141H18.6719V15.75H16.3359V18.2656H14.3234L14.2875 18.5352C14.1977 19.6852 14.3414 20.7992 14.8266 21.8594L15.0422 22.2547ZM25.8594 16.2891H27.8359V18.2656H25.8594V16.2891ZM23.5234 11.6172H25.5V13.5938H23.5234V11.6172ZM23.5234 13.9531H25.5V15.9297H23.5234V13.9531ZM23.5234 16.2891H25.5V18.2656H23.5234V16.2891ZM21.1875 13.9531H23.1641V15.9297H21.1875V13.9531ZM21.1875 16.2891H23.1641V18.2656H21.1875V16.2891ZM21.3852 21.8953C21.3852 22.2008 21.1336 22.4523 20.8281 22.4523C20.5227 22.4523 20.2711 22.2008 20.2711 21.8953C20.2711 21.5898 20.5227 21.3383 20.8281 21.3383C21.1336 21.3563 21.3852 21.5898 21.3852 21.8953ZM19.0312 13.9531H20.8281V15.9297H19.0312V13.9531ZM19.0312 16.2891H20.8281V18.2656H19.0312V16.2891ZM16.6953 16.2891H18.6719V18.2656H16.6953V16.2891ZM17.1266 23.1172C17.4141 23.1172 17.7016 23.1172 17.9711 23.0992C18.6719 23.0633 19.2828 22.9734 19.7859 22.8297C20.1992 23.782 20.9539 24.6625 22.3016 25.3094L21.6727 25.3273C18.8336 25.3094 17.3062 24.357 16.0484 23.0992C16.4258 23.1172 16.7852 23.1172 17.1266 23.1172ZM20.8281 22.2906C21.0437 22.2906 21.2234 22.1109 21.2234 21.8953C21.2234 21.8414 21.2055 21.7875 21.1875 21.7516C21.1516 21.8055 21.1156 21.8414 21.0438 21.8414C20.9539 21.8414 20.882 21.7695 20.882 21.6797C20.882 21.6258 20.918 21.5719 20.9539 21.5359C20.9359 21.518 20.882 21.5 20.8281 21.5C20.6125 21.5 20.4328 21.6797 20.4328 21.8953C20.4508 22.1109 20.6125 22.2906 20.8281 22.2906Z" fill="#019BC6"/>
</g>
<defs>
<filter id="filter0_d_1964_10661" x="0" y="0" width="51" height="51" filterUnits="userSpaceOnUse" color-interpolation-filters="sRGB">
<feFlood flood-opacity="0" result="BackgroundImageFix"/>
<feColorMatrix in="SourceAlpha" type="matrix" values="0 0 0 0 0 0 0 0 0 0 0 0 0 0 0 0 0 0 127 0" result="hardAlpha"/>
<feOffset dy="4"/>
<feGaussianBlur stdDeviation="4"/>
<feComposite in2="hardAlpha" operator="out"/>
<feColorMatrix type="matrix" values="0 0 0 0 0 0 0 0 0 0 0 0 0 0 0 0 0 0 0.15 0"/>
<feBlend mode="normal" in2="BackgroundImageFix" result="effect1_dropShadow_1964_10661"/>
<feBlend mode="normal" in="SourceGraphic" in2="effect1_dropShadow_1964_10661" result="shape"/>
</filter>
</defs>
</svg>
