<svg width="35" height="35" viewBox="0 0 35 35" fill="none" xmlns="http://www.w3.org/2000/svg">
<rect width="35" height="35" rx="17.5" fill="white"/>
<path d="M20.3333 21.3346C22.1743 21.3346 23.6667 19.8423 23.6667 18.0013C23.6667 16.1604 22.1743 14.668 20.3333 14.668C18.4924 14.668 17 16.1604 17 18.0013C17 19.8423 18.4924 21.3346 20.3333 21.3346Z" fill="#19BCFE"/>
<path fill-rule="evenodd" clip-rule="evenodd" d="M13.6668 27.9987C15.5078 27.9987 17.0002 26.5063 17.0002 24.6654C17.0002 24.1628 17.0002 23.0517 17.0002 21.332C15.5027 21.332 14.3916 21.332 13.6668 21.332C11.8259 21.332 10.3335 22.8244 10.3335 24.6654C10.3335 26.5063 11.8259 27.9987 13.6668 27.9987Z" fill="#09CF83"/>
<path fill-rule="evenodd" clip-rule="evenodd" d="M13.6668 21.3346C14.2805 21.3346 15.3916 21.3346 17.0002 21.3346V14.668C15.3916 14.668 14.2805 14.668 13.6668 14.668C11.8259 14.668 10.3335 16.1604 10.3335 18.0013C10.3335 19.8423 11.8259 21.3346 13.6668 21.3346Z" fill="#A259FF"/>
<path fill-rule="evenodd" clip-rule="evenodd" d="M13.6668 14.6667C14.2805 14.6667 15.3916 14.6667 17.0002 14.6667V8C15.3916 8 14.2805 8 13.6668 8C11.8259 8 10.3335 9.49238 10.3335 11.3333C10.3335 13.1743 11.8259 14.6667 13.6668 14.6667Z" fill="#F24E1E"/>
<path fill-rule="evenodd" clip-rule="evenodd" d="M20.3333 14.6667H17V8H20.3333C22.1743 8 23.6667 9.49238 23.6667 11.3333C23.6667 13.1743 22.1743 14.6667 20.3333 14.6667Z" fill="#FF7262"/>
</svg>
