<svg width="51" height="51" viewBox="0 0 51 51" fill="none" xmlns="http://www.w3.org/2000/svg">
<g filter="url(#filter0_d_1964_10664)">
<rect x="8" y="4" width="35" height="35" rx="17.5" fill="white"/>
<path d="M37.529 20.3865L26.6159 9.47145C25.9878 8.84285 24.9685 8.84285 24.3395 9.47145L22.0738 11.7383L24.9483 14.6135C25.6166 14.3879 26.3824 14.5392 26.9148 15.0718C27.45 15.6077 27.6003 16.3802 27.3689 17.0508L30.1393 19.8223C30.8095 19.5911 31.5831 19.7405 32.1181 20.2768C32.8665 21.0248 32.8665 22.2374 32.1181 22.9858C31.3696 23.7344 30.1577 23.7344 29.4088 22.9858C28.8461 22.4226 28.7069 21.5958 28.9921 20.9022L26.4086 18.3179L26.4082 25.119C26.5907 25.2091 26.7628 25.3295 26.9148 25.481C27.6631 26.229 27.6631 27.4412 26.9148 28.1908C26.1666 28.9389 24.9539 28.9389 24.2064 28.1908C23.4584 27.4414 23.397 26.2292 24.1448 25.481C24.3298 25.2962 24.5121 25.1566 24.7101 25.0631V18.1991C24.5121 18.1056 24.33 17.967 24.1446 17.781C23.5782 17.2146 23.4722 16.3828 23.7629 15.6865L20.9448 12.8519L13.4695 20.336C12.8409 20.9652 12.8448 21.9847 13.4735 22.6135L24.3884 33.5286C25.0166 34.1571 26.0367 34.1571 26.666 33.5286L37.5282 22.6642C38.1568 22.0352 38.1574 21.0151 37.529 20.3865Z" fill="#F34F29"/>
</g>
<defs>
<filter id="filter0_d_1964_10664" x="0" y="0" width="51" height="51" filterUnits="userSpaceOnUse" color-interpolation-filters="sRGB">
<feFlood flood-opacity="0" result="BackgroundImageFix"/>
<feColorMatrix in="SourceAlpha" type="matrix" values="0 0 0 0 0 0 0 0 0 0 0 0 0 0 0 0 0 0 127 0" result="hardAlpha"/>
<feOffset dy="4"/>
<feGaussianBlur stdDeviation="4"/>
<feComposite in2="hardAlpha" operator="out"/>
<feColorMatrix type="matrix" values="0 0 0 0 0 0 0 0 0 0 0 0 0 0 0 0 0 0 0.15 0"/>
<feBlend mode="normal" in2="BackgroundImageFix" result="effect1_dropShadow_1964_10664"/>
<feBlend mode="normal" in="SourceGraphic" in2="effect1_dropShadow_1964_10664" result="shape"/>
</filter>
</defs>
</svg>
