<svg width="35" height="35" viewBox="0 0 35 35" fill="none" xmlns="http://www.w3.org/2000/svg">
<rect width="35" height="35" rx="17.5" fill="white"/>
<path d="M29.529 16.3865L18.6159 5.47145C17.9878 4.84285 16.9685 4.84285 16.3395 5.47145L14.0738 7.73827L16.9483 10.6135C17.6166 10.3879 18.3824 10.5392 18.9148 11.0718C19.45 11.6077 19.6003 12.3802 19.3689 13.0508L22.1393 15.8223C22.8095 15.5911 23.5831 15.7405 24.1181 16.2768C24.8665 17.0248 24.8665 18.2374 24.1181 18.9858C23.3696 19.7344 22.1577 19.7344 21.4088 18.9858C20.8461 18.4226 20.7069 17.5958 20.9921 16.9022L18.4086 14.3179L18.4082 21.119C18.5907 21.2091 18.7628 21.3295 18.9148 21.481C19.6631 22.229 19.6631 23.4412 18.9148 24.1908C18.1666 24.9389 16.9539 24.9389 16.2064 24.1908C15.4584 23.4414 15.397 22.2292 16.1448 21.481C16.3298 21.2962 16.5121 21.1566 16.7101 21.0631V14.1991C16.5121 14.1056 16.33 13.967 16.1446 13.781C15.5782 13.2146 15.4722 12.3828 15.7629 11.6865L12.9448 8.85187L5.46951 16.336C4.84086 16.9652 4.84482 17.9847 5.47347 18.6135L16.3884 29.5286C17.0166 30.1571 18.0367 30.1571 18.666 29.5286L29.5282 18.6642C30.1568 18.0352 30.1574 17.0151 29.529 16.3865Z" fill="#F34F29"/>
</svg>
