<svg width="51" height="51" viewBox="0 0 51 51" fill="none" xmlns="http://www.w3.org/2000/svg">
<g filter="url(#filter0_d_1964_10685)">
<rect x="8" y="4" width="35" height="35" rx="17.5" fill="white"/>
<path d="M34.4605 21.7845C34.4605 20.5541 33.4631 19.5566 32.2326 19.5566C32.1535 19.5566 32.0754 19.5609 31.9985 19.5689L35.0584 10.5439H22.0547L25.1104 19.5611C25.0655 19.5584 25.0205 19.5566 24.975 19.5566C23.7446 19.5566 22.7471 20.5541 22.7471 21.7845C22.7471 22.7791 23.3989 23.621 24.2985 23.9075C23.8234 24.7305 23.2255 25.4718 22.5467 26.1122C21.6237 26.983 20.5674 27.6432 19.4248 28.0501C18.0646 27.3513 17.4222 25.7972 18.0019 24.4346C18.0673 24.2807 18.1341 24.1248 18.198 23.9695C19.1835 23.7395 19.9178 22.8561 19.9178 21.8005C19.9178 20.5701 18.9203 19.5726 17.6899 19.5726C16.4595 19.5726 15.462 20.5701 15.462 21.8005C15.462 22.555 15.8374 23.2214 16.4113 23.6245C15.8598 24.8799 15.0493 26.1939 14.7967 27.7168C14.4941 29.5418 14.7958 31.4791 16.3743 32.5732C20.0504 35.121 24.0409 30.9936 28.2482 29.9561C29.7731 29.5801 31.4468 29.6407 32.7902 28.8626C33.7991 28.2783 34.4642 27.31 34.6529 26.2228C34.8394 25.1488 34.5675 24.0795 33.9424 23.2125C34.2657 22.8258 34.4605 22.328 34.4605 21.7845Z" fill="#99425B"/>
<path d="M34.1168 26.1298C33.9529 27.0737 33.37 27.8981 32.5174 28.3919C31.7228 28.8522 30.7704 28.9896 29.7622 29.1349C29.2221 29.2128 28.6635 29.2934 28.1179 29.4279C26.6752 29.7837 25.2778 30.4778 23.9264 31.149C21.222 32.4924 18.8864 33.6523 16.6841 32.1261C15.071 31.008 15.1455 28.9394 15.3334 27.8059C15.5076 26.7557 15.9785 25.7885 16.4338 24.8531C16.5125 24.6914 16.5896 24.5327 16.6647 24.3753C16.8904 24.4655 17.1304 24.527 17.3807 24.555C16.9171 26.0848 17.6461 27.7482 19.1761 28.5342L19.3855 28.6418L19.6073 28.5628C20.8169 28.132 21.9314 27.4408 22.92 26.5081C23.5591 25.9052 24.1085 25.2382 24.5601 24.5255C24.6954 24.5459 24.8339 24.5566 24.9749 24.5566C26.3792 24.5566 27.542 23.5068 27.722 22.1509C28.2968 22.1299 28.9073 22.1297 29.4855 22.1507C29.6653 23.5067 30.8282 24.5566 32.2325 24.5566C32.8197 24.5566 33.3644 24.3726 33.813 24.06C34.1245 24.6977 34.2408 25.4151 34.1168 26.1298ZM17.6898 20.1169C18.6183 20.1169 19.3735 20.8722 19.3735 21.8006C19.3735 22.1341 19.2757 22.4451 19.1077 22.707C18.8277 23.1435 18.3521 23.4427 17.8055 23.48C17.7672 23.4826 17.7287 23.4844 17.6898 23.4844C17.4829 23.4844 17.2847 23.4466 17.1014 23.3781C16.7307 23.2394 16.4218 22.9734 16.2275 22.6338C16.0869 22.3879 16.006 22.1036 16.006 21.8006C16.006 20.8722 16.7613 20.1169 17.6898 20.1169ZM23.2911 21.7846C23.2911 20.9411 23.9147 20.2407 24.725 20.1195C24.8065 20.1073 24.89 20.1009 24.9749 20.1009C25.5147 20.1009 25.9952 20.3566 26.3035 20.7528C26.3801 20.8513 26.4465 20.9581 26.5 21.0721C26.6016 21.2887 26.6587 21.53 26.6587 21.7846C26.6587 21.9193 26.6423 22.0501 26.6124 22.1756C26.4483 22.8626 25.8625 23.3876 25.1448 23.4599C25.0889 23.4655 25.0322 23.4684 24.9749 23.4684C24.6387 23.4684 24.3255 23.369 24.0624 23.1986C23.5988 22.8983 23.2911 22.3769 23.2911 21.7846ZM30.3186 19.7825C29.9579 20.1276 29.6896 20.5685 29.556 21.0644C28.9325 21.041 28.2714 21.041 27.6515 21.0644C27.5091 20.5359 27.2137 20.0696 26.8165 19.7155L28.5587 16.1925L30.3186 19.7825ZM22.8135 11.0882H34.2993L31.5865 19.0892C31.4689 19.1175 31.3542 19.153 31.2429 19.1957L28.563 13.7289L25.8756 19.1631C25.7594 19.1231 25.6397 19.0909 25.5172 19.0665L22.8135 11.0882ZM33.9163 21.7846C33.9163 21.9535 33.8911 22.1164 33.8446 22.2703C33.7341 22.6364 33.5021 22.9501 33.1957 23.1646C32.9225 23.3558 32.5905 23.4684 32.2325 23.4684C31.4551 23.4684 30.7993 22.9386 30.6065 22.2211C30.5691 22.0818 30.5488 21.9356 30.5488 21.7846C30.5488 21.5545 30.5953 21.335 30.6793 21.1351C30.7225 21.032 30.7765 20.9346 30.8385 20.8431C31.1415 20.3959 31.6528 20.1009 32.2325 20.1009C32.2857 20.1009 32.3382 20.1036 32.3901 20.1085C33.2449 20.1881 33.9163 20.9093 33.9163 21.7846ZM35.0045 21.7846C35.0045 20.4313 34.0295 19.3022 32.7452 19.0609L35.8173 10H21.2957L24.3725 19.0793C23.1328 19.3552 22.2029 20.463 22.2029 21.7846C22.2029 22.777 22.7274 23.6487 23.5133 24.1385C23.1353 24.7018 22.6869 25.2318 22.1732 25.7165C21.3584 26.4852 20.4507 27.0681 19.4721 27.4517C18.4865 26.8325 18.0698 25.6649 18.5025 24.6477L18.5364 24.568C18.5576 24.5182 18.5789 24.4683 18.6 24.4184C19.6827 24.0408 20.4618 23.0103 20.4618 21.8006C20.4618 20.2721 19.2183 19.0286 17.6898 19.0286C16.1613 19.0286 14.9178 20.2721 14.9178 21.8006C14.9178 22.5721 15.2349 23.2708 15.7453 23.7738C15.6528 23.971 15.5554 24.1715 15.4554 24.3768C14.9888 25.3352 14.4599 26.4215 14.2599 27.6278C13.8626 30.0236 14.5034 31.9387 16.0642 33.0205C17.0114 33.6769 17.9732 33.935 18.9411 33.935C20.7637 33.935 22.6073 33.0193 24.4105 32.1237C25.7091 31.4787 27.052 30.8116 28.3785 30.4845C28.872 30.3628 29.3798 30.2896 29.9175 30.212C30.9837 30.0582 32.0863 29.8992 33.0629 29.3336C34.1949 28.6779 34.9698 27.578 35.1889 26.316C35.377 25.2326 35.1507 24.1475 34.5986 23.2273C34.8559 22.8068 35.0045 22.3128 35.0045 21.7846Z" fill="white"/>
</g>
<defs>
<filter id="filter0_d_1964_10685" x="0" y="0" width="51" height="51" filterUnits="userSpaceOnUse" color-interpolation-filters="sRGB">
<feFlood flood-opacity="0" result="BackgroundImageFix"/>
<feColorMatrix in="SourceAlpha" type="matrix" values="0 0 0 0 0 0 0 0 0 0 0 0 0 0 0 0 0 0 127 0" result="hardAlpha"/>
<feOffset dy="4"/>
<feGaussianBlur stdDeviation="4"/>
<feComposite in2="hardAlpha" operator="out"/>
<feColorMatrix type="matrix" values="0 0 0 0 0 0 0 0 0 0 0 0 0 0 0 0 0 0 0.15 0"/>
<feBlend mode="normal" in2="BackgroundImageFix" result="effect1_dropShadow_1964_10685"/>
<feBlend mode="normal" in="SourceGraphic" in2="effect1_dropShadow_1964_10685" result="shape"/>
</filter>
</defs>
</svg>
