<svg width="35" height="35" viewBox="0 0 35 35" fill="none" xmlns="http://www.w3.org/2000/svg">
<rect width="35" height="35" rx="17.5" fill="white"/>
<path d="M26.4605 17.7835C26.4605 16.5531 25.4631 15.5557 24.2326 15.5557C24.1535 15.5557 24.0754 15.5599 23.9985 15.568L27.0584 6.54297H14.0547L17.1104 15.5601C17.0655 15.5574 17.0205 15.5557 16.975 15.5557C15.7446 15.5557 14.7471 16.5531 14.7471 17.7835C14.7471 18.7781 15.3989 19.62 16.2985 19.9065C15.8234 20.7296 15.2255 21.4708 14.5467 22.1112C13.6237 22.982 12.5674 23.6422 11.4248 24.0491C10.0646 23.3503 9.42222 21.7962 10.0019 20.4336C10.0673 20.2797 10.1341 20.1238 10.198 19.9685C11.1835 19.7385 11.9178 18.8551 11.9178 17.7995C11.9178 16.5691 10.9203 15.5717 9.68987 15.5717C8.45946 15.5717 7.46198 16.5691 7.46198 17.7995C7.46198 18.554 7.83743 19.2204 8.41125 19.6235C7.85984 20.879 7.04927 22.1929 6.79675 23.7158C6.49411 25.5408 6.79577 27.4781 8.37425 28.5722C12.0504 31.1201 16.0409 26.9927 20.2482 25.9551C21.7731 25.5791 23.4468 25.6397 24.7902 24.8616C25.7991 24.2773 26.4642 23.309 26.6529 22.2218C26.8394 21.1479 26.5675 20.0786 25.9424 19.2115C26.2657 18.8248 26.4605 18.327 26.4605 17.7835Z" fill="#99425B"/>
<path d="M26.1168 22.1298C25.9529 23.0737 25.37 23.8981 24.5174 24.3919C23.7228 24.8522 22.7704 24.9896 21.7622 25.1349C21.2221 25.2128 20.6635 25.2934 20.1179 25.4279C18.6752 25.7837 17.2778 26.4778 15.9264 27.149C13.222 28.4924 10.8864 29.6523 8.68414 28.1261C7.071 27.008 7.14549 24.9394 7.33342 23.8059C7.5076 22.7557 7.97847 21.7885 8.43384 20.8531C8.51252 20.6914 8.58963 20.5327 8.66466 20.3753C8.89036 20.4655 9.13042 20.527 9.38066 20.555C8.91713 22.0848 9.64608 23.7482 11.1761 24.5342L11.3855 24.6418L11.6073 24.5628C12.8169 24.132 13.9314 23.4408 14.92 22.5081C15.5591 21.9052 16.1085 21.2382 16.5601 20.5255C16.6954 20.5459 16.8339 20.5566 16.9749 20.5566C18.3792 20.5566 19.542 19.5068 19.722 18.1509C20.2968 18.1299 20.9073 18.1297 21.4855 18.1507C21.6653 19.5067 22.8282 20.5566 24.2325 20.5566C24.8197 20.5566 25.3644 20.3726 25.813 20.06C26.1245 20.6977 26.2408 21.4151 26.1168 22.1298ZM9.68977 16.1169C10.6183 16.1169 11.3735 16.8722 11.3735 17.8006C11.3735 18.1341 11.2757 18.4451 11.1077 18.707C10.8277 19.1435 10.3521 19.4427 9.80545 19.48C9.7672 19.4826 9.72868 19.4844 9.68977 19.4844C9.4829 19.4844 9.28468 19.4466 9.10142 19.3781C8.73071 19.2394 8.42182 18.9734 8.22752 18.6338C8.08686 18.3879 8.00601 18.1036 8.00601 17.8006C8.00601 16.8722 8.76135 16.1169 9.68977 16.1169ZM15.2911 17.7846C15.2911 16.9411 15.9147 16.2407 16.725 16.1195C16.8065 16.1073 16.89 16.1009 16.9749 16.1009C17.5147 16.1009 17.9952 16.3566 18.3035 16.7528C18.3801 16.8513 18.4465 16.9581 18.5 17.0721C18.6016 17.2887 18.6587 17.53 18.6587 17.7846C18.6587 17.9193 18.6423 18.0501 18.6124 18.1756C18.4483 18.8626 17.8625 19.3876 17.1448 19.4599C17.0889 19.4655 17.0322 19.4684 16.9749 19.4684C16.6387 19.4684 16.3255 19.369 16.0624 19.1986C15.5988 18.8983 15.2911 18.3769 15.2911 17.7846ZM22.3186 15.7825C21.9579 16.1276 21.6896 16.5685 21.556 17.0644C20.9325 17.041 20.2714 17.041 19.6515 17.0644C19.5091 16.5359 19.2137 16.0696 18.8165 15.7155L20.5587 12.1925L22.3186 15.7825ZM14.8135 7.08823H26.2993L23.5865 15.0892C23.4689 15.1175 23.3542 15.153 23.2429 15.1957L20.563 9.72888L17.8756 15.1631C17.7594 15.1231 17.6397 15.0909 17.5172 15.0665L14.8135 7.08823ZM25.9163 17.7846C25.9163 17.9535 25.8911 18.1164 25.8446 18.2703C25.7341 18.6364 25.5021 18.9501 25.1957 19.1646C24.9225 19.3558 24.5905 19.4684 24.2325 19.4684C23.4551 19.4684 22.7993 18.9386 22.6065 18.2211C22.5691 18.0818 22.5488 17.9356 22.5488 17.7846C22.5488 17.5545 22.5953 17.335 22.6793 17.1351C22.7225 17.032 22.7765 16.9346 22.8385 16.8431C23.1415 16.3959 23.6528 16.1009 24.2325 16.1009C24.2857 16.1009 24.3382 16.1036 24.3901 16.1085C25.2449 16.1881 25.9163 16.9093 25.9163 17.7846ZM27.0045 17.7846C27.0045 16.4313 26.0295 15.3022 24.7452 15.0609L27.8173 6H13.2957L16.3725 15.0793C15.1328 15.3552 14.2029 16.463 14.2029 17.7846C14.2029 18.777 14.7274 19.6487 15.5133 20.1385C15.1353 20.7018 14.6869 21.2318 14.1732 21.7165C13.3584 22.4852 12.4507 23.0681 11.4721 23.4517C10.4865 22.8325 10.0698 21.6649 10.5025 20.6477L10.5364 20.568C10.5576 20.5182 10.5789 20.4683 10.6 20.4184C11.6827 20.0408 12.4618 19.0103 12.4618 17.8006C12.4618 16.2721 11.2183 15.0286 9.68977 15.0286C8.1613 15.0286 6.91777 16.2721 6.91777 17.8006C6.91777 18.5721 7.23488 19.2708 7.74527 19.7738C7.65277 19.971 7.55537 20.1715 7.45541 20.3768C6.98878 21.3352 6.4599 22.4215 6.25988 23.6278C5.86262 26.0236 6.50343 27.9387 8.06423 29.0205C9.01137 29.6769 9.97315 29.935 10.9411 29.935C12.7637 29.935 14.6073 29.0193 16.4105 28.1237C17.7091 27.4787 19.052 26.8116 20.3785 26.4845C20.872 26.3628 21.3798 26.2896 21.9175 26.212C22.9837 26.0582 24.0863 25.8992 25.0629 25.3336C26.1949 24.6779 26.9698 23.578 27.1889 22.316C27.377 21.2326 27.1507 20.1475 26.5986 19.2273C26.8559 18.8068 27.0045 18.3128 27.0045 17.7846Z" fill="white"/>
</svg>
