<svg width="51" height="51" viewBox="0 0 51 51" fill="none" xmlns="http://www.w3.org/2000/svg">
<g filter="url(#filter0_d_1964_10657)">
<rect x="8" y="4" width="35" height="35" rx="17.5" fill="white"/>
<path d="M19.3592 36.6822C18.6039 36.6822 17.8907 36.351 17.4081 35.7505L10.0655 26.7445C9.58289 26.1441 9.39413 25.3782 9.58289 24.6327L12.2053 13.3908C12.3731 12.6454 12.8766 12.045 13.5691 11.7138L24.1846 6.7034C24.5204 6.53794 24.898 6.45508 25.2757 6.45508C25.6533 6.45508 26.0308 6.53781 26.3666 6.70353L36.9823 11.6931C37.6746 12.0243 38.1781 12.6247 38.3459 13.3701L40.9683 24.612C41.1362 25.3574 40.9683 26.1234 40.4859 26.7238L33.1429 35.7299C32.6604 36.3095 31.9471 36.6615 31.1918 36.6615L19.3595 36.6822H19.3592Z" fill="#326DE6"/>
<path d="M25.2545 6.97312C25.5483 6.97312 25.842 7.03517 26.1147 7.15939L36.7304 12.149C37.2759 12.4181 37.6954 12.915 37.8213 13.4948L40.4438 24.7367C40.5906 25.3371 40.4438 25.9583 40.0452 26.4344L32.7024 35.4405C32.3247 35.9166 31.7372 36.1857 31.1289 36.1857H19.3593C18.7508 36.1857 18.1635 35.9166 17.7858 35.4405L10.443 26.4344C10.0654 25.9583 9.91843 25.3371 10.0444 24.7367L12.6669 13.4948C12.8137 12.8943 13.2123 12.3974 13.7578 12.149L24.3736 7.13884C24.6463 7.03529 24.961 6.97324 25.2546 6.97324L25.2545 6.97312ZM25.2545 6C24.814 6 24.3735 6.10354 23.9538 6.28982L13.3382 11.3002C12.4989 11.6936 11.9116 12.4181 11.7017 13.3084L9.07931 24.5504C8.86959 25.4407 9.07931 26.3516 9.6668 27.0763L17.0096 36.0823C17.5761 36.7862 18.4362 37.1795 19.3383 37.1795H31.1078C32.0099 37.1795 32.8702 36.7862 33.4366 36.0823L40.7795 27.0762C41.3668 26.3723 41.5767 25.4407 41.3668 24.5503L38.7444 13.3084C38.5347 12.4181 37.9472 11.6936 37.1081 11.3002L26.5343 6.28969C26.1357 6.10354 25.6952 6 25.2545 6Z" fill="white"/>
<path d="M35.8911 23.8465C35.8702 23.8465 35.8702 23.8465 35.8911 23.8465H35.8702C35.8492 23.8465 35.8283 23.8465 35.8283 23.8259C35.7864 23.8259 35.7444 23.8052 35.7024 23.8052C35.5555 23.7845 35.4297 23.7638 35.3038 23.7638C35.2408 23.7638 35.1779 23.7638 35.0939 23.743H35.073C34.6325 23.7016 34.2758 23.6603 33.94 23.5567C33.7932 23.4946 33.7513 23.4118 33.7092 23.329C33.7092 23.3083 33.6883 23.3083 33.6883 23.2876L33.4156 23.2049C33.5444 22.2309 33.4947 21.2421 33.2687 20.2855C33.0396 19.321 32.6421 18.4032 32.0939 17.5734L32.3037 17.3871V17.3457C32.3037 17.2422 32.3247 17.1386 32.4085 17.0351C32.6603 16.8073 32.975 16.621 33.3527 16.3933C33.4156 16.3519 33.4784 16.3312 33.5414 16.2897C33.6673 16.2277 33.7722 16.1656 33.8981 16.0828C33.9191 16.0621 33.961 16.0414 34.003 16C34.024 15.9792 34.045 15.9792 34.045 15.9586C34.3386 15.7101 34.4017 15.2961 34.1918 15.0268C34.0869 14.8819 33.8981 14.7992 33.7092 14.7992C33.5416 14.7992 33.3946 14.8612 33.2478 14.9648L33.2058 15.0061C33.1639 15.0268 33.1428 15.0683 33.1009 15.089C32.996 15.1925 32.912 15.2753 32.8282 15.3788C32.7863 15.4202 32.7444 15.4823 32.6814 15.5237C32.3875 15.8343 32.1148 16.0828 31.8421 16.2691C31.7792 16.3104 31.7164 16.3312 31.6533 16.3312C31.6114 16.3312 31.5694 16.3312 31.5275 16.3104H31.4855L31.2337 16.4761C30.9609 16.1863 30.6673 15.9379 30.3736 15.6894C29.109 14.7139 27.587 14.1175 25.9888 13.971L25.9678 13.7018L25.9259 13.6605C25.8629 13.5983 25.7791 13.5362 25.758 13.3913C25.737 13.06 25.7791 12.6873 25.821 12.2733V12.2526C25.821 12.1904 25.842 12.1077 25.8629 12.0455C25.8839 11.9214 25.9048 11.7971 25.9259 11.6522V11.4659C25.9259 11.0932 25.6321 10.7827 25.2756 10.7827C25.1076 10.7827 24.9398 10.8654 24.814 10.9897C24.6882 11.1139 24.6252 11.2795 24.6252 11.4659V11.6315C24.6252 11.7764 24.6462 11.9006 24.6881 12.0248C24.709 12.087 24.709 12.1491 24.73 12.2319V12.2526C24.7719 12.6667 24.8349 13.0393 24.793 13.3706C24.772 13.5155 24.6881 13.5776 24.6252 13.6398L24.5833 13.6811L24.5622 13.9503C24.1845 13.9916 23.8069 14.033 23.4293 14.1159C21.8139 14.4679 20.3873 15.2754 19.2754 16.4346L19.0656 16.2897H19.0237C18.9817 16.2897 18.9397 16.3104 18.8978 16.3104C18.8348 16.3104 18.7719 16.2897 18.7089 16.2484C18.4362 16.0621 18.1634 15.7928 17.8698 15.4823C17.8278 15.441 17.7859 15.3788 17.7229 15.3374C17.639 15.2339 17.555 15.151 17.4501 15.0476C17.4291 15.0268 17.3872 15.0062 17.3453 14.9648C17.3243 14.9441 17.3034 14.9441 17.3034 14.9234C17.1734 14.8174 17.0103 14.7589 16.8417 14.7577C16.6529 14.7577 16.4641 14.8405 16.3592 14.9854C16.1493 15.2546 16.2123 15.6686 16.506 15.9171C16.527 15.9171 16.527 15.9379 16.5479 15.9379C16.5899 15.9586 16.6109 15.9999 16.6529 16.0206C16.7787 16.1033 16.8837 16.1655 17.0095 16.2277C17.0726 16.2484 17.1354 16.2897 17.1984 16.3312C17.576 16.5589 17.8907 16.7453 18.1425 16.973C18.2474 17.0765 18.2474 17.18 18.2474 17.2835V17.3249L18.4571 17.5113C18.4152 17.5734 18.3733 17.6149 18.3522 17.6769C17.3032 19.3125 16.9046 21.2379 17.1773 23.1427L16.9046 23.2254C16.9046 23.2462 16.8837 23.2462 16.8837 23.2668C16.8417 23.3496 16.7787 23.4325 16.6529 23.4946C16.3382 23.5981 15.9606 23.6396 15.5201 23.681H15.499C15.4361 23.681 15.3521 23.681 15.2893 23.7016C15.1634 23.7016 15.0375 23.7223 14.8906 23.743C14.8487 23.743 14.8068 23.7638 14.7648 23.7638C14.7438 23.7638 14.7228 23.7638 14.7018 23.7845C14.3241 23.8672 14.0933 24.2192 14.1563 24.5504C14.2193 24.8403 14.492 25.0267 14.8276 25.0267C14.8906 25.0267 14.9326 25.0267 14.9956 25.0059C15.0165 25.0059 15.0375 25.0059 15.0375 24.9853C15.0794 24.9853 15.1213 24.9646 15.1632 24.9646C15.3102 24.9232 15.4151 24.8818 15.541 24.8197C15.6039 24.799 15.6668 24.7575 15.7298 24.7369H15.7507C16.1493 24.5919 16.506 24.4677 16.8417 24.4263H16.8837C17.0095 24.4263 17.0935 24.4884 17.1564 24.5298C17.1773 24.5298 17.1773 24.5505 17.1983 24.5505L17.4921 24.5092C17.9956 26.0411 18.9606 27.4076 20.2404 28.4014C20.5341 28.629 20.8278 28.8154 21.1426 29.0018L21.0167 29.2708C21.0167 29.2916 21.0376 29.2916 21.0376 29.3122C21.0795 29.3951 21.1215 29.4986 21.0795 29.6435C20.9538 29.9541 20.7649 30.2646 20.5341 30.6166V30.6373C20.4922 30.6995 20.4503 30.7409 20.4084 30.8029C20.3244 30.9064 20.2614 31.01 20.1774 31.1342C20.1565 31.1549 20.1355 31.1963 20.1145 31.2378C20.1145 31.2584 20.0936 31.2791 20.0936 31.2791C19.9258 31.6311 20.0517 32.0245 20.3663 32.1694C20.4501 32.2107 20.5341 32.2316 20.6181 32.2316C20.8698 32.2316 21.1216 32.0658 21.2475 31.8381C21.2475 31.8174 21.2684 31.7967 21.2684 31.7967C21.2894 31.7553 21.3104 31.714 21.3313 31.6932C21.3943 31.5483 21.4153 31.4447 21.4572 31.3205L21.5202 31.1342C21.667 30.7202 21.772 30.3889 21.9607 30.099C22.0446 29.9748 22.1496 29.9541 22.2334 29.9126C22.2544 29.9126 22.2544 29.9126 22.2754 29.892L22.4223 29.6228C23.3454 29.9748 24.3525 30.1611 25.3594 30.1611C25.9678 30.1611 26.5973 30.099 27.1847 29.9541C27.5544 29.8726 27.9187 29.7688 28.2756 29.6435L28.4014 29.8713C28.4225 29.8713 28.4225 29.8713 28.4434 29.892C28.5484 29.9126 28.6322 29.9541 28.7162 30.0784C28.884 30.3682 29.0098 30.7202 29.1567 31.1135V31.1342L29.2197 31.3205C29.2616 31.4447 29.2826 31.5689 29.3454 31.6932C29.3665 31.7345 29.3875 31.7553 29.4084 31.7967C29.4084 31.8174 29.4295 31.8381 29.4295 31.8381C29.5553 32.0865 29.807 32.2316 30.0588 32.2316C30.1428 32.2316 30.2267 32.2107 30.3106 32.1694C30.4574 32.0866 30.5833 31.9623 30.6253 31.7967C30.6673 31.6311 30.6673 31.4447 30.5834 31.2791C30.5834 31.2584 30.5623 31.2584 30.5623 31.2378C30.5414 31.1964 30.5204 31.155 30.4995 31.1342C30.4364 31.01 30.3526 30.9064 30.2687 30.8029C30.2267 30.7409 30.1848 30.6995 30.1429 30.6374V30.6166C29.912 30.2646 29.7021 29.9541 29.5973 29.6435C29.5554 29.4986 29.5973 29.4159 29.6183 29.3123C29.6183 29.2916 29.6392 29.2916 29.6392 29.271L29.5343 29.0225C30.6463 28.3807 31.5903 27.4696 32.3037 26.3517C32.6814 25.772 32.975 25.1302 33.1848 24.4884L33.4365 24.5297C33.4576 24.5297 33.4576 24.509 33.4784 24.509C33.5624 24.4677 33.6254 24.4056 33.7513 24.4056H33.7932C34.1289 24.447 34.4855 24.5711 34.8842 24.7161H34.9052C34.9681 24.7368 35.0309 24.7782 35.0939 24.7989C35.2198 24.861 35.3247 24.9024 35.4716 24.9439C35.5135 24.9439 35.5554 24.9646 35.5975 24.9646C35.6184 24.9646 35.6394 24.9646 35.6603 24.9853C35.7233 25.0059 35.7653 25.0059 35.8283 25.0059C36.1429 25.0059 36.4156 24.799 36.4996 24.5298C36.4996 24.2814 36.2688 23.9501 35.8911 23.8467V23.8465ZM26.1776 22.8321L25.2545 23.2669L24.3314 22.8321L24.1007 21.8591L24.73 21.0723H25.758L26.3874 21.8591L26.1777 22.8321H26.1776ZM31.6533 20.679C31.8161 21.3636 31.8657 22.0697 31.8002 22.7699L28.5903 21.8591C28.2966 21.7763 28.1288 21.4864 28.1917 21.1966C28.2126 21.1137 28.2547 21.0309 28.3175 20.9688L30.8561 18.7121C31.2127 19.2918 31.4854 19.9543 31.6533 20.6789V20.679ZM29.8491 17.4699L27.1008 19.3954C26.87 19.5403 26.5552 19.4988 26.3664 19.2711C26.3036 19.209 26.2826 19.1261 26.2615 19.0434L26.0728 15.6686C27.5016 15.831 28.8326 16.4659 29.8491 17.4699ZM23.765 15.772C23.9958 15.7307 24.2055 15.6893 24.4363 15.6479L24.2475 18.9604C24.2266 19.2502 23.9958 19.4987 23.681 19.4987C23.5972 19.4987 23.4923 19.478 23.4293 19.4366L20.639 17.4699C21.4992 16.621 22.5692 16.0413 23.765 15.7722V15.772ZM19.632 18.7119L22.1285 20.9065C22.3593 21.0929 22.3803 21.4448 22.1915 21.6725C22.1285 21.7553 22.0447 21.8174 21.9398 21.8383L18.6879 22.7699C18.562 21.362 18.8767 19.9335 19.632 18.7119ZM19.0654 24.3226L22.4014 23.7636C22.6741 23.7429 22.9259 23.9293 22.9887 24.1984C23.0097 24.3225 23.0097 24.4262 22.9678 24.5297L21.688 27.573C20.5131 26.8277 19.5691 25.689 19.0656 24.3226H19.0654ZM26.7231 28.4426C26.2406 28.5462 25.758 28.6082 25.2545 28.6082C24.5203 28.6082 23.8069 28.4841 23.1357 28.277L24.793 25.3164C24.9608 25.13 25.2335 25.0473 25.4643 25.1715C25.5623 25.2307 25.6478 25.308 25.7161 25.3992L27.3315 28.277C27.1427 28.3391 26.9329 28.3806 26.723 28.4426H26.7231ZM30.8141 25.5649C30.2896 26.393 29.5972 27.0555 28.8001 27.573L27.4784 24.4467C27.4154 24.1984 27.5203 23.9293 27.7721 23.8049C27.8559 23.7636 27.9609 23.7429 28.0658 23.7429L31.4225 24.302C31.2967 24.7574 31.0868 25.1715 30.8141 25.5649Z" fill="white"/>
</g>
<defs>
<filter id="filter0_d_1964_10657" x="0" y="0" width="51" height="51" filterUnits="userSpaceOnUse" color-interpolation-filters="sRGB">
<feFlood flood-opacity="0" result="BackgroundImageFix"/>
<feColorMatrix in="SourceAlpha" type="matrix" values="0 0 0 0 0 0 0 0 0 0 0 0 0 0 0 0 0 0 127 0" result="hardAlpha"/>
<feOffset dy="4"/>
<feGaussianBlur stdDeviation="4"/>
<feComposite in2="hardAlpha" operator="out"/>
<feColorMatrix type="matrix" values="0 0 0 0 0 0 0 0 0 0 0 0 0 0 0 0 0 0 0.15 0"/>
<feBlend mode="normal" in2="BackgroundImageFix" result="effect1_dropShadow_1964_10657"/>
<feBlend mode="normal" in="SourceGraphic" in2="effect1_dropShadow_1964_10657" result="shape"/>
</filter>
</defs>
</svg>
