<svg width="35" height="35" viewBox="0 0 35 35" fill="none" xmlns="http://www.w3.org/2000/svg">
<rect width="35" height="35" rx="17.5" fill="white"/>
<path d="M11.3592 32.6841C10.6039 32.6841 9.89069 32.3529 9.40813 31.7525L2.06546 22.7465C1.58289 22.146 1.39413 21.3801 1.58289 20.6347L4.20532 9.39271C4.37312 8.64736 4.87664 8.04692 5.56906 7.71573L16.1846 2.70536C16.5204 2.53989 16.898 2.45703 17.2757 2.45703C17.6533 2.45703 18.0308 2.53976 18.3666 2.70548L28.9823 7.69505C29.6746 8.02623 30.1781 8.62667 30.3459 9.37203L32.9683 20.614C33.1362 21.3593 32.9683 22.1254 32.4859 22.7258L25.1429 31.7318C24.6604 32.3114 23.9471 32.6634 23.1918 32.6634L11.3595 32.6841H11.3592Z" fill="#326DE6"/>
<path d="M17.2545 2.97312C17.5483 2.97312 17.842 3.03517 18.1147 3.15939L28.7304 8.14896C29.2759 8.41809 29.6954 8.91499 29.8213 9.49475L32.4438 20.7367C32.5906 21.3371 32.4438 21.9583 32.0452 22.4344L24.7024 31.4405C24.3247 31.9166 23.7372 32.1857 23.1289 32.1857H11.3593C10.7508 32.1857 10.1635 31.9166 9.78584 31.4405L2.44305 22.4344C2.0654 21.9583 1.91843 21.3371 2.04444 20.7367L4.66687 9.49475C4.81371 8.89431 5.21231 8.39741 5.75776 8.14896L16.3736 3.13884C16.6463 3.03529 16.961 2.97324 17.2546 2.97324L17.2545 2.97312ZM17.2545 2C16.814 2 16.3735 2.10354 15.9538 2.28982L5.33819 7.30019C4.49894 7.69355 3.91158 8.41809 3.70173 9.30835L1.07931 20.5504C0.86959 21.4407 1.07931 22.3516 1.6668 23.0763L9.00959 32.0823C9.57612 32.7862 10.4362 33.1795 11.3383 33.1795H23.1078C24.0099 33.1795 24.8702 32.7862 25.4366 32.0823L32.7795 23.0762C33.3668 22.3723 33.5767 21.4407 33.3668 20.5503L30.7444 9.30835C30.5347 8.41809 29.9472 7.69355 29.1081 7.30019L18.5343 2.28969C18.1357 2.10354 17.6952 2 17.2545 2Z" fill="white"/>
<path d="M27.8911 19.8451C27.8702 19.8451 27.8702 19.8451 27.8911 19.8451H27.8702C27.8492 19.8451 27.8283 19.8451 27.8283 19.8244C27.7864 19.8244 27.7444 19.8037 27.7024 19.8037C27.5555 19.783 27.4297 19.7623 27.3038 19.7623C27.2408 19.7623 27.1779 19.7623 27.0939 19.7415H27.073C26.6325 19.7002 26.2758 19.6588 25.94 19.5553C25.7932 19.4931 25.7513 19.4104 25.7092 19.3275C25.7092 19.3068 25.6883 19.3068 25.6883 19.2861L25.4156 19.2034C25.5444 18.2295 25.4947 17.2406 25.2687 16.284C25.0396 15.3195 24.6421 14.4018 24.0939 13.5719L24.3037 13.3856V13.3443C24.3037 13.2407 24.3247 13.1372 24.4085 13.0336C24.6603 12.8059 24.975 12.6196 25.3527 12.3918C25.4156 12.3505 25.4784 12.3298 25.5414 12.2883C25.6673 12.2262 25.7722 12.1642 25.8981 12.0813C25.9191 12.0606 25.961 12.04 26.003 11.9986C26.024 11.9778 26.045 11.9778 26.045 11.9571C26.3386 11.7086 26.4017 11.2946 26.1918 11.0253C26.0869 10.8804 25.8981 10.7977 25.7092 10.7977C25.5416 10.7977 25.3946 10.8597 25.2478 10.9633L25.2058 11.0047C25.1639 11.0253 25.1428 11.0668 25.1009 11.0875C24.996 11.1911 24.912 11.2738 24.8282 11.3773C24.7863 11.4187 24.7444 11.4809 24.6814 11.5222C24.3875 11.8329 24.1148 12.0813 23.8421 12.2676C23.7792 12.309 23.7164 12.3298 23.6533 12.3298C23.6114 12.3298 23.5694 12.3298 23.5275 12.309H23.4855L23.2337 12.4747C22.9609 12.1849 22.6673 11.9364 22.3736 11.688C21.109 10.7125 19.587 10.116 17.9888 9.96949L17.9678 9.70035L17.9259 9.65899C17.8629 9.59681 17.7791 9.53476 17.758 9.38985C17.737 9.05854 17.7791 8.68587 17.821 8.27183V8.25114C17.821 8.18897 17.842 8.10624 17.8629 8.04406C17.8839 7.91996 17.9048 7.79561 17.9259 7.6507V7.46443C17.9259 7.09175 17.6321 6.78125 17.2756 6.78125C17.1076 6.78125 16.9398 6.86398 16.814 6.98821C16.6882 7.11243 16.6252 7.27803 16.6252 7.46443V7.63002C16.6252 7.77493 16.6462 7.89915 16.6881 8.02338C16.709 8.08555 16.709 8.1476 16.73 8.23046V8.25114C16.7719 8.66519 16.8349 9.03786 16.793 9.36917C16.772 9.51408 16.6881 9.57613 16.6252 9.6383L16.5833 9.67967L16.5622 9.94881C16.1845 9.99017 15.8069 10.0315 15.4293 10.1144C13.8139 10.4664 12.3873 11.2739 11.2754 12.4332L11.0656 12.2883H11.0237C10.9817 12.2883 10.9397 12.309 10.8978 12.309C10.8348 12.309 10.7719 12.2883 10.7089 12.2469C10.4362 12.0606 10.1634 11.7914 9.86976 11.4809C9.82784 11.4395 9.78592 11.3773 9.72292 11.336C9.63896 11.2324 9.55499 11.1496 9.45007 11.0461C9.42911 11.0253 9.38719 11.0048 9.34528 10.9633C9.32432 10.9426 9.30336 10.9426 9.30336 10.9219C9.17337 10.8159 9.01035 10.7574 8.84175 10.7562C8.65286 10.7562 8.4641 10.8391 8.35918 10.984C8.14934 11.2531 8.21234 11.6671 8.50602 11.9156C8.52698 11.9156 8.52698 11.9364 8.54794 11.9364C8.58986 11.9571 8.61094 11.9985 8.65286 12.0191C8.77874 12.1019 8.88367 12.164 9.00955 12.2262C9.07255 12.2469 9.13543 12.2883 9.19843 12.3298C9.57595 12.5574 9.89072 12.7438 10.1425 12.9716C10.2474 13.075 10.2474 13.1785 10.2474 13.2821V13.3234L10.4571 13.5098C10.4152 13.5719 10.3733 13.6134 10.3522 13.6754C9.30323 15.311 8.90463 17.2365 9.17735 19.1412L8.90463 19.224C8.90463 19.2448 8.88367 19.2448 8.88367 19.2653C8.84175 19.3482 8.77874 19.431 8.65286 19.4931C8.33822 19.5966 7.96058 19.6381 7.52006 19.6795H7.49897C7.43609 19.6795 7.35213 19.6795 7.28925 19.7002C7.16337 19.7002 7.03749 19.7209 6.89065 19.7415C6.84873 19.7415 6.80681 19.7623 6.76477 19.7623C6.74381 19.7623 6.72285 19.7623 6.70176 19.783C6.32412 19.8658 6.09331 20.2178 6.15632 20.5489C6.21932 20.8389 6.49204 21.0253 6.82764 21.0253C6.89065 21.0253 6.93257 21.0253 6.99557 21.0045C7.01653 21.0045 7.03749 21.0045 7.03749 20.9838C7.07941 20.9838 7.12133 20.9631 7.16324 20.9631C7.31021 20.9217 7.41513 20.8804 7.54102 20.8182C7.60389 20.7975 7.66677 20.756 7.72977 20.7355H7.75073C8.14934 20.5904 8.50602 20.4662 8.84175 20.4248H8.88367C9.00955 20.4248 9.09351 20.4869 9.15639 20.5284C9.17735 20.5284 9.17735 20.5491 9.19831 20.5491L9.49212 20.5077C9.99564 22.0396 10.9606 23.4061 12.2404 24.3999C12.5341 24.6276 12.8278 24.814 13.1426 25.0004L13.0167 25.2694C13.0167 25.2902 13.0376 25.2902 13.0376 25.3107C13.0795 25.3936 13.1215 25.4971 13.0795 25.642C12.9538 25.9527 12.7649 26.2632 12.5341 26.6152V26.6359C12.4922 26.698 12.4503 26.7394 12.4084 26.8014C12.3244 26.905 12.2614 27.0085 12.1774 27.1327C12.1565 27.1534 12.1355 27.1948 12.1145 27.2363C12.1145 27.257 12.0936 27.2777 12.0936 27.2777C11.9258 27.6297 12.0517 28.023 12.3663 28.1679C12.4501 28.2093 12.5341 28.2301 12.6181 28.2301C12.8698 28.2301 13.1216 28.0644 13.2475 27.8366C13.2475 27.8159 13.2684 27.7952 13.2684 27.7952C13.2894 27.7539 13.3104 27.7125 13.3313 27.6917C13.3943 27.5468 13.4153 27.4432 13.4572 27.319L13.5202 27.1327C13.667 26.7187 13.772 26.3874 13.9607 26.0976C14.0446 25.9734 14.1496 25.9527 14.2334 25.9112C14.2544 25.9112 14.2544 25.9112 14.2754 25.8905L14.4223 25.6214C15.3454 25.9734 16.3525 26.1596 17.3594 26.1596C17.9678 26.1596 18.5973 26.0976 19.1847 25.9527C19.5544 25.8711 19.9187 25.7674 20.2756 25.642L20.4014 25.8698C20.4225 25.8698 20.4225 25.8698 20.4434 25.8905C20.5484 25.9112 20.6322 25.9527 20.7162 26.0769C20.884 26.3667 21.0098 26.7187 21.1567 27.1121V27.1327L21.2197 27.319C21.2616 27.4432 21.2826 27.5675 21.3454 27.6917C21.3665 27.7331 21.3875 27.7539 21.4084 27.7952C21.4084 27.8159 21.4295 27.8366 21.4295 27.8366C21.5553 28.0851 21.807 28.2301 22.0588 28.2301C22.1428 28.2301 22.2267 28.2093 22.3106 28.1679C22.4574 28.0852 22.5833 27.9608 22.6253 27.7952C22.6673 27.6297 22.6673 27.4433 22.5834 27.2777C22.5834 27.257 22.5623 27.257 22.5623 27.2363C22.5414 27.1949 22.5204 27.1536 22.4995 27.1327C22.4364 27.0085 22.3526 26.905 22.2687 26.8014C22.2267 26.7394 22.1848 26.698 22.1429 26.636V26.6152C21.912 26.2632 21.7021 25.9527 21.5973 25.642C21.5554 25.4971 21.5973 25.4144 21.6183 25.3109C21.6183 25.2902 21.6392 25.2902 21.6392 25.2695L21.5343 25.021C22.6463 24.3792 23.5903 23.4682 24.3037 22.3503C24.6814 21.7705 24.975 21.1287 25.1848 20.4869L25.4365 20.5283C25.4576 20.5283 25.4576 20.5076 25.4784 20.5076C25.5624 20.4662 25.6254 20.4042 25.7513 20.4042H25.7932C26.1289 20.4455 26.4855 20.5696 26.8842 20.7147H26.9052C26.9681 20.7353 27.0309 20.7767 27.0939 20.7974C27.2198 20.8596 27.3247 20.9009 27.4716 20.9424C27.5135 20.9424 27.5554 20.9631 27.5975 20.9631C27.6184 20.9631 27.6394 20.9631 27.6603 20.9838C27.7233 21.0045 27.7653 21.0045 27.8283 21.0045C28.1429 21.0045 28.4156 20.7975 28.4996 20.5284C28.4996 20.2799 28.2688 19.9486 27.8911 19.8452V19.8451ZM18.1776 18.8306L17.2545 19.2654L16.3314 18.8306L16.1007 17.8576L16.73 17.0709H17.758L18.3874 17.8576L18.1777 18.8306H18.1776ZM23.6533 16.6775C23.8161 17.3621 23.8657 18.0682 23.8002 18.7684L20.5903 17.8576C20.2966 17.7749 20.1288 17.4849 20.1917 17.1951C20.2126 17.1122 20.2547 17.0294 20.3175 16.9673L22.8561 14.7106C23.2127 15.2904 23.4854 15.9529 23.6533 16.6774V16.6775ZM21.8491 13.4685L19.1008 15.3939C18.87 15.5388 18.5552 15.4973 18.3664 15.2697C18.3036 15.2075 18.2826 15.1246 18.2615 15.0419L18.0728 11.6671C19.5016 11.8295 20.8326 12.4644 21.8491 13.4685ZM15.765 11.7706C15.9958 11.7292 16.2055 11.6878 16.4363 11.6465L16.2475 14.9589C16.2266 15.2487 15.9958 15.4972 15.681 15.4972C15.5972 15.4972 15.4923 15.4765 15.4293 15.4351L12.639 13.4685C13.4992 12.6196 14.5692 12.0398 15.765 11.7707V11.7706ZM11.632 14.7105L14.1285 16.905C14.3593 17.0914 14.3803 17.4433 14.1915 17.6711C14.1285 17.7538 14.0447 17.816 13.9398 17.8368L10.6879 18.7684C10.562 17.3606 10.8767 15.932 11.632 14.7105ZM11.0654 20.3212L14.4014 19.7621C14.6741 19.7414 14.9259 19.9278 14.9887 20.1969C15.0097 20.321 15.0097 20.4247 14.9678 20.5283L13.688 23.5716C12.5131 22.8262 11.5691 21.6875 11.0656 20.3212H11.0654ZM18.7231 24.4412C18.2406 24.5447 17.758 24.6068 17.2545 24.6068C16.5203 24.6068 15.8069 24.4827 15.1357 24.2756L16.793 21.315C16.9608 21.1286 17.2335 21.0458 17.4643 21.1701C17.5623 21.2293 17.6478 21.3066 17.7161 21.3977L19.3315 24.2756C19.1427 24.3376 18.9329 24.3791 18.723 24.4412H18.7231ZM22.8141 21.5634C22.2896 22.3915 21.5972 23.054 20.8001 23.5716L19.4784 20.4453C19.4154 20.1969 19.5203 19.9278 19.7721 19.8035C19.8559 19.7621 19.9609 19.7414 20.0658 19.7414L23.4225 20.3005C23.2967 20.7559 23.0868 21.1701 22.8141 21.5634Z" fill="white"/>
</svg>
