<svg width="35" height="35" viewBox="0 0 35 35" fill="none" xmlns="http://www.w3.org/2000/svg">
<rect width="35" height="35" rx="17.5" fill="white"/>
<g clip-path="url(#clip0_1796_8335)">
<path d="M7.31589 22.2188L5.85111 22.7539L5.77246 27.1115L10.843 25.2591C9.10388 24.6749 7.83385 23.6471 7.31589 22.2188Z" fill="#FDBD39"/>
<path d="M8.0823 17.6133L3 19.4699L5.85096 22.7573L7.31574 22.2222C6.79929 20.798 7.11778 19.1882 8.0823 17.6133Z" fill="#F69833"/>
<path d="M16.6349 11.3237C10.1631 13.688 5.99074 18.5666 7.31575 22.2204L30.7523 13.6588C29.4273 10.0049 23.1067 8.95948 16.6349 11.3237Z" fill="#FECF33"/>
<path d="M21.4333 24.5569C27.9052 22.1926 32.0853 17.3356 30.7525 13.6602L7.31592 22.2218C8.64875 25.8973 14.9615 26.9211 21.4333 24.5569Z" fill="#EE6723"/>
<path d="M30.7525 13.6602L7.31592 22.2218C7.77484 23.4874 9.52489 24.1108 11.9804 24.1108C14.3743 24.1108 17.4388 23.5187 20.6336 22.3516C27.1055 19.9873 31.6588 16.1595 30.7525 13.6602Z" fill="#F69833"/>
<path d="M26.0877 11.7695C23.6938 11.7695 20.6293 12.3617 17.4345 13.5288C10.9627 15.8931 6.4093 19.7209 7.31564 22.2202L30.7522 13.6586C30.2933 12.393 28.5432 11.7695 26.0877 11.7695Z" fill="#FDBD39"/>
<path d="M24.7933 27.3452H24.7931C24.1036 27.3452 23.0863 26.7224 21.7695 25.494C20.2116 24.0407 18.4271 21.9121 16.7446 19.5003C15.0621 17.0887 13.6796 14.6776 12.8517 12.7111C11.9498 10.5682 11.8212 9.25064 12.4695 8.79492C12.6117 8.6951 12.783 8.64453 12.9788 8.64453C13.5062 8.64453 14.5337 9.03717 16.4339 10.9078L16.4754 10.9487L16.4698 11.0068C16.4568 11.1412 16.4448 11.2768 16.4342 11.4099L16.413 11.6741L16.2266 11.4863C14.1792 9.4237 13.278 9.20103 12.9855 9.20103C12.9021 9.20103 12.8357 9.21799 12.7881 9.25146C12.5068 9.44906 12.4887 10.4169 13.3632 12.4942C14.1763 14.4256 15.5387 16.8002 17.1994 19.1806C18.8603 21.5613 20.6175 23.6584 22.1475 25.0857C23.7973 26.6248 24.5408 26.791 24.7839 26.791C24.8678 26.791 24.9361 26.773 24.9866 26.7374C25.2833 26.5289 25.2836 25.4922 24.3085 23.2563L24.2637 23.1536L24.3617 23.1C24.4597 23.0463 24.5545 22.9935 24.6434 22.943L24.7608 22.8762L24.8149 23.0002C25.5064 24.5845 26.1527 26.5981 25.3052 27.1939C25.1623 27.2943 24.9901 27.3452 24.7933 27.3452ZM24.7931 27.1008H24.7933L24.7932 27.223L24.7931 27.1008Z" fill="#EE6723"/>
<path d="M21.5904 24.4889L21.5805 24.6106C21.4169 26.6352 20.9861 29.0692 19.8628 29.1677C19.8402 29.1697 19.8168 29.1707 19.7933 29.1707C19.0303 29.1707 18.3084 28.0774 17.6477 25.9211C17.0226 23.8812 16.5375 21.1422 16.2818 18.2088C16.0261 15.276 16.0299 12.4941 16.2926 10.3756C16.5789 8.06709 17.1239 6.86152 17.9125 6.79232C17.9358 6.79017 17.96 6.78906 17.9838 6.78906C18.5374 6.78906 19.3717 7.41587 20.2257 10.3354L19.6681 10.443C19.3829 9.46741 19.0721 8.6739 18.7636 8.12865C18.4782 7.62431 18.2008 7.34657 17.9822 7.34657C17.9751 7.34657 17.9678 7.34686 17.9607 7.34748C17.6189 7.3775 17.1211 8.20659 16.8436 10.4444C16.5856 12.5249 16.5825 15.2651 16.8349 18.1603C17.0873 21.0559 17.5645 23.7539 18.1784 25.7573C18.4533 26.6546 18.7549 27.3941 19.0504 27.8959C19.323 28.3586 19.5868 28.6135 19.7932 28.6135C19.8003 28.6135 19.8073 28.6131 19.8144 28.6125C20.1414 28.5839 20.7578 27.7211 21.0171 24.6856L21.5904 24.4889Z" fill="#EE6723"/>
</g>
<defs>
<clipPath id="clip0_1796_8335">
<rect width="28" height="28" fill="white" transform="translate(3 4)"/>
</clipPath>
</defs>
</svg>
