<svg width="51" height="51" viewBox="0 0 51 51" fill="none" xmlns="http://www.w3.org/2000/svg">
<g filter="url(#filter0_d_1964_10674)">
<rect x="8" y="4" width="35" height="35" rx="17.5" fill="white"/>
<g clip-path="url(#clip0_1964_10674)">
<path d="M15.3159 26.2207L13.8511 26.7558L13.7725 31.1134L18.843 29.2611C17.1039 28.6769 15.8339 27.649 15.3159 26.2207Z" fill="#FDBD39"/>
<path d="M16.0823 21.6118L11 23.4685L13.851 26.7558L15.3157 26.2207C14.7993 24.7966 15.1178 23.1867 16.0823 21.6118Z" fill="#F69833"/>
<path d="M24.6349 15.3237C18.1631 17.688 13.9907 22.5666 15.3157 26.2204L38.7523 17.6588C37.4273 14.0049 31.1067 12.9595 24.6349 15.3237Z" fill="#FECF33"/>
<path d="M29.4333 28.5559C35.9052 26.1916 40.0853 21.3346 38.7525 17.6592L15.3159 26.2209C16.6488 29.8963 22.9615 30.9201 29.4333 28.5559Z" fill="#EE6723"/>
<path d="M38.7525 17.6592L15.3159 26.2209C15.7748 27.4864 17.5249 28.1099 19.9804 28.1099C22.3743 28.1099 25.4388 27.5177 28.6336 26.3506C35.1055 23.9863 39.6588 20.1585 38.7525 17.6592Z" fill="#F69833"/>
<path d="M34.0877 15.77C31.6938 15.77 28.6293 16.3622 25.4345 17.5293C18.9627 19.8936 14.4093 23.7214 15.3156 26.2207L38.7522 17.659C38.2933 16.3935 36.5432 15.77 34.0877 15.77Z" fill="#FDBD39"/>
<path d="M32.7933 31.3442H32.7931C32.1036 31.3442 31.0863 30.7214 29.7695 29.493C28.2116 28.0397 26.4271 25.9111 24.7446 23.4994C23.0621 21.0877 21.6796 18.6766 20.8517 16.7102C19.9498 14.5673 19.8212 13.2497 20.4695 12.7939C20.6117 12.6941 20.783 12.6436 20.9788 12.6436C21.5062 12.6436 22.5337 13.0362 24.4339 14.9068L24.4754 14.9477L24.4698 15.0058C24.4568 15.1402 24.4448 15.2758 24.4342 15.4089L24.413 15.6731L24.2266 15.4853C22.1792 13.4227 21.278 13.2 20.9855 13.2C20.9021 13.2 20.8357 13.217 20.7881 13.2505C20.5068 13.4481 20.4887 14.4159 21.3632 16.4932C22.1763 18.4246 23.5387 20.7992 25.1994 23.1797C26.8603 25.5603 28.6175 27.6575 30.1475 29.0848C31.7973 30.6238 32.5408 30.79 32.7839 30.79C32.8678 30.79 32.9361 30.772 32.9866 30.7364C33.2833 30.528 33.2836 29.4912 32.3085 27.2553L32.2637 27.1527L32.3617 27.099C32.4597 27.0453 32.5545 26.9925 32.6434 26.942L32.7608 26.8753L32.8149 26.9993C33.5064 28.5836 34.1527 30.5972 33.3052 31.193C33.1623 31.2933 32.9901 31.3442 32.7933 31.3442ZM32.7931 31.0998H32.7933L32.7932 31.222L32.7931 31.0998Z" fill="#EE6723"/>
<path d="M29.5904 28.4889L29.5805 28.6106C29.4169 30.6352 28.9861 33.0692 27.8628 33.1677C27.8402 33.1697 27.8168 33.1707 27.7933 33.1707C27.0303 33.1707 26.3084 32.0774 25.6477 29.9211C25.0226 27.8812 24.5375 25.1422 24.2818 22.2088C24.0261 19.276 24.0299 16.4941 24.2926 14.3756C24.5789 12.0671 25.1239 10.8615 25.9125 10.7923C25.9358 10.7902 25.96 10.7891 25.9838 10.7891C26.5374 10.7891 27.3717 11.4159 28.2257 14.3354L27.6681 14.443C27.3829 13.4674 27.0721 12.6739 26.7636 12.1286C26.4782 11.6243 26.2008 11.3466 25.9822 11.3466C25.9751 11.3466 25.9678 11.3469 25.9607 11.3475C25.6189 11.3775 25.1211 12.2066 24.8436 14.4444C24.5856 16.5249 24.5825 19.2651 24.8349 22.1603C25.0873 25.0559 25.5645 27.7539 26.1784 29.7573C26.4533 30.6546 26.7549 31.3941 27.0504 31.8959C27.323 32.3586 27.5868 32.6135 27.7932 32.6135C27.8003 32.6135 27.8073 32.6131 27.8144 32.6125C28.1414 32.5839 28.7578 31.7211 29.0171 28.6856L29.5904 28.4889Z" fill="#EE6723"/>
</g>
</g>
<defs>
<filter id="filter0_d_1964_10674" x="0" y="0" width="51" height="51" filterUnits="userSpaceOnUse" color-interpolation-filters="sRGB">
<feFlood flood-opacity="0" result="BackgroundImageFix"/>
<feColorMatrix in="SourceAlpha" type="matrix" values="0 0 0 0 0 0 0 0 0 0 0 0 0 0 0 0 0 0 127 0" result="hardAlpha"/>
<feOffset dy="4"/>
<feGaussianBlur stdDeviation="4"/>
<feComposite in2="hardAlpha" operator="out"/>
<feColorMatrix type="matrix" values="0 0 0 0 0 0 0 0 0 0 0 0 0 0 0 0 0 0 0.15 0"/>
<feBlend mode="normal" in2="BackgroundImageFix" result="effect1_dropShadow_1964_10674"/>
<feBlend mode="normal" in="SourceGraphic" in2="effect1_dropShadow_1964_10674" result="shape"/>
</filter>
<clipPath id="clip0_1964_10674">
<rect width="28" height="28" fill="white" transform="translate(11 8)"/>
</clipPath>
</defs>
</svg>
