<svg width="12" height="7" viewBox="0 0 12 7" fill="none" xmlns="http://www.w3.org/2000/svg">
<path d="M11.0033 1.35355C11.1986 1.15829 11.1986 0.841709 11.0033 0.646447C10.808 0.451184 10.4914 0.451184 10.2962 0.646447L11.0033 1.35355ZM5.98307 5.66667L5.62952 6.02022C5.72329 6.11399 5.85047 6.16667 5.98307 6.16667C6.11568 6.16667 6.24286 6.11399 6.33663 6.02022L5.98307 5.66667ZM1.66996 0.646447C1.4747 0.451184 1.15812 0.451184 0.962853 0.646447C0.767591 0.841709 0.767591 1.15829 0.962853 1.35355L1.66996 0.646447ZM10.2962 0.646447L5.62952 5.31311L6.33663 6.02022L11.0033 1.35355L10.2962 0.646447ZM6.33663 5.31311L1.66996 0.646447L0.962853 1.35355L5.62952 6.02022L6.33663 5.31311Z" fill="#6A6A6A"/>
</svg>
