<svg width="20" height="20" viewBox="0 0 20 20" fill="none" xmlns="http://www.w3.org/2000/svg">
<g clip-path="url(#clip0_1327_8572)">
<path d="M2.01677 10.5946C1.90328 10.4149 1.84654 10.3251 1.81477 10.1865C1.79091 10.0824 1.79091 9.91824 1.81477 9.81415C1.84654 9.67556 1.90328 9.58571 2.01677 9.40601C2.95461 7.92103 5.74617 4.16699 10.0003 4.16699C14.2545 4.16699 17.0461 7.92103 17.9839 9.40601C18.0974 9.58571 18.1541 9.67556 18.1859 9.81415C18.2098 9.91824 18.2098 10.0824 18.1859 10.1865C18.1541 10.3251 18.0974 10.4149 17.9839 10.5946C17.0461 12.0796 14.2545 15.8337 10.0003 15.8337C5.74617 15.8337 2.95461 12.0796 2.01677 10.5946Z" stroke="#848484" stroke-width="1.5" stroke-linecap="round" stroke-linejoin="round"/>
<path d="M10.0003 12.5003C11.381 12.5003 12.5003 11.381 12.5003 10.0003C12.5003 8.61961 11.381 7.50033 10.0003 7.50033C8.61962 7.50033 7.50034 8.61961 7.50034 10.0003C7.50034 11.381 8.61962 12.5003 10.0003 12.5003Z" stroke="#848484" stroke-width="1.5" stroke-linecap="round" stroke-linejoin="round"/>
</g>
<defs>
<clipPath id="clip0_1327_8572">
<rect width="20" height="20" fill="white"/>
</clipPath>
</defs>
</svg>
