<svg width="22" height="22" viewBox="0 0 22 22" fill="none" xmlns="http://www.w3.org/2000/svg">
<mask id="mask0_549_311" style="mask-type:alpha" maskUnits="userSpaceOnUse" x="0" y="0" width="22" height="22">
<rect width="22" height="22" fill="#D9D9D9"/>
</mask>
<g mask="url(#mask0_549_311)">
<path d="M10.9999 19.2495L9.67075 18.0579C7.27214 15.919 5.36609 14.0588 3.95259 12.4772C2.5397 10.8963 1.83325 9.22732 1.83325 7.47038C1.83325 6.03427 2.3145 4.83496 3.277 3.87246C4.2395 2.90996 5.43881 2.42871 6.87492 2.42871C7.68464 2.42871 8.44853 2.60043 9.16659 2.94388C9.88464 3.28793 10.4958 3.75788 10.9999 4.35371C11.5041 3.75788 12.1152 3.28793 12.8333 2.94388C13.5513 2.60043 14.3152 2.42871 15.1249 2.42871C16.561 2.42871 17.7603 2.90996 18.7228 3.87246C19.6853 4.83496 20.1666 6.03427 20.1666 7.47038C20.1666 9.22732 19.4601 10.8963 18.0473 12.4772C16.6338 14.0588 14.7277 15.919 12.3291 18.0579L10.9999 19.2495ZM10.9999 16.7745C13.1846 14.7884 14.9532 13.0773 16.3056 11.6412C17.6574 10.2051 18.3333 8.81482 18.3333 7.47038C18.3333 6.55371 18.0277 5.78982 17.4166 5.17871C16.8055 4.5676 16.0416 4.26204 15.1249 4.26204C14.4069 4.26204 13.7423 4.46432 13.1312 4.86888C12.5201 5.27404 12.0999 5.78982 11.8708 6.41621H10.1291C9.89992 5.78982 9.47978 5.27404 8.86867 4.86888C8.25756 4.46432 7.59297 4.26204 6.87492 4.26204C5.95825 4.26204 5.19436 4.5676 4.58325 5.17871C3.97214 5.78982 3.66659 6.55371 3.66659 7.47038C3.66659 8.81482 4.34278 10.2051 5.69517 11.6412C7.04695 13.0773 8.8152 14.7884 10.9999 16.7745Z" fill="#848484"/>
</g>
</svg>
