<svg width="50" height="50" viewBox="0 0 50 50" fill="none" xmlns="http://www.w3.org/2000/svg">
<path d="M24.9998 42.6503C27.2113 44.6296 30.1317 45.8332 33.3332 45.8332C40.2367 45.8332 45.8332 40.2368 45.8332 33.3332C45.8332 27.5687 41.9312 22.7156 36.6245 21.271M13.3752 21.271C8.06845 22.7156 4.1665 27.5687 4.1665 33.3332C4.1665 40.2367 9.76294 45.8332 16.6665 45.8332C23.5701 45.8332 29.1665 40.2367 29.1665 33.3332C29.1665 31.7071 28.856 30.1536 28.2911 28.7287M37.4998 16.6665C37.4998 23.5701 31.9034 29.1665 24.9998 29.1665C18.0963 29.1665 12.4998 23.5701 12.4998 16.6665C12.4998 9.76294 18.0963 4.1665 24.9998 4.1665C31.9034 4.1665 37.4998 9.76294 37.4998 16.6665Z" stroke="#568A35" stroke-width="2.5" stroke-linecap="round" stroke-linejoin="round"/>
</svg>
