<svg width="20" height="19" viewBox="0 0 20 19" fill="none" xmlns="http://www.w3.org/2000/svg">
<path fill-rule="evenodd" clip-rule="evenodd" d="M1.59473 9.39453C1.59473 5.79939 1.59473 4.00182 2.45142 2.70708C2.83397 2.12892 3.32912 1.63378 3.90728 1.25122C5.20202 0.394531 6.99959 0.394531 10.5947 0.394531C14.1899 0.394531 15.9874 0.394531 17.2822 1.25122C17.8603 1.63378 18.3555 2.12892 18.738 2.70708C19.5947 4.00182 19.5947 5.79939 19.5947 9.39453C19.5947 12.9897 19.5947 14.7872 18.738 16.082C18.3555 16.6601 17.8603 17.1553 17.2822 17.5378C15.9874 18.3945 14.1899 18.3945 10.5947 18.3945C6.99959 18.3945 5.20202 18.3945 3.90728 17.5378C3.32912 17.1553 2.83397 16.6601 2.45142 16.082C1.59473 14.7872 1.59473 12.9897 1.59473 9.39453ZM15.254 9.39476C15.254 11.9681 13.1679 14.0542 10.5946 14.0542C8.02125 14.0542 5.93516 11.9681 5.93516 9.39476C5.93516 6.82144 8.02125 4.73535 10.5946 4.73535C13.1679 4.73535 15.254 6.82144 15.254 9.39476ZM10.5946 12.4778C12.2973 12.4778 13.6776 11.0975 13.6776 9.39476C13.6776 7.69206 12.2973 6.31176 10.5946 6.31176C8.89187 6.31176 7.51156 7.69206 7.51156 9.39476C7.51156 11.0975 8.89187 12.4778 10.5946 12.4778ZM15.438 5.59608C16.0427 5.59608 16.5328 5.10591 16.5328 4.50126C16.5328 3.8966 16.0427 3.40643 15.438 3.40643C14.8333 3.40643 14.3432 3.8966 14.3432 4.50126C14.3432 5.10591 14.8333 5.59608 15.438 5.59608Z" fill="white"/>
</svg>
