<svg width="20" height="19" viewBox="0 0 20 19" fill="none" xmlns="http://www.w3.org/2000/svg">
<path d="M1.59476 3.31458C1.59476 2.73737 1.79747 2.26118 2.20287 1.88601C2.60826 1.51083 3.1353 1.32324 3.78395 1.32324C4.42102 1.32324 4.93645 1.50793 5.33028 1.87735C5.73568 2.25831 5.93839 2.75469 5.93839 3.36653C5.93839 3.92064 5.74148 4.38239 5.34765 4.75181C4.94225 5.13276 4.40943 5.32324 3.7492 5.32324H3.73182C3.09475 5.32324 2.57932 5.13276 2.18549 4.75181C1.79166 4.37086 1.59476 3.89178 1.59476 3.31458ZM1.82063 18.4661V6.899H5.67777V18.4661H1.82063ZM7.81483 18.4661H11.672V12.0072C11.672 11.6032 11.7183 11.2915 11.811 11.0722C11.9731 10.6797 12.2193 10.3478 12.5494 10.0765C12.8795 9.8052 13.2936 9.66956 13.7917 9.66956C15.089 9.66956 15.7376 10.5411 15.7376 12.2843V18.4661H19.5948V11.8341C19.5948 10.1255 19.1894 8.82973 18.3785 7.94662C17.5677 7.0635 16.4963 6.62194 15.1643 6.62194C13.67 6.62194 12.506 7.26263 11.672 8.54402V8.57865H11.6546L11.672 8.54402V6.899H7.81483C7.83799 7.2684 7.84958 8.41702 7.84958 10.3449C7.84958 12.2727 7.83799 14.9798 7.81483 18.4661Z" fill="white"/>
</svg>
