<svg width="50" height="50" viewBox="0 0 50 50" fill="none" xmlns="http://www.w3.org/2000/svg">
<path d="M20.8332 30.2805C23.403 28.7952 26.5964 28.7952 29.1663 30.2805M4.1665 31.2498L5.62794 16.6355C5.68335 16.0814 5.71105 15.8044 5.75354 15.5667C6.25447 12.7645 8.58567 10.6547 11.4238 10.4351C11.6646 10.4165 11.943 10.4165 12.4998 10.4165M45.8332 31.2498L44.3717 16.6355C44.3163 16.0814 44.2886 15.8044 44.2461 15.5667C43.7452 12.7645 41.414 10.6547 38.5758 10.4351C38.3351 10.4165 38.0567 10.4165 37.4998 10.4165M18.3924 25.3573C21.6468 28.6116 21.6468 33.888 18.3924 37.1424C15.138 40.3968 9.86166 40.3968 6.60728 37.1424C3.35291 33.888 3.35291 28.6117 6.60728 25.3573C9.86164 22.1029 15.138 22.1029 18.3924 25.3573ZM43.3924 25.3573C46.6468 28.6116 46.6468 33.888 43.3924 37.1424C40.138 40.3968 34.8617 40.3968 31.6073 37.1424C28.3529 33.888 28.3529 28.6117 31.6073 25.3573C34.8616 22.1029 40.138 22.1029 43.3924 25.3573Z" stroke="#568A35" stroke-width="2.5" stroke-linecap="round" stroke-linejoin="round"/>
</svg>
