<svg width="20" height="20" viewBox="0 0 20 20" fill="none" xmlns="http://www.w3.org/2000/svg">
<path d="M17.3671 2.48027C16.9415 1.98374 16.4361 1.58985 15.8799 1.32112C15.3237 1.05238 14.7275 0.914062 14.1254 0.914062C13.5234 0.914062 12.9272 1.05238 12.371 1.32112C11.8147 1.58985 11.3094 1.98374 10.8838 2.48027L10.0004 3.51027L9.11709 2.48027C8.25735 1.47778 7.09129 0.914582 5.87542 0.914582C4.65956 0.914582 3.4935 1.47778 2.63376 2.48027C1.77401 3.48276 1.29102 4.84244 1.29102 6.26018C1.29102 7.67792 1.77401 9.03759 2.63376 10.0401L3.51709 11.0701L10.0004 18.6299L16.4838 11.0701L17.3671 10.0401C17.7929 9.54378 18.1307 8.95451 18.3612 8.30595C18.5917 7.65738 18.7103 6.96222 18.7103 6.26018C18.7103 5.55814 18.5917 4.86297 18.3612 4.21441C18.1307 3.56584 17.7929 2.97657 17.3671 2.48027V2.48027Z" stroke="#848484" stroke-width="1.7" stroke-linecap="round" stroke-linejoin="round"/>
</svg>
