<svg width="50" height="50" viewBox="0 0 50 50" fill="none" xmlns="http://www.w3.org/2000/svg">
<path d="M6.25 45.8332H25M22.9167 13.0249C24.2484 12.6821 25.6446 12.4998 27.0833 12.4998C36.2881 12.4998 43.75 19.9618 43.75 29.1665C43.75 36.161 39.4413 42.1492 33.3333 44.6217M11.4583 27.0832H19.7917C20.7597 27.0832 21.2437 27.0832 21.6462 27.1632C23.2991 27.492 24.5912 28.7841 24.9199 30.437C25 30.8395 25 31.3235 25 32.2915C25 33.2595 25 33.7436 24.9199 34.146C24.5912 35.7989 23.2991 37.091 21.6462 37.4198C21.2437 37.4998 20.7597 37.4998 19.7917 37.4998H11.4583C10.4903 37.4998 10.0063 37.4998 9.60379 37.4198C7.95091 37.091 6.65884 35.7989 6.33006 34.146C6.25 33.7436 6.25 33.2595 6.25 32.2915C6.25 31.3235 6.25 30.8395 6.33006 30.437C6.65884 28.7841 7.95091 27.492 9.60379 27.1632C10.0063 27.0832 10.4903 27.0832 11.4583 27.0832ZM8.33333 11.4582V27.0832H22.9167V11.4582C22.9167 7.43109 19.6521 4.1665 15.625 4.1665C11.5979 4.1665 8.33333 7.43109 8.33333 11.4582Z" stroke="#568A35" stroke-width="2.5" stroke-linecap="round" stroke-linejoin="round"/>
</svg>
