<svg id="레이어_1" data-name="레이어 1" xmlns="http://www.w3.org/2000/svg" viewBox="0 0 40 44.17"><title>프로젝트</title><path  d="M9.6,49.18H28.35m-2.08-32.8a16.3,16.3,0,0,1,4.16-.53A16.67,16.67,0,0,1,36.68,48M14.81,30.43h8.33a10.57,10.57,0,0,1,1.86.08,4.17,4.17,0,0,1,3.27,3.28,10.38,10.38,0,0,1,.08,1.85,10.57,10.57,0,0,1-.08,1.86A4.17,4.17,0,0,1,25,40.77a10.57,10.57,0,0,1-1.86.08H14.81A10.57,10.57,0,0,1,13,40.77,4.17,4.17,0,0,1,9.68,37.5a10.57,10.57,0,0,1-.08-1.86,10.38,10.38,0,0,1,.08-1.85A4.17,4.17,0,0,1,13,30.51,10.57,10.57,0,0,1,14.81,30.43ZM11.68,14.81V30.43H26.27V14.81a7.3,7.3,0,0,0-14.59,0Z" transform="translate(-8.35 -6.27)"/></svg>