<svg width="20" height="19" viewBox="0 0 20 19" fill="none" xmlns="http://www.w3.org/2000/svg">
<path d="M9.3421 2.16519C9.55338 1.73717 9.65902 1.52315 9.80243 1.45478C9.92721 1.39528 10.0722 1.39528 10.1969 1.45478C10.3404 1.52315 10.446 1.73717 10.6573 2.16519L12.6617 6.226C12.7241 6.35236 12.7553 6.41554 12.8009 6.4646C12.8412 6.50803 12.8896 6.54322 12.9434 6.56822C13.0041 6.59646 13.0738 6.60665 13.2133 6.62703L17.6969 7.28238C18.1691 7.3514 18.4051 7.3859 18.5144 7.50122C18.6094 7.60156 18.6542 7.73943 18.6361 7.87645C18.6153 8.03393 18.4443 8.2004 18.1025 8.53334L14.8593 11.6922C14.7582 11.7907 14.7077 11.8399 14.6751 11.8985C14.6462 11.9504 14.6277 12.0073 14.6205 12.0663C14.6124 12.1328 14.6244 12.2024 14.6482 12.3415L15.4135 16.8033C15.4942 17.2739 15.5345 17.5091 15.4587 17.6488C15.3927 17.7703 15.2754 17.8555 15.1395 17.8807C14.9832 17.9096 14.7719 17.7985 14.3494 17.5763L10.341 15.4683C10.2161 15.4027 10.1537 15.3698 10.0879 15.3569C10.0296 15.3455 9.96973 15.3455 9.91148 15.3569C9.8457 15.3698 9.78325 15.4027 9.65836 15.4683L5.65002 17.5763C5.22743 17.7985 5.01613 17.9096 4.8599 17.8807C4.72397 17.8555 4.60667 17.7703 4.54068 17.6488C4.46484 17.5091 4.5052 17.2739 4.58591 16.8033L5.35115 12.3415C5.37501 12.2024 5.38694 12.1328 5.37887 12.0663C5.37172 12.0073 5.35319 11.9504 5.32431 11.8985C5.29169 11.8399 5.24114 11.7907 5.14004 11.6922L1.89685 8.53334C1.55503 8.2004 1.38412 8.03393 1.36332 7.87645C1.34523 7.73943 1.38993 7.60156 1.48499 7.50122C1.59424 7.3859 1.83031 7.3514 2.30246 7.28238L6.78613 6.62703C6.92556 6.60665 6.99528 6.59646 7.056 6.56822C7.10976 6.54322 7.15816 6.50803 7.19851 6.4646C7.24409 6.41554 7.27528 6.35236 7.33765 6.226L9.3421 2.16519Z" stroke="#848484" stroke-width="1.3" stroke-linecap="round" stroke-linejoin="round"/>
</svg>
