<svg width="50" height="50" viewBox="0 0 50 50" fill="none" xmlns="http://www.w3.org/2000/svg">
<path d="M24.9998 41.6668H10.8332C8.49962 41.6668 7.33284 41.6668 6.44154 41.2127C5.65753 40.8132 5.02012 40.1758 4.62064 39.3918C4.1665 38.5005 4.1665 37.3337 4.1665 35.0002V15.0002C4.1665 12.6666 4.1665 11.4998 4.62064 10.6085C5.02012 9.82453 5.65753 9.18711 6.44154 8.78764C7.33284 8.3335 8.49962 8.3335 10.8332 8.3335H11.6665C16.3336 8.3335 18.6672 8.3335 20.4498 9.24178C22.0178 10.0407 23.2926 11.3156 24.0916 12.8836C24.9998 14.6662 24.9998 16.9997 24.9998 21.6668M24.9998 41.6668V21.6668M24.9998 41.6668H39.1665C41.5001 41.6668 42.6668 41.6668 43.5581 41.2127C44.3421 40.8132 44.9796 40.1758 45.379 39.3918C45.8332 38.5005 45.8332 37.3337 45.8332 35.0002V15.0002C45.8332 12.6666 45.8332 11.4998 45.379 10.6085C44.9796 9.82453 44.3421 9.18711 43.5581 8.78764C42.6668 8.3335 41.5001 8.3335 39.1665 8.3335H38.3332C33.6661 8.3335 31.3325 8.3335 29.5499 9.24178C27.9819 10.0407 26.7071 11.3156 25.9081 12.8836C24.9998 14.6662 24.9998 16.9997 24.9998 21.6668" stroke="#568A35" stroke-width="2.5" stroke-linecap="round" stroke-linejoin="round"/>
</svg>
