<svg width="40" height="40" viewBox="0 0 40 40" fill="none" xmlns="http://www.w3.org/2000/svg">
<path d="M36.6667 22.0833V32.0833C36.6667 34.4169 36.6667 35.5837 36.2125 36.475C35.8131 37.259 35.1756 37.8964 34.3916 38.2959C33.5003 38.75 32.3336 38.75 30 38.75H10C7.66645 38.75 6.49967 38.75 5.60837 38.2959C4.82436 37.8964 4.18695 37.259 3.78747 36.475C3.33333 35.5837 3.33333 34.4169 3.33333 32.0833V22.0833M13.75 15.8333H26.25M14.3452 24.1667H25.6548C30.0974 24.1667 32.3187 24.1667 34.0324 23.3414C35.7333 22.5223 37.1056 21.1499 37.9247 19.449C38.75 17.7354 38.75 15.5141 38.75 11.0714C38.75 7.73946 38.75 6.07348 38.1311 4.78823C37.5167 3.51255 36.4874 2.48328 35.2118 1.86894C33.9265 1.25 32.2605 1.25 28.9286 1.25H11.0714C7.73946 1.25 6.07348 1.25 4.78823 1.86894C3.51255 2.48328 2.48328 3.51255 1.86894 4.78823C1.25 6.07348 1.25 7.73946 1.25 11.0714C1.25 15.5141 1.25 17.7354 2.07526 19.449C2.89437 21.1499 4.26674 22.5223 5.96764 23.3414C7.6813 24.1667 9.90262 24.1667 14.3452 24.1667Z" stroke="white" stroke-width="2.5" stroke-linecap="round" stroke-linejoin="round"/>
</svg>
