
<svg version="1.1" id="레이어_1" xmlns="http://www.w3.org/2000/svg" xmlns:xlink="http://www.w3.org/1999/xlink" x="0px"
	 y="0px" viewBox="0 0 56.69 56.69" style="enable-background:new 0 0 56.69 56.69;" xml:space="preserve" >
<path stoke-width="10" d="M45.01,30.43v10c0,2.33,0,3.5-0.45,4.39c-0.4,0.78-1.04,1.42-1.82,1.82c-0.89,0.45-2.06,0.45-4.39,0.45h-20
	c-2.33,0-3.5,0-4.39-0.45c-0.78-0.4-1.42-1.04-1.82-1.82c-0.45-0.89-0.45-2.06-0.45-4.39v-10 M22.1,24.18h12.5 M22.69,32.51H34
	c4.44,0,6.66,0,8.38-0.83c1.7-0.82,3.07-2.19,3.89-3.89c0.83-1.71,0.83-3.93,0.83-8.38c0-3.33,0-5-0.62-6.28
	c-0.61-1.28-1.64-2.3-2.92-2.92C42.27,9.6,40.61,9.6,37.28,9.6H19.42c-3.33,0-5,0-6.28,0.62c-1.28,0.61-2.3,1.64-2.92,2.92
	C9.6,14.42,9.6,16.09,9.6,19.42c0,4.44,0,6.66,0.83,8.38c0.82,1.7,2.19,3.07,3.89,3.89C16.03,32.51,18.25,32.51,22.69,32.51z"/>
</svg>
