<svg width="22" height="22" viewBox="0 0 22 22" fill="none" xmlns="http://www.w3.org/2000/svg">
<mask id="mask0_549_321" style="mask-type:alpha" maskUnits="userSpaceOnUse" x="0" y="0" width="22" height="22">
<rect width="22" height="22" fill="#D9D9D9"/>
</mask>
<g mask="url(#mask0_549_321)">
<path d="M11.0001 14.667C12.1459 14.667 13.12 14.2661 13.9224 13.4643C14.7242 12.6619 15.1251 11.6878 15.1251 10.542C15.1251 9.39616 14.7242 8.42205 13.9224 7.61966C13.12 6.81788 12.1459 6.41699 11.0001 6.41699C9.85425 6.41699 8.88014 6.81788 8.07775 7.61966C7.27597 8.42205 6.87508 9.39616 6.87508 10.542C6.87508 11.6878 7.27597 12.6619 8.07775 13.4643C8.88014 14.2661 9.85425 14.667 11.0001 14.667ZM11.0001 13.017C10.3126 13.017 9.72836 12.7762 9.24741 12.2947C8.76586 11.8137 8.52508 11.2295 8.52508 10.542C8.52508 9.85449 8.76586 9.26996 9.24741 8.78841C9.72836 8.30746 10.3126 8.06699 11.0001 8.06699C11.6876 8.06699 12.2721 8.30746 12.7537 8.78841C13.2346 9.26996 13.4751 9.85449 13.4751 10.542C13.4751 11.2295 13.2346 11.8137 12.7537 12.2947C12.2721 12.7762 11.6876 13.017 11.0001 13.017ZM11.0001 17.417C8.76953 17.417 6.73758 16.7943 4.90425 15.5488C3.07091 14.304 1.74175 12.635 0.916748 10.542C1.74175 8.44894 3.07091 6.77969 4.90425 5.53424C6.73758 4.28941 8.76953 3.66699 11.0001 3.66699C13.2306 3.66699 15.2626 4.28941 17.0959 5.53424C18.9292 6.77969 20.2584 8.44894 21.0834 10.542C20.2584 12.635 18.9292 14.304 17.0959 15.5488C15.2626 16.7943 13.2306 17.417 11.0001 17.417ZM11.0001 15.5837C12.7265 15.5837 14.3117 15.129 15.7557 14.2197C17.1992 13.3109 18.3029 12.085 19.0667 10.542C18.3029 8.99894 17.1992 7.77274 15.7557 6.86341C14.3117 5.95469 12.7265 5.50033 11.0001 5.50033C9.27369 5.50033 7.68847 5.95469 6.24441 6.86341C4.80097 7.77274 3.6973 8.99894 2.93341 10.542C3.6973 12.085 4.80097 13.3109 6.24441 14.2197C7.68847 15.129 9.27369 15.5837 11.0001 15.5837Z" fill="#848484"/>
</g>
</svg>
