<svg width="22" height="15" viewBox="0 0 22 15" fill="none" xmlns="http://www.w3.org/2000/svg">
<path d="M12.0334 14.3747L7.97117 14.2988C6.65592 14.2723 5.3374 14.3251 4.04794 14.051C2.08637 13.6415 1.94741 11.6336 1.802 9.94939C1.60164 7.58155 1.6792 5.17074 2.05731 2.82266C2.27077 1.50514 3.1108 0.718973 4.40988 0.633423C8.79523 0.322948 13.2097 0.359743 17.5854 0.50459C18.0475 0.517869 18.5128 0.590445 18.9685 0.673056C21.2178 1.07597 21.2726 3.35137 21.4184 5.26683C21.5639 7.20205 21.5025 9.14721 21.2245 11.0693C21.0015 12.6607 20.5749 13.9952 18.7746 14.124C16.5188 14.2925 14.3148 14.4281 12.0527 14.3849C12.0528 14.3747 12.0398 14.3747 12.0334 14.3747ZM9.64518 10.3457C11.3451 9.34831 13.0126 8.36752 14.7027 7.3768C12.9997 6.37939 11.3354 5.3986 9.64518 4.40788V10.3457Z" fill="white"/>
</svg>
