<svg width="35" height="35" viewBox="0 0 35 35" fill="none" xmlns="http://www.w3.org/2000/svg">
<rect width="35" height="35" rx="17.5" fill="white"/>
<path d="M15.2514 6.75H18.9686V23.7834C17.3818 24.1091 15.7668 24.2771 14.147 24.285C9.60762 24.2803 7.24512 22.2525 7.24512 18.3581C7.24512 14.6081 9.75106 12.1706 13.6351 12.1706C14.1799 12.16 14.7235 12.2231 15.2514 12.3581V6.75ZM15.2514 15.3206C14.8473 15.1873 14.4234 15.1239 13.9979 15.1331C12.1229 15.1331 11.0326 16.2797 11.0326 18.2887C11.0326 20.2453 12.0704 21.3253 13.9745 21.3253C14.4018 21.3252 14.8286 21.2939 15.2514 21.2316V15.3253V15.3206Z" fill="#44B78B"/>
<path d="M24.8749 12.4297V20.9609C24.8749 23.8981 24.6545 25.31 24.0095 26.5278C23.3513 27.7661 22.2749 28.7305 20.9721 29.2494L17.5239 27.6247C18.7766 27.1957 19.8258 26.3176 20.4686 25.16C20.9992 24.1091 21.1671 22.8912 21.1671 19.6878V12.4297H24.8749Z" fill="#44B78B"/>
<path d="M24.8798 6.76953H21.1636V10.5458H24.8798V6.76953Z" fill="#44B78B"/>
</svg>
