<svg width="35" height="35" viewBox="0 0 35 35" fill="none" xmlns="http://www.w3.org/2000/svg">
<rect width="35" height="35" rx="17.5" fill="white"/>
<path d="M27 23.1322C26.2725 23.3144 25.8225 23.1402 25.4188 22.5432L22.5475 18.6306L22.1325 18.0888L18.7794 22.5562C18.3963 23.0937 17.9944 23.3274 17.2794 23.1373L21.5731 17.4603L17.5756 12.3323C18.2631 12.2007 18.7381 12.2676 19.1599 12.8741L22.138 16.8355L25.138 12.8957C25.5223 12.3582 25.9356 12.154 26.6256 12.352L25.0756 14.376L22.9756 17.0692C22.7256 17.377 22.7599 17.5876 22.99 17.8848L27 23.1322ZM7.0051 17.3654L7.35625 15.6639C8.3125 12.2966 12.2313 10.8973 14.9338 12.978C16.5132 14.2017 16.9057 15.9328 16.8276 17.8719H7.92505C7.7914 21.3623 10.342 23.4688 13.5937 22.3941C14.7343 22.0168 15.4062 21.137 15.7425 20.0365C15.9132 19.4849 16.1955 19.3987 16.7218 19.5563C16.4532 20.9328 15.8469 22.0827 14.5656 22.8023C12.6513 23.8795 9.91856 23.5312 8.48125 22.0341C7.6249 21.1654 7.2712 20.0648 7.1125 18.8878C7.08745 18.6932 7.0375 18.5079 7 18.3215C7.0033 18.0029 7.0051 17.6846 7.0051 17.366V17.3654ZM7.94125 17.1316H15.9862C15.9337 14.6077 14.3382 12.815 12.1575 12.7998C9.76376 12.7813 8.0449 14.5313 7.9411 17.1316H7.94125Z" fill="black"/>
</svg>
