<svg width="51" height="51" viewBox="0 0 51 51" fill="none" xmlns="http://www.w3.org/2000/svg">
<g filter="url(#filter0_d_1964_10595)">
<rect x="8" y="4" width="35" height="35" rx="17.5" fill="white"/>
<path d="M35 27.1322C34.2725 27.3144 33.8225 27.1402 33.4188 26.5432L30.5475 22.6306L30.1325 22.0888L26.7794 26.5562C26.3963 27.0937 25.9944 27.3274 25.2794 27.1373L29.5731 21.4603L25.5756 16.3323C26.2631 16.2007 26.7381 16.2676 27.1599 16.8741L30.138 20.8355L33.138 16.8957C33.5223 16.3582 33.9356 16.154 34.6256 16.352L33.0756 18.376L30.9756 21.0692C30.7256 21.377 30.7599 21.5876 30.99 21.8848L35 27.1322ZM15.0051 21.3654L15.3563 19.6639C16.3125 16.2966 20.2313 14.8973 22.9338 16.978C24.5132 18.2017 24.9057 19.9328 24.8276 21.8719H15.9251C15.7914 25.3623 18.342 27.4688 21.5937 26.3941C22.7343 26.0168 23.4062 25.137 23.7425 24.0365C23.9132 23.4849 24.1955 23.3987 24.7218 23.5563C24.4532 24.9328 23.8469 26.0827 22.5656 26.8023C20.6513 27.8795 17.9186 27.5312 16.4813 26.0341C15.6249 25.1654 15.2712 24.0648 15.1125 22.8878C15.0875 22.6932 15.0375 22.5079 15 22.3215C15.0033 22.0029 15.0051 21.6846 15.0051 21.366V21.3654ZM15.9413 21.1316H23.9862C23.9337 18.6077 22.3382 16.815 20.1575 16.7998C17.7638 16.7813 16.0449 18.5313 15.9411 21.1316H15.9413Z" fill="black"/>
</g>
<defs>
<filter id="filter0_d_1964_10595" x="0" y="0" width="51" height="51" filterUnits="userSpaceOnUse" color-interpolation-filters="sRGB">
<feFlood flood-opacity="0" result="BackgroundImageFix"/>
<feColorMatrix in="SourceAlpha" type="matrix" values="0 0 0 0 0 0 0 0 0 0 0 0 0 0 0 0 0 0 127 0" result="hardAlpha"/>
<feOffset dy="4"/>
<feGaussianBlur stdDeviation="4"/>
<feComposite in2="hardAlpha" operator="out"/>
<feColorMatrix type="matrix" values="0 0 0 0 0 0 0 0 0 0 0 0 0 0 0 0 0 0 0.15 0"/>
<feBlend mode="normal" in2="BackgroundImageFix" result="effect1_dropShadow_1964_10595"/>
<feBlend mode="normal" in="SourceGraphic" in2="effect1_dropShadow_1964_10595" result="shape"/>
</filter>
</defs>
</svg>
