<svg width="35" height="35" viewBox="0 0 35 35" fill="none" xmlns="http://www.w3.org/2000/svg">
<rect width="35" height="35" rx="17.5" fill="white"/>
<path d="M8.3833 25.1565L8.53448 24.9448L15.6858 11.3755L15.7009 11.2318L12.5485 5.31041C12.2843 4.81438 11.5408 4.93979 11.4541 5.49506L8.3833 25.1565Z" fill="#FFC24A"/>
<path d="M8.47266 24.9962L8.58702 24.7732L15.6634 11.346L12.5189 5.4005C12.2575 4.90967 11.5938 5.0348 11.5081 5.58424L8.47266 24.9962Z" fill="#FFA712"/>
<g filter="url(#filter0_i_1796_8297)">
<path d="M8.47266 24.9962L8.58702 24.7732L15.6634 11.346L12.5189 5.4005C12.2575 4.90967 11.5938 5.0348 11.5081 5.58424L8.47266 24.9962Z" fill="#EEAB37"/>
</g>
<path d="M17.999 15.7126L20.3463 13.3087L17.9983 8.82648C17.7755 8.4022 17.1531 8.40098 16.9326 8.82648L15.6782 11.2188V11.4226L17.999 15.7126Z" fill="#EEAB37"/>
<path d="M17.9569 15.6116L20.2389 13.2745L17.9569 8.92929C17.7402 8.51682 17.2138 8.4736 16.9994 8.88727L15.7384 11.3167L15.7007 11.4409L17.9569 15.6116Z" fill="#FFA50E"/>
<g filter="url(#filter1_i_1796_8297)">
<path d="M17.9569 15.6116L20.2389 13.2745L17.9569 8.92929C17.7402 8.51682 17.2138 8.4736 16.9994 8.88727L15.7384 11.3167L15.7007 11.4409L17.9569 15.6116Z" fill="#EEAB37"/>
</g>
<path d="M8.3833 25.1556L8.45183 25.0867L8.7008 24.9855L17.8516 15.8687L17.9676 15.5531L15.6848 11.2031L8.3833 25.1556Z" fill="#F6820C"/>
<path d="M18.2922 29.7535L26.5739 25.1347L24.2089 10.5696C24.1349 10.1139 23.5759 9.93372 23.2497 10.2605L8.3833 25.1557L16.6175 29.7531C17.1379 30.0436 17.7717 30.0438 18.2922 29.7535Z" fill="#FDE068"/>
<path d="M26.4996 25.0969L24.1526 10.6423C24.0792 10.1901 23.6143 10.0029 23.2906 10.3272L8.4751 25.1283L16.6189 29.6802C17.1353 29.9685 17.7643 29.9686 18.2808 29.6806L26.4996 25.0969Z" fill="#FCCA3F"/>
<path d="M18.2922 29.6192C17.7717 29.9095 17.1379 29.9094 16.6175 29.6188L8.44962 25.0874L8.3833 25.1575L16.6175 29.7549C17.1379 30.0454 17.7717 30.0456 18.2922 29.7553L26.5739 25.1365L26.5536 25.0117L18.2922 29.6192Z" fill="#EEAB37"/>
<defs>
<filter id="filter0_i_1796_8297" x="8.47266" y="5.09375" width="7.19092" height="19.9023" filterUnits="userSpaceOnUse" color-interpolation-filters="sRGB">
<feFlood flood-opacity="0" result="BackgroundImageFix"/>
<feBlend mode="normal" in="SourceGraphic" in2="BackgroundImageFix" result="shape"/>
<feColorMatrix in="SourceAlpha" type="matrix" values="0 0 0 0 0 0 0 0 0 0 0 0 0 0 0 0 0 0 127 0" result="hardAlpha"/>
<feOffset/>
<feGaussianBlur stdDeviation="17.5"/>
<feComposite in2="hardAlpha" operator="arithmetic" k2="-1" k3="1"/>
<feColorMatrix type="matrix" values="0 0 0 0 0 0 0 0 0 0 0 0 0 0 0 0 0 0 0.06 0"/>
<feBlend mode="normal" in2="shape" result="effect1_innerShadow_1796_8297"/>
</filter>
<filter id="filter1_i_1796_8297" x="15.7007" y="1.59766" width="5.53809" height="14.0156" filterUnits="userSpaceOnUse" color-interpolation-filters="sRGB">
<feFlood flood-opacity="0" result="BackgroundImageFix"/>
<feBlend mode="normal" in="SourceGraphic" in2="BackgroundImageFix" result="shape"/>
<feColorMatrix in="SourceAlpha" type="matrix" values="0 0 0 0 0 0 0 0 0 0 0 0 0 0 0 0 0 0 127 0" result="hardAlpha"/>
<feOffset dx="1" dy="-9"/>
<feGaussianBlur stdDeviation="3.5"/>
<feComposite in2="hardAlpha" operator="arithmetic" k2="-1" k3="1"/>
<feColorMatrix type="matrix" values="0 0 0 0 0 0 0 0 0 0 0 0 0 0 0 0 0 0 0.09 0"/>
<feBlend mode="normal" in2="shape" result="effect1_innerShadow_1796_8297"/>
</filter>
</defs>
</svg>
