<svg width="51" height="51" viewBox="0 0 51 51" fill="none" xmlns="http://www.w3.org/2000/svg">
<g filter="url(#filter0_d_1964_10585)">
<rect x="8" y="4" width="35" height="35" rx="17.5" fill="white"/>
<path d="M26.9979 17.4771L27.0594 17.5181C27.7819 17.9953 28.3 18.6496 28.6408 19.4403C28.7226 19.563 28.668 19.6312 28.5045 19.6721L28.2275 19.7429C27.6015 19.9042 27.1048 20.0398 26.487 20.2011L26.1347 20.2929C26.0078 20.3243 25.9728 20.3111 25.8378 20.1574L25.8188 20.1356C25.6263 19.9175 25.4822 19.7718 25.2272 19.6418L25.1781 19.6176C24.3192 19.1949 23.4876 19.3176 22.7105 19.822C21.7835 20.4219 21.3064 21.308 21.32 22.4123C21.3336 23.5029 22.0834 24.4027 23.1604 24.5526C24.0874 24.6753 24.8645 24.3481 25.478 23.6529C25.6007 23.5029 25.7097 23.3393 25.8461 23.1484H23.2149C22.9287 23.1484 22.8605 22.9712 22.9559 22.7395L23.0032 22.6282C23.1784 22.2206 23.4501 21.6346 23.6266 21.2996L23.6652 21.2275C23.7123 21.1458 23.808 21.0354 23.992 21.0354L28.3792 21.0353C28.5763 20.4111 28.896 19.8212 29.3224 19.2631C30.3176 17.9544 31.5173 17.2727 33.1396 16.9864C34.5301 16.741 35.8389 16.8774 37.0249 17.6817C38.1019 18.4179 38.7699 19.4131 38.9471 20.7218C39.1789 22.5622 38.6472 24.0618 37.3794 25.3433C36.4796 26.2567 35.3754 26.8293 34.1075 27.0883C33.7394 27.1565 33.3713 27.1701 33.0169 27.211C31.7763 27.1837 30.6448 26.8293 29.6905 26.0113C29.0193 25.4311 28.557 24.7181 28.3272 23.8879C28.1678 24.2099 27.9772 24.5183 27.7547 24.8116C26.7731 26.1067 25.4916 26.9111 23.8693 27.1292C22.5333 27.3064 21.2927 27.0474 20.2021 26.2294C19.1933 25.466 18.6207 24.4572 18.4707 23.203C18.2935 21.717 18.7298 20.381 19.6295 19.2086C20.5975 17.9407 21.8789 17.1364 23.4467 16.8501C24.7044 16.6226 25.9097 16.7629 26.9979 17.4771ZM33.4831 19.4306L33.4395 19.4403C32.1717 19.7266 31.3537 20.531 31.0538 21.8124C30.8084 22.8758 31.3264 23.9528 32.308 24.389C33.0578 24.7162 33.8076 24.6753 34.5301 24.3072C35.6071 23.7483 36.1933 22.8758 36.2615 21.7034C36.2479 21.5261 36.2479 21.3898 36.2206 21.2535C35.978 19.919 34.7624 19.1576 33.4831 19.4306ZM17.3665 21.9215C17.421 21.9215 17.4483 21.9624 17.4483 22.0169L17.421 22.3441C17.421 22.3986 17.3665 22.4395 17.3256 22.4395L14.3537 22.4259C14.2991 22.4259 14.2855 22.385 14.3128 22.3441L14.5036 22.0033C14.5309 21.9624 14.5854 21.9215 14.6399 21.9215H17.3665ZM17.6664 20.6673C17.7209 20.6673 17.7482 20.7082 17.7346 20.7491L17.6255 21.0763C17.6119 21.1308 17.5574 21.1581 17.5028 21.1581L11.0545 21.1717C11 21.1717 10.9864 21.1444 11.0136 21.1035L11.2999 20.7354C11.3272 20.6945 11.3953 20.6673 11.4499 20.6673H17.6664ZM18.3753 19.4131C18.4298 19.4131 18.4435 19.454 18.4162 19.4949L18.1845 19.8493C18.1572 19.8902 18.089 19.9311 18.0481 19.9311L13.1131 19.9175C13.0585 19.9175 13.0449 19.8902 13.0722 19.8493L13.3585 19.4812C13.3857 19.4403 13.4539 19.4131 13.5084 19.4131H18.3753Z" fill="#00ACD7"/>
</g>
<defs>
<filter id="filter0_d_1964_10585" x="0" y="0" width="51" height="51" filterUnits="userSpaceOnUse" color-interpolation-filters="sRGB">
<feFlood flood-opacity="0" result="BackgroundImageFix"/>
<feColorMatrix in="SourceAlpha" type="matrix" values="0 0 0 0 0 0 0 0 0 0 0 0 0 0 0 0 0 0 127 0" result="hardAlpha"/>
<feOffset dy="4"/>
<feGaussianBlur stdDeviation="4"/>
<feComposite in2="hardAlpha" operator="out"/>
<feColorMatrix type="matrix" values="0 0 0 0 0 0 0 0 0 0 0 0 0 0 0 0 0 0 0.15 0"/>
<feBlend mode="normal" in2="BackgroundImageFix" result="effect1_dropShadow_1964_10585"/>
<feBlend mode="normal" in="SourceGraphic" in2="effect1_dropShadow_1964_10585" result="shape"/>
</filter>
</defs>
</svg>
