<svg width="35" height="35" viewBox="0 0 35 35" fill="none" xmlns="http://www.w3.org/2000/svg">
<rect width="35" height="35" rx="17.5" fill="white"/>
<path d="M18.9979 13.4771L19.0594 13.5181C19.7819 13.9953 20.3 14.6496 20.6408 15.4403C20.7226 15.563 20.668 15.6312 20.5045 15.6721L20.2275 15.7429C19.6015 15.9042 19.1048 16.0398 18.487 16.2011L18.1347 16.2929C18.0078 16.3243 17.9728 16.3111 17.8378 16.1574L17.8188 16.1356C17.6263 15.9175 17.4822 15.7718 17.2272 15.6418L17.1781 15.6176C16.3192 15.1949 15.4876 15.3176 14.7105 15.822C13.7835 16.4219 13.3064 17.308 13.32 18.4123C13.3336 19.5029 14.0834 20.4027 15.1604 20.5526C16.0874 20.6753 16.8645 20.3481 17.478 19.6529C17.6007 19.5029 17.7097 19.3393 17.8461 19.1484H15.2149C14.9287 19.1484 14.8605 18.9712 14.9559 18.7395L15.0032 18.6282C15.1784 18.2206 15.4501 17.6346 15.6266 17.2996L15.6652 17.2275C15.7123 17.1458 15.808 17.0354 15.992 17.0354L20.3792 17.0353C20.5763 16.4111 20.896 15.8212 21.3224 15.2631C22.3176 13.9544 23.5173 13.2727 25.1396 12.9864C26.5301 12.741 27.8389 12.8774 29.0249 13.6817C30.1019 14.4179 30.7699 15.4131 30.9471 16.7218C31.1789 18.5622 30.6472 20.0618 29.3794 21.3433C28.4796 22.2567 27.3754 22.8293 26.1075 23.0883C25.7394 23.1565 25.3713 23.1701 25.0169 23.211C23.7763 23.1837 22.6448 22.8293 21.6905 22.0113C21.0193 21.4311 20.557 20.7181 20.3272 19.8879C20.1678 20.2099 19.9772 20.5183 19.7547 20.8116C18.7731 22.1067 17.4916 22.9111 15.8693 23.1292C14.5333 23.3064 13.2927 23.0474 12.2021 22.2294C11.1933 21.466 10.6207 20.4572 10.4707 19.203C10.2935 17.717 10.7298 16.381 11.6295 15.2086C12.5975 13.9407 13.8789 13.1364 15.4467 12.8501C16.7044 12.6226 17.9097 12.7629 18.9979 13.4771ZM25.4831 15.4306L25.4395 15.4403C24.1717 15.7266 23.3537 16.531 23.0538 17.8124C22.8084 18.8758 23.3264 19.9528 24.308 20.389C25.0578 20.7162 25.8076 20.6753 26.5301 20.3072C27.6071 19.7483 28.1933 18.8758 28.2615 17.7034C28.2479 17.5261 28.2479 17.3898 28.2206 17.2535C27.978 15.919 26.7624 15.1576 25.4831 15.4306ZM9.36649 17.9215C9.42103 17.9215 9.44829 17.9624 9.44829 18.0169L9.42103 18.3441C9.42103 18.3986 9.36649 18.4395 9.3256 18.4395L6.35366 18.4259C6.29913 18.4259 6.28549 18.385 6.31276 18.3441L6.50362 18.0033C6.53088 17.9624 6.58541 17.9215 6.63994 17.9215H9.36649ZM9.66642 16.6673C9.72095 16.6673 9.74821 16.7082 9.73458 16.7491L9.62552 17.0763C9.61188 17.1308 9.55735 17.1581 9.50282 17.1581L3.05453 17.1717C3 17.1717 2.98637 17.1444 3.01363 17.1035L3.29992 16.7354C3.32719 16.6945 3.39535 16.6673 3.44988 16.6673H9.66642ZM10.3753 15.4131C10.4298 15.4131 10.4435 15.454 10.4162 15.4949L10.1845 15.8493C10.1572 15.8902 10.089 15.9311 10.0481 15.9311L5.11308 15.9175C5.05855 15.9175 5.04491 15.8902 5.07218 15.8493L5.35847 15.4812C5.38573 15.4403 5.4539 15.4131 5.50843 15.4131H10.3753Z" fill="#00ACD7"/>
</svg>
