<svg width="35" height="35" viewBox="0 0 35 35" fill="none" xmlns="http://www.w3.org/2000/svg">
<rect width="35" height="35" rx="17.5" fill="white"/>
<path d="M17.2036 6.54878L7.18408 23.9023L8.08355 24.4217L18.103 7.0681L17.2036 6.54878Z" fill="#E10098"/>
<path d="M27.0163 22.5156H6.97705V23.5543H27.0163V22.5156Z" fill="#E10098"/>
<path d="M7.89286 22.2021L7.37354 23.1016L17.3965 28.8886L17.9158 27.9891L7.89286 22.2021Z" fill="#E10098"/>
<path d="M16.6009 7.11616L16.0815 8.01562L26.1045 13.8026L26.6238 12.9031L16.6009 7.11616Z" fill="#E10098"/>
<path d="M17.3994 7.11536L7.37646 12.9023L7.89579 13.8018L17.9187 8.01482L17.3994 7.11536Z" fill="#E10098"/>
<path d="M16.7994 6.55098L15.8999 7.07031L25.9194 24.4239L26.8189 23.9046L16.7994 6.55098Z" fill="#E10098"/>
<path d="M8.81109 12.2109H7.77246V23.7854H8.81109V12.2109Z" fill="#E10098"/>
<path d="M26.2286 12.2109H25.1899V23.7854H26.2286V12.2109Z" fill="#E10098"/>
<path d="M25.4839 22.627L16.7666 27.6602L17.2203 28.446L25.9376 23.4128L25.4839 22.627Z" fill="#E10098"/>
<path d="M27.6049 24.1263C27.389 24.5014 27.0667 24.8041 26.6787 24.996C26.2907 25.1879 25.8545 25.2603 25.4253 25.2042C24.9961 25.148 24.5932 24.9658 24.2676 24.6806C23.942 24.3954 23.7083 24.02 23.5962 23.6019C23.484 23.1838 23.4984 22.7419 23.6376 22.332C23.7767 21.9221 24.0343 21.5627 24.3778 21.2993C24.7213 21.0359 25.1352 20.8803 25.5671 20.8523C25.9991 20.8242 26.4296 20.9249 26.8043 21.1416C27.3058 21.4317 27.6717 21.9089 27.8218 22.4684C27.9719 23.0279 27.8939 23.6242 27.6049 24.1263Z" fill="#E10098"/>
<path d="M10.1748 14.0638C9.95886 14.4389 9.63651 14.7416 9.2485 14.9335C8.8605 15.1254 8.4243 15.1978 7.9951 15.1417C7.5659 15.0855 7.16301 14.9033 6.83741 14.6181C6.51181 14.3329 6.27815 13.9575 6.166 13.5394C6.05386 13.1213 6.06826 12.6794 6.2074 12.2695C6.34653 11.8596 6.60414 11.5002 6.94762 11.2368C7.2911 10.9734 7.70501 10.8178 8.13695 10.7898C8.56889 10.7617 8.99946 10.8624 9.37414 11.0791C9.8756 11.3692 10.2415 11.8464 10.3916 12.4059C10.5417 12.9654 10.4637 13.5617 10.1748 14.0638Z" fill="#E10098"/>
<path d="M6.39506 24.1266C6.17832 23.7519 6.07761 23.3213 6.10568 22.8894C6.13375 22.4574 6.28934 22.0435 6.55275 21.7001C6.81616 21.3566 7.17555 21.099 7.58543 20.9598C7.99531 20.8207 8.43726 20.8063 8.85533 20.9184C9.27341 21.0306 9.64881 21.2643 9.93403 21.5899C10.2192 21.9154 10.4015 22.3183 10.4576 22.7475C10.5137 23.1767 10.4413 23.6129 10.2494 24.0009C10.0575 24.3889 9.75485 24.7113 9.37968 24.9272C8.87758 25.2162 8.28135 25.2941 7.72182 25.1441C7.16228 24.994 6.68513 24.628 6.39506 24.1266Z" fill="#E10098"/>
<path d="M23.8252 14.0641C23.6085 13.6894 23.5078 13.2588 23.5359 12.8269C23.5639 12.3949 23.7195 11.981 23.9829 11.6376C24.2463 11.2941 24.6057 11.0365 25.0156 10.8973C25.4255 10.7582 25.8674 10.7438 26.2855 10.8559C26.7036 10.9681 27.079 11.2018 27.3642 11.5274C27.6494 11.8529 27.8316 12.2558 27.8878 12.685C27.9439 13.1142 27.8715 13.5504 27.6796 13.9384C27.4877 14.3264 27.185 14.6488 26.8099 14.8647C26.3078 15.1537 25.7115 15.2316 25.152 15.0816C24.5925 14.9315 24.1153 14.5655 23.8252 14.0641Z" fill="#E10098"/>
<path d="M17 30.25C16.5674 30.25 16.1444 30.1217 15.7847 29.8813C15.425 29.641 15.1446 29.2993 14.979 28.8996C14.8134 28.4999 14.7701 28.0601 14.8545 27.6357C14.9389 27.2114 15.1473 26.8216 15.4532 26.5157C15.7591 26.2098 16.1489 26.0014 16.5732 25.917C16.9976 25.8326 17.4374 25.8759 17.8371 26.0415C18.2368 26.2071 18.5785 26.4875 18.8188 26.8472C19.0592 27.2069 19.1875 27.6299 19.1875 28.0625C19.1883 28.35 19.1323 28.6348 19.0226 28.9006C18.913 29.1663 18.7519 29.4078 18.5486 29.6111C18.3453 29.8144 18.1038 29.9755 17.8381 30.0851C17.5723 30.1948 17.2875 30.2508 17 30.25Z" fill="#E10098"/>
<path d="M17 10.1172C16.5674 10.1172 16.1444 9.98889 15.7847 9.74853C15.425 9.50816 15.1446 9.16652 14.979 8.76681C14.8134 8.3671 14.7701 7.92726 14.8545 7.50293C14.9389 7.07859 15.1473 6.68882 15.4532 6.38289C15.7591 6.07697 16.1489 5.86863 16.5732 5.78422C16.9976 5.69982 17.4374 5.74314 17.8371 5.9087C18.2368 6.07427 18.5785 6.35465 18.8188 6.71438C19.0592 7.07411 19.1875 7.49704 19.1875 7.92969C19.1883 8.21718 19.1323 8.502 19.0226 8.76776C18.913 9.03353 18.7519 9.275 18.5486 9.47829C18.3453 9.68158 18.1038 9.84268 17.8381 9.95232C17.5723 10.062 17.2875 10.118 17 10.1172Z" fill="#E10098"/>
</svg>
