<svg width="51" height="51" viewBox="0 0 51 51" fill="none" xmlns="http://www.w3.org/2000/svg">
<g filter="url(#filter0_d_1964_10619)">
<rect x="8" y="4" width="35" height="35" rx="17.5" fill="white"/>
<path d="M25.2036 10.5498L15.1841 27.9033L16.0835 28.4226L26.103 11.0691L25.2036 10.5498Z" fill="#E10098"/>
<path d="M35.0163 26.5166H14.9771V27.5552H35.0163V26.5166Z" fill="#E10098"/>
<path d="M15.8929 26.2006L15.3735 27.1001L25.3965 32.8871L25.9158 31.9876L15.8929 26.2006Z" fill="#E10098"/>
<path d="M24.6009 11.1176L24.0815 12.0171L34.1045 17.8041L34.6238 16.9046L24.6009 11.1176Z" fill="#E10098"/>
<path d="M25.3994 11.1149L15.3765 16.9019L15.8958 17.8013L25.9187 12.0143L25.3994 11.1149Z" fill="#E10098"/>
<path d="M24.7994 10.5495L23.8999 11.0688L33.9194 28.4224L34.8189 27.9031L24.7994 10.5495Z" fill="#E10098"/>
<path d="M16.8111 16.2129H15.7725V27.7874H16.8111V16.2129Z" fill="#E10098"/>
<path d="M34.2286 16.2129H33.1899V27.7874H34.2286V16.2129Z" fill="#E10098"/>
<path d="M33.4839 26.629L24.7666 31.6621L25.2203 32.4479L33.9376 27.4148L33.4839 26.629Z" fill="#E10098"/>
<path d="M35.6049 28.1248C35.389 28.5 35.0667 28.8026 34.6787 28.9945C34.2907 29.1864 33.8545 29.2589 33.4253 29.2027C32.9961 29.1466 32.5932 28.9644 32.2676 28.6791C31.942 28.3939 31.7083 28.0185 31.5962 27.6005C31.484 27.1824 31.4984 26.7404 31.6376 26.3305C31.7767 25.9207 32.0343 25.5613 32.3778 25.2979C32.7213 25.0345 33.1352 24.8789 33.5671 24.8508C33.9991 24.8227 34.4296 24.9234 34.8043 25.1402C35.3058 25.4303 35.6717 25.9074 35.8218 26.4669C35.9719 27.0265 35.8939 27.6227 35.6049 28.1248Z" fill="#E10098"/>
<path d="M18.1748 18.0623C17.9589 18.4375 17.6365 18.7401 17.2485 18.932C16.8605 19.1239 16.4243 19.1964 15.9951 19.1402C15.5659 19.0841 15.163 18.9019 14.8374 18.6166C14.5118 18.3314 14.2782 17.956 14.166 17.538C14.0539 17.1199 14.0683 16.6779 14.2074 16.268C14.3465 15.8582 14.6041 15.4988 14.9476 15.2354C15.2911 14.972 15.705 14.8164 16.137 14.7883C16.5689 14.7602 16.9995 14.8609 17.3741 15.0777C17.8756 15.3678 18.2415 15.8449 18.3916 16.4044C18.5417 16.964 18.4637 17.5602 18.1748 18.0623Z" fill="#E10098"/>
<path d="M14.3951 28.1251C14.1783 27.7504 14.0776 27.3199 14.1057 26.8879C14.1337 26.456 14.2893 26.0421 14.5527 25.6986C14.8162 25.3551 15.1755 25.0975 15.5854 24.9584C15.9953 24.8192 16.4373 24.8048 16.8553 24.917C17.2734 25.0291 17.6488 25.2628 17.934 25.5884C18.2192 25.914 18.4015 26.3169 18.4576 26.7461C18.5137 27.1753 18.4413 27.6115 18.2494 27.9995C18.0575 28.3875 17.7548 28.7098 17.3797 28.9257C16.8776 29.2147 16.2814 29.2927 15.7218 29.1426C15.1623 28.9925 14.6851 28.6266 14.3951 28.1251Z" fill="#E10098"/>
<path d="M31.8252 18.0626C31.6085 17.6879 31.5078 17.2574 31.5359 16.8254C31.5639 16.3935 31.7195 15.9796 31.9829 15.6361C32.2463 15.2926 32.6057 15.035 33.0156 14.8959C33.4255 14.7567 33.8674 14.7423 34.2855 14.8545C34.7036 14.9666 35.079 15.2003 35.3642 15.5259C35.6494 15.8515 35.8316 16.2544 35.8878 16.6836C35.9439 17.1128 35.8715 17.549 35.6796 17.937C35.4877 18.325 35.185 18.6473 34.8099 18.8632C34.3078 19.1522 33.7115 19.2302 33.152 19.0801C32.5925 18.93 32.1153 18.5641 31.8252 18.0626Z" fill="#E10098"/>
<path d="M25 34.25C24.5674 34.25 24.1444 34.1217 23.7847 33.8813C23.425 33.641 23.1446 33.2993 22.979 32.8996C22.8134 32.4999 22.7701 32.0601 22.8545 31.6357C22.9389 31.2114 23.1473 30.8216 23.4532 30.5157C23.7591 30.2098 24.1489 30.0014 24.5732 29.917C24.9976 29.8326 25.4374 29.8759 25.8371 30.0415C26.2368 30.2071 26.5785 30.4875 26.8188 30.8472C27.0592 31.2069 27.1875 31.6299 27.1875 32.0625C27.1883 32.35 27.1323 32.6348 27.0226 32.9006C26.913 33.1663 26.7519 33.4078 26.5486 33.6111C26.3453 33.8144 26.1038 33.9755 25.8381 34.0851C25.5723 34.1948 25.2875 34.2508 25 34.25Z" fill="#E10098"/>
<path d="M25 14.1172C24.5674 14.1172 24.1444 13.9889 23.7847 13.7485C23.425 13.5082 23.1446 13.1665 22.979 12.7668C22.8134 12.3671 22.7701 11.9273 22.8545 11.5029C22.9389 11.0786 23.1473 10.6888 23.4532 10.3829C23.7591 10.077 24.1489 9.86863 24.5732 9.78422C24.9976 9.69982 25.4374 9.74314 25.8371 9.9087C26.2368 10.0743 26.5785 10.3546 26.8188 10.7144C27.0592 11.0741 27.1875 11.497 27.1875 11.9297C27.1883 12.2172 27.1323 12.502 27.0226 12.7678C26.913 13.0335 26.7519 13.275 26.5486 13.4783C26.3453 13.6816 26.1038 13.8427 25.8381 13.9523C25.5723 14.062 25.2875 14.118 25 14.1172Z" fill="#E10098"/>
</g>
<defs>
<filter id="filter0_d_1964_10619" x="0" y="0" width="51" height="51" filterUnits="userSpaceOnUse" color-interpolation-filters="sRGB">
<feFlood flood-opacity="0" result="BackgroundImageFix"/>
<feColorMatrix in="SourceAlpha" type="matrix" values="0 0 0 0 0 0 0 0 0 0 0 0 0 0 0 0 0 0 127 0" result="hardAlpha"/>
<feOffset dy="4"/>
<feGaussianBlur stdDeviation="4"/>
<feComposite in2="hardAlpha" operator="out"/>
<feColorMatrix type="matrix" values="0 0 0 0 0 0 0 0 0 0 0 0 0 0 0 0 0 0 0.15 0"/>
<feBlend mode="normal" in2="BackgroundImageFix" result="effect1_dropShadow_1964_10619"/>
<feBlend mode="normal" in="SourceGraphic" in2="effect1_dropShadow_1964_10619" result="shape"/>
</filter>
</defs>
</svg>
