<svg width="51" height="51" viewBox="0 0 51 51" fill="none" xmlns="http://www.w3.org/2000/svg">
<g filter="url(#filter0_d_1964_10566)">
<rect x="8" y="4" width="35" height="35" rx="17.5" fill="white"/>
<path d="M21.416 26.6974C21.416 26.6974 20.3733 27.2825 22.1591 27.48C24.323 27.7183 25.4288 27.6842 27.8127 27.2496C27.8127 27.2496 28.4408 27.6283 29.3162 27.9565C23.9702 30.165 17.2176 27.8284 21.416 26.6974ZM20.7624 23.8149C20.7624 23.8149 19.5925 24.65 21.3799 24.8285C23.6915 25.0586 25.5165 25.0774 28.6761 24.491C28.6761 24.491 29.1121 24.9181 29.7988 25.1514C23.3364 26.9739 16.1387 25.2949 20.7624 23.8149Z" fill="#0074BD"/>
<path d="M26.2693 18.9242C27.5873 20.3871 25.9237 21.7023 25.9237 21.7023C25.9237 21.7023 29.2681 20.0378 27.7325 17.9524C26.2977 16.0086 25.1979 15.0432 31.1527 11.7129C31.1527 11.7131 21.8053 13.9636 26.2693 18.9242Z" fill="#EA2D2E"/>
<path d="M33.3393 28.8297C33.3393 28.8297 34.1113 29.4435 32.4888 29.9179C29.404 30.8191 19.6468 31.0908 16.937 29.954C15.9633 29.5452 17.7899 28.9784 18.3645 28.8588C18.9637 28.7337 19.3058 28.7565 19.3058 28.7565C18.2223 28.021 12.303 30.2014 16.2995 30.8269C27.1979 32.5304 36.1658 30.0597 33.3393 28.8297ZM21.9181 20.8278C21.9181 20.8278 16.9556 21.9645 20.1609 22.3778C21.5145 22.5524 24.2117 22.5124 26.7258 22.309C28.7799 22.1426 30.8412 21.7871 30.8412 21.7871C30.8412 21.7871 30.1175 22.0865 29.5934 22.4311C24.553 23.7096 14.8182 23.1142 17.621 21.8072C19.9905 20.7021 21.9181 20.8278 21.9181 20.8278ZM30.8206 25.626C35.9439 23.0595 33.5749 20.593 31.9213 20.9253C31.5171 21.0065 31.3358 21.0771 31.3358 21.0771C31.3358 21.0771 31.4862 20.8495 31.7733 20.7517C35.0442 19.6432 37.5594 24.0218 30.7182 25.7561C30.7182 25.7557 30.7968 25.6872 30.8206 25.626Z" fill="#0074BD"/>
<path d="M27.7325 6.33496C27.7325 6.33496 30.5693 9.07209 25.0413 13.2797C20.6081 16.6559 24.0304 18.5805 25.0397 20.7804C22.4517 18.529 20.5534 16.5469 21.8267 14.7022C23.6966 11.995 28.8768 10.682 27.7325 6.33496Z" fill="#EA2D2E"/>
<path d="M22.4218 32.5827C27.3384 32.8858 34.8906 32.4139 35.0693 30.1704C35.0693 30.1704 34.7256 31.0209 31.0056 31.6957C26.8086 32.4576 21.6312 32.3688 18.5615 31.8801C18.5615 31.8803 19.1904 32.3823 22.4218 32.5827Z" fill="#0074BD"/>
</g>
<defs>
<filter id="filter0_d_1964_10566" x="0" y="0" width="51" height="51" filterUnits="userSpaceOnUse" color-interpolation-filters="sRGB">
<feFlood flood-opacity="0" result="BackgroundImageFix"/>
<feColorMatrix in="SourceAlpha" type="matrix" values="0 0 0 0 0 0 0 0 0 0 0 0 0 0 0 0 0 0 127 0" result="hardAlpha"/>
<feOffset dy="4"/>
<feGaussianBlur stdDeviation="4"/>
<feComposite in2="hardAlpha" operator="out"/>
<feColorMatrix type="matrix" values="0 0 0 0 0 0 0 0 0 0 0 0 0 0 0 0 0 0 0.15 0"/>
<feBlend mode="normal" in2="BackgroundImageFix" result="effect1_dropShadow_1964_10566"/>
<feBlend mode="normal" in="SourceGraphic" in2="effect1_dropShadow_1964_10566" result="shape"/>
</filter>
</defs>
</svg>
