<svg width="35" height="35" viewBox="0 0 35 35" fill="none" xmlns="http://www.w3.org/2000/svg">
<rect width="35" height="35" rx="17.5" fill="white"/>
<path d="M13.416 22.6989C13.416 22.6989 12.3733 23.284 14.1591 23.4814C16.323 23.7198 17.4288 23.6856 19.8127 23.2511C19.8127 23.2511 20.4408 23.6297 21.3162 23.958C15.9702 26.1665 9.21757 23.8299 13.416 22.6989ZM12.7624 19.8164C12.7624 19.8164 11.5925 20.6515 13.3799 20.83C15.6915 21.0601 17.5165 21.0789 20.6761 20.4925C20.6761 20.4925 21.1121 20.9196 21.7988 21.1529C15.3364 22.9754 8.1387 21.2963 12.7624 19.8164Z" fill="#0074BD"/>
<path d="M18.2693 14.9262C19.5873 16.389 17.9237 17.7042 17.9237 17.7042C17.9237 17.7042 21.2681 16.0397 19.7325 13.9544C18.2977 12.0106 17.1979 11.0451 23.1527 7.71484C23.1527 7.71505 13.8053 9.96555 18.2693 14.9262Z" fill="#EA2D2E"/>
<path d="M25.3393 24.8297C25.3393 24.8297 26.1113 25.4435 24.4888 25.9179C21.404 26.8191 11.6468 27.0908 8.93697 25.954C7.96331 25.5452 9.78988 24.9784 10.3645 24.8588C10.9637 24.7337 11.3058 24.7565 11.3058 24.7565C10.2223 24.021 4.30297 26.2014 8.29953 26.8269C19.1979 28.5304 28.1658 26.0597 25.3393 24.8297ZM13.9181 16.8278C13.9181 16.8278 8.95556 17.9645 12.1609 18.3778C13.5145 18.5524 16.2117 18.5124 18.7258 18.309C20.7799 18.1426 22.8412 17.7871 22.8412 17.7871C22.8412 17.7871 22.1175 18.0865 21.5934 18.4311C16.553 19.7096 6.81816 19.1142 9.621 17.8072C11.9905 16.7021 13.9181 16.8278 13.9181 16.8278ZM22.8206 21.626C27.9439 19.0595 25.5749 16.593 23.9213 16.9253C23.5171 17.0065 23.3358 17.0771 23.3358 17.0771C23.3358 17.0771 23.4862 16.8495 23.7733 16.7517C27.0442 15.6432 29.5594 20.0218 22.7182 21.7561C22.7182 21.7557 22.7968 21.6872 22.8206 21.626Z" fill="#0074BD"/>
<path d="M19.7325 2.33594C19.7325 2.33594 22.5693 5.07306 17.0413 9.28063C12.6081 12.6569 16.0304 14.5815 17.0397 16.7814C14.4517 14.53 12.5534 12.5478 13.8267 10.7032C15.6966 7.99602 20.8768 6.68294 19.7325 2.33594Z" fill="#EA2D2E"/>
<path d="M14.4218 28.5842C19.3384 28.8873 26.8906 28.4154 27.0693 26.1719C27.0693 26.1719 26.7256 27.0224 23.0056 27.6972C18.8086 28.4591 13.6312 28.3703 10.5615 27.8815C10.5615 27.8817 11.1904 28.3838 14.4218 28.5842Z" fill="#0074BD"/>
</svg>
