<svg width="51" height="51" viewBox="0 0 51 51" fill="none" xmlns="http://www.w3.org/2000/svg">
<g filter="url(#filter0_d_1964_10601)">
<rect x="8" y="4" width="35" height="35" rx="17.5" fill="white"/>
<path d="M25.62 35.9998L24.869 35.7508C24.869 35.7508 24.969 31.9508 23.594 31.6838C22.694 30.6358 23.727 -13.0572 27.017 31.5348C26.3928 31.8514 25.9151 32.3971 25.684 33.0578C25.5601 34.0335 25.5387 35.0196 25.62 35.9998Z" fill="url(#paint0_linear_1964_10601)"/>
<path d="M26.026 32.3292C28.0256 30.824 29.5569 28.7822 30.442 26.4411C31.3271 24.1001 31.5296 21.5559 31.026 19.1042C29.556 12.6192 26.075 10.4872 25.7 9.67324C25.3765 9.16637 25.1003 8.63078 24.875 8.07324L25.152 26.1422C25.152 26.1422 24.578 31.6642 26.026 32.3292Z" fill="url(#paint1_linear_1964_10601)"/>
<path d="M24.4869 32.569C24.4869 32.569 18.3659 28.4 18.7199 21.025C18.7529 18.8016 19.2627 16.6113 20.2148 14.6018C21.1669 12.5924 22.5391 10.8106 24.2389 9.377C24.4375 9.20825 24.5953 8.99668 24.7004 8.75818C24.8056 8.51969 24.8553 8.26047 24.8459 8C25.2269 8.82 25.1649 20.243 25.2049 21.579C25.3599 26.776 24.9159 31.588 24.4869 32.569Z" fill="url(#paint2_linear_1964_10601)"/>
</g>
<defs>
<filter id="filter0_d_1964_10601" x="0" y="0" width="51" height="51" filterUnits="userSpaceOnUse" color-interpolation-filters="sRGB">
<feFlood flood-opacity="0" result="BackgroundImageFix"/>
<feColorMatrix in="SourceAlpha" type="matrix" values="0 0 0 0 0 0 0 0 0 0 0 0 0 0 0 0 0 0 127 0" result="hardAlpha"/>
<feOffset dy="4"/>
<feGaussianBlur stdDeviation="4"/>
<feComposite in2="hardAlpha" operator="out"/>
<feColorMatrix type="matrix" values="0 0 0 0 0 0 0 0 0 0 0 0 0 0 0 0 0 0 0.15 0"/>
<feBlend mode="normal" in2="BackgroundImageFix" result="effect1_dropShadow_1964_10601"/>
<feBlend mode="normal" in="SourceGraphic" in2="effect1_dropShadow_1964_10601" result="shape"/>
</filter>
<linearGradient id="paint0_linear_1964_10601" x1="20.5716" y1="22.2521" x2="29.2033" y2="25.1812" gradientUnits="userSpaceOnUse">
<stop offset="0.231" stop-color="#999875"/>
<stop offset="0.563" stop-color="#9B9977"/>
<stop offset="0.683" stop-color="#A09F7E"/>
<stop offset="0.768" stop-color="#A9A889"/>
<stop offset="0.837" stop-color="#B7B69A"/>
<stop offset="0.896" stop-color="#C9C7B0"/>
<stop offset="0.948" stop-color="#DEDDCB"/>
<stop offset="0.994" stop-color="#F8F6EB"/>
<stop offset="1" stop-color="#FBF9EF"/>
</linearGradient>
<linearGradient id="paint1_linear_1964_10601" x1="23.7369" y1="7.94413" x2="27.553" y2="31.7731" gradientUnits="userSpaceOnUse">
<stop stop-color="#48A547"/>
<stop offset="1" stop-color="#3F9143"/>
</linearGradient>
<linearGradient id="paint2_linear_1964_10601" x1="18.1933" y1="21.755" x2="28.434" y2="18.3254" gradientUnits="userSpaceOnUse">
<stop stop-color="#41A247"/>
<stop offset="0.352" stop-color="#4BA74B"/>
<stop offset="0.956" stop-color="#67B554"/>
<stop offset="1" stop-color="#69B655"/>
</linearGradient>
</defs>
</svg>
