<svg width="35" height="35" viewBox="0 0 35 35" fill="none" xmlns="http://www.w3.org/2000/svg">
<rect width="35" height="35" rx="17.5" fill="white"/>
<path d="M17.62 31.9988L16.869 31.7498C16.869 31.7498 16.969 27.9498 15.594 27.6828C14.694 26.6348 15.727 -17.0582 19.017 27.5338C18.3928 27.8504 17.9151 28.3961 17.684 29.0568C17.5601 30.0326 17.5387 31.0186 17.62 31.9988Z" fill="url(#paint0_linear_1796_8262)"/>
<path d="M18.026 28.3302C20.0256 26.825 21.5569 24.7832 22.442 22.4421C23.3271 20.101 23.5296 17.5568 23.026 15.1052C21.556 8.62022 18.075 6.48822 17.7 5.67422C17.3765 5.16735 17.1003 4.63175 16.875 4.07422L17.152 22.1432C17.152 22.1432 16.578 27.6652 18.026 28.3302Z" fill="url(#paint1_linear_1796_8262)"/>
<path d="M16.4869 28.569C16.4869 28.569 10.3659 24.4 10.7199 17.025C10.7529 14.8016 11.2627 12.6113 12.2148 10.6018C13.1669 8.59237 14.5391 6.81065 16.2389 5.377C16.4375 5.20825 16.5953 4.99668 16.7004 4.75818C16.8056 4.51969 16.8553 4.26047 16.8459 4C17.2269 4.82 17.1649 16.243 17.2049 17.579C17.3599 22.776 16.9159 27.588 16.4869 28.569Z" fill="url(#paint2_linear_1796_8262)"/>
<defs>
<linearGradient id="paint0_linear_1796_8262" x1="12.5716" y1="18.2511" x2="21.2033" y2="21.1802" gradientUnits="userSpaceOnUse">
<stop offset="0.231" stop-color="#999875"/>
<stop offset="0.563" stop-color="#9B9977"/>
<stop offset="0.683" stop-color="#A09F7E"/>
<stop offset="0.768" stop-color="#A9A889"/>
<stop offset="0.837" stop-color="#B7B69A"/>
<stop offset="0.896" stop-color="#C9C7B0"/>
<stop offset="0.948" stop-color="#DEDDCB"/>
<stop offset="0.994" stop-color="#F8F6EB"/>
<stop offset="1" stop-color="#FBF9EF"/>
</linearGradient>
<linearGradient id="paint1_linear_1796_8262" x1="15.7369" y1="3.9451" x2="19.553" y2="27.774" gradientUnits="userSpaceOnUse">
<stop stop-color="#48A547"/>
<stop offset="1" stop-color="#3F9143"/>
</linearGradient>
<linearGradient id="paint2_linear_1796_8262" x1="10.1933" y1="17.755" x2="20.434" y2="14.3254" gradientUnits="userSpaceOnUse">
<stop stop-color="#41A247"/>
<stop offset="0.352" stop-color="#4BA74B"/>
<stop offset="0.956" stop-color="#67B554"/>
<stop offset="1" stop-color="#69B655"/>
</linearGradient>
</defs>
</svg>
