<svg width="35" height="35" viewBox="0 0 35 35" fill="none" xmlns="http://www.w3.org/2000/svg">
<rect width="35" height="35" rx="17.5" fill="white"/>
<path fill-rule="evenodd" clip-rule="evenodd" d="M11.8633 10.3633C11.6563 10.3626 11.4502 10.3889 11.25 10.4414V10.4688H11.2797C11.4231 10.6852 11.5829 10.8902 11.7578 11.082C11.8781 11.3211 11.9828 11.5594 12.1023 11.7984C12.1172 11.7836 12.132 11.768 12.132 11.768C12.243 11.6799 12.3299 11.5651 12.3845 11.4344C12.4392 11.3036 12.4598 11.1612 12.4445 11.0203C12.3791 10.9194 12.3191 10.8151 12.2648 10.7078C12.175 10.5586 11.9805 10.4836 11.8609 10.3641" fill="#5D87A1"/>
<path fill-rule="evenodd" clip-rule="evenodd" d="M26.7032 23.4004C25.7177 23.3312 24.7288 23.474 23.8032 23.8192C23.579 23.909 23.2212 23.909 23.1899 24.1926C23.3102 24.3121 23.3243 24.5051 23.4298 24.6715C23.6344 25.018 23.8974 25.3264 24.2071 25.5832C24.5196 25.8223 24.8321 26.0606 25.1641 26.27C25.7462 26.6301 26.4048 26.8387 26.972 27.1973C27.3016 27.4067 27.6298 27.6754 27.9595 27.9004C28.1235 28.02 28.2274 28.2129 28.4368 28.2911V28.2457C28.3753 28.0797 28.2992 27.9195 28.2095 27.7668C28.0602 27.6184 27.9102 27.4832 27.7602 27.334C27.322 26.7546 26.7977 26.2455 26.2055 25.8246C25.7266 25.495 24.6798 25.0434 24.4868 24.4965L24.4563 24.4661C24.8068 24.4164 25.1521 24.3359 25.4884 24.2254C25.9962 24.0911 26.4595 24.1215 26.9821 23.9911C27.222 23.9309 27.6556 23.7817 27.6556 23.7817V23.5473C27.3884 23.2817 27.197 22.9262 26.9157 22.6754C26.1505 22.0075 25.3351 21.3995 24.4766 20.8567C24.018 20.5606 23.4266 20.37 22.9384 20.1176C22.7618 20.0286 22.4696 19.9848 22.3626 19.8364C22.1197 19.4801 21.9165 19.0984 21.7563 18.6981C21.3282 17.8856 20.9134 16.9848 20.5446 16.1254C20.3263 15.5495 20.0746 14.9868 19.7907 14.4403C18.4207 12.1109 16.4431 10.1979 14.0696 8.9059C13.4707 8.61602 12.834 8.41193 12.1782 8.29965C11.8079 8.28402 11.4391 8.25512 11.0696 8.24105C10.8311 8.08478 10.6042 7.91141 10.3907 7.7223C9.54539 7.18715 7.37352 6.03715 6.75164 7.5598C6.35321 8.52152 7.34383 9.46684 7.68367 9.95512C7.97023 10.2994 8.22272 10.6707 8.43758 11.0637C8.54149 11.3153 8.57117 11.5817 8.67196 11.845C8.88882 12.5208 9.14632 13.183 9.44305 13.8278C9.60175 14.1465 9.78458 14.4526 9.98992 14.7434C10.1095 14.9067 10.3157 14.9778 10.3602 15.2473C10.1964 15.5995 10.0818 15.9725 10.0196 16.3559C9.76137 17.1714 9.66632 18.0299 9.73992 18.8822C9.81351 19.7344 10.0543 20.5639 10.4485 21.3231C10.6829 21.6926 11.247 22.5059 12.0009 22.195C12.6657 21.9293 12.518 21.0864 12.7102 20.3481C12.754 20.1692 12.7251 20.052 12.8134 19.934V20.0778C12.8134 20.0778 13.1907 20.9067 13.3782 21.3278C13.8881 22.1004 14.5216 22.784 15.2532 23.3512C15.5426 23.6039 15.7758 23.9145 15.9376 24.2629V24.5309H16.2712C16.2642 24.4101 16.2307 24.2923 16.1731 24.1859C16.1154 24.0795 16.035 23.9871 15.9376 23.9153C15.664 23.6337 15.4135 23.3306 15.1884 23.009C14.5768 22.1381 14.0375 21.2186 13.5759 20.2598C13.3415 19.7911 13.1438 19.277 12.9563 18.809C12.8704 18.6286 12.8704 18.3559 12.7259 18.2621C12.459 18.5779 12.2274 18.9219 12.0352 19.2879C11.802 20.0278 11.6662 20.795 11.6313 21.57C11.5743 21.5856 11.6024 21.57 11.5743 21.5996C11.1141 21.4786 10.9555 20.9809 10.7821 20.559C10.3341 19.2579 10.2889 17.8519 10.6524 16.5246C10.7524 16.2082 11.186 15.2114 11.0126 14.909C10.9259 14.6207 10.6376 14.4559 10.4798 14.2286C10.2783 13.9227 10.1049 13.5993 9.9618 13.2621C9.61883 12.4215 9.44539 11.484 9.07196 10.6371C8.86524 10.2299 8.62454 9.84071 8.35242 9.47387C8.05142 9.10741 7.78591 8.71319 7.55946 8.29652C7.48758 8.13012 7.3868 7.85824 7.50164 7.67699C7.50939 7.62665 7.53334 7.58019 7.56985 7.54467C7.60636 7.50915 7.65345 7.48649 7.70399 7.48012C7.88992 7.31449 8.42352 7.52543 8.61024 7.61605C9.11208 7.81362 9.59009 8.06703 10.0352 8.37152C10.2368 8.52309 10.7118 8.90668 10.7118 8.90668H10.8524C11.3305 9.01059 11.868 8.93559 12.318 9.07074C13.0757 9.32331 13.7988 9.66976 14.4704 10.102C16.4498 11.3638 18.059 13.1283 19.1337 15.2153C19.3134 15.5582 19.3891 15.8731 19.5532 16.2309C19.8657 16.9653 20.2563 17.7153 20.5688 18.4293C20.8445 19.1358 21.2011 19.808 21.6313 20.4325C21.8548 20.745 22.7524 20.9106 23.1563 21.0746C23.5071 21.196 23.8513 21.3355 24.1876 21.4926C24.6962 21.8051 25.2032 22.1653 25.6821 22.5082C25.9204 22.6879 26.668 23.0614 26.7134 23.3606" fill="#00758F"/>
</svg>
