<svg width="51" height="51" viewBox="0 0 51 51" fill="none" xmlns="http://www.w3.org/2000/svg">
<g filter="url(#filter0_d_1964_10597)">
<rect x="8" y="4" width="35" height="35" rx="17.5" fill="white"/>
<path fill-rule="evenodd" clip-rule="evenodd" d="M19.8633 14.3633C19.6563 14.3626 19.4502 14.3889 19.25 14.4414V14.4688H19.2797C19.4231 14.6852 19.5829 14.8902 19.7578 15.082C19.8781 15.3211 19.9828 15.5594 20.1023 15.7984C20.1172 15.7836 20.132 15.768 20.132 15.768C20.243 15.6799 20.3299 15.5651 20.3845 15.4344C20.4392 15.3036 20.4598 15.1612 20.4445 15.0203C20.3791 14.9194 20.3191 14.8151 20.2648 14.7078C20.175 14.5586 19.9805 14.4836 19.8609 14.3641" fill="#5D87A1"/>
<path fill-rule="evenodd" clip-rule="evenodd" d="M34.7032 27.4009C33.7177 27.3317 32.7288 27.4745 31.8032 27.8197C31.579 27.9095 31.2212 27.9095 31.1899 28.1931C31.3102 28.3126 31.3243 28.5056 31.4298 28.672C31.6344 29.0185 31.8974 29.3269 32.2071 29.5837C32.5196 29.8228 32.8321 30.0611 33.1641 30.2704C33.7462 30.6306 34.4048 30.8392 34.972 31.1978C35.3016 31.4072 35.6298 31.6759 35.9595 31.9009C36.1235 32.0204 36.2274 32.2134 36.4368 32.2915V32.2462C36.3753 32.0802 36.2992 31.9199 36.2095 31.7673C36.0602 31.6189 35.9102 31.4837 35.7602 31.3345C35.322 30.755 34.7977 30.246 34.2055 29.8251C33.7266 29.4954 32.6798 29.0439 32.4868 28.497L32.4563 28.4665C32.8068 28.4169 33.1521 28.3364 33.4884 28.2259C33.9962 28.0915 34.4595 28.122 34.9821 27.9915C35.222 27.9314 35.6556 27.7822 35.6556 27.7822V27.5478C35.3884 27.2822 35.197 26.9267 34.9157 26.6759C34.1505 26.008 33.3351 25.3999 32.4766 24.8572C32.018 24.5611 31.4266 24.3704 30.9384 24.1181C30.7618 24.029 30.4696 23.9853 30.3626 23.8369C30.1197 23.4806 29.9165 23.0989 29.7563 22.6986C29.3282 21.8861 28.9134 20.9853 28.5446 20.1259C28.3263 19.55 28.0746 18.9873 27.7907 18.4408C26.4207 16.1114 24.4431 14.1984 22.0696 12.9064C21.4707 12.6165 20.834 12.4124 20.1782 12.3001C19.8079 12.2845 19.4391 12.2556 19.0696 12.2415C18.8311 12.0853 18.6042 11.9119 18.3907 11.7228C17.5454 11.1876 15.3735 10.0376 14.7516 11.5603C14.3532 12.522 15.3438 13.4673 15.6837 13.9556C15.9702 14.2999 16.2227 14.6712 16.4376 15.0642C16.5415 15.3158 16.5712 15.5822 16.672 15.8454C16.8888 16.5213 17.1463 17.1835 17.443 17.8283C17.6018 18.147 17.7846 18.4531 17.9899 18.7439C18.1095 18.9072 18.3157 18.9783 18.3602 19.2478C18.1964 19.6 18.0818 19.973 18.0196 20.3564C17.7614 21.1719 17.6663 22.0304 17.7399 22.8826C17.8135 23.7349 18.0543 24.5644 18.4485 25.3236C18.6829 25.6931 19.247 26.5064 20.0009 26.1954C20.6657 25.9298 20.518 25.0869 20.7102 24.3486C20.754 24.1697 20.7251 24.0525 20.8134 23.9345V24.0783C20.8134 24.0783 21.1907 24.9072 21.3782 25.3283C21.8881 26.1009 22.5216 26.7845 23.2532 27.3517C23.5426 27.6044 23.7758 27.915 23.9376 28.2634V28.5314H24.2712C24.2642 28.4106 24.2307 28.2928 24.1731 28.1863C24.1154 28.0799 24.035 27.9876 23.9376 27.9158C23.664 27.6342 23.4135 27.3311 23.1884 27.0095C22.5768 26.1386 22.0375 25.2191 21.5759 24.2603C21.3415 23.7915 21.1438 23.2775 20.9563 22.8095C20.8704 22.629 20.8704 22.3564 20.7259 22.2626C20.459 22.5784 20.2274 22.9224 20.0352 23.2884C19.802 24.0283 19.6662 24.7954 19.6313 25.5704C19.5743 25.5861 19.6024 25.5704 19.5743 25.6001C19.1141 25.479 18.9555 24.9814 18.7821 24.5595C18.3341 23.2584 18.2889 21.8524 18.6524 20.5251C18.7524 20.2087 19.186 19.2119 19.0126 18.9095C18.9259 18.6212 18.6376 18.4564 18.4798 18.229C18.2783 17.9232 18.1049 17.5997 17.9618 17.2626C17.6188 16.422 17.4454 15.4845 17.072 14.6376C16.8652 14.2303 16.6245 13.8412 16.3524 13.4744C16.0514 13.1079 15.7859 12.7137 15.5595 12.297C15.4876 12.1306 15.3868 11.8587 15.5016 11.6775C15.5094 11.6271 15.5333 11.5807 15.5698 11.5452C15.6064 11.5096 15.6534 11.487 15.704 11.4806C15.8899 11.315 16.4235 11.5259 16.6102 11.6165C17.1121 11.8141 17.5901 12.0675 18.0352 12.372C18.2368 12.5236 18.7118 12.9072 18.7118 12.9072H18.8524C19.3305 13.0111 19.868 12.9361 20.318 13.0712C21.0757 13.3238 21.7988 13.6702 22.4704 14.1025C24.4498 15.3643 26.059 17.1288 27.1337 19.2158C27.3134 19.5587 27.3891 19.8736 27.5532 20.2314C27.8657 20.9658 28.2563 21.7158 28.5688 22.4298C28.8445 23.1363 29.2011 23.8085 29.6313 24.4329C29.8548 24.7454 30.7524 24.9111 31.1563 25.0751C31.5071 25.1965 31.8513 25.336 32.1876 25.4931C32.6962 25.8056 33.2032 26.1658 33.6821 26.5087C33.9204 26.6884 34.668 27.0619 34.7134 27.3611" fill="#00758F"/>
</g>
<defs>
<filter id="filter0_d_1964_10597" x="0" y="0" width="51" height="51" filterUnits="userSpaceOnUse" color-interpolation-filters="sRGB">
<feFlood flood-opacity="0" result="BackgroundImageFix"/>
<feColorMatrix in="SourceAlpha" type="matrix" values="0 0 0 0 0 0 0 0 0 0 0 0 0 0 0 0 0 0 127 0" result="hardAlpha"/>
<feOffset dy="4"/>
<feGaussianBlur stdDeviation="4"/>
<feComposite in2="hardAlpha" operator="out"/>
<feColorMatrix type="matrix" values="0 0 0 0 0 0 0 0 0 0 0 0 0 0 0 0 0 0 0.15 0"/>
<feBlend mode="normal" in2="BackgroundImageFix" result="effect1_dropShadow_1964_10597"/>
<feBlend mode="normal" in="SourceGraphic" in2="effect1_dropShadow_1964_10597" result="shape"/>
</filter>
</defs>
</svg>
