<svg width="35" height="35" viewBox="0 0 35 35" fill="none" xmlns="http://www.w3.org/2000/svg">
<rect width="35" height="35" rx="17.5" fill="white"/>
<g clip-path="url(#clip0_1796_8242)">
<path d="M19.4867 4.05469C19.2843 4.05469 19.0962 4.09808 18.9227 4.15592C19.2915 4.40178 19.494 4.72718 19.5952 5.09596C19.6024 5.14657 19.6169 5.18273 19.6241 5.23335C19.6314 5.27673 19.6386 5.32012 19.6386 5.36351C19.6675 5.99984 19.4723 6.07938 19.3349 6.45539C19.1252 6.93987 19.183 7.46051 19.4361 7.87991C19.4578 7.93053 19.4867 7.98837 19.5229 8.03899C19.2481 6.20954 20.7738 5.93476 21.0559 5.36351C21.0776 4.86456 20.6654 4.53194 20.34 4.30054C20.0291 4.11254 19.747 4.05469 19.4867 4.05469ZM21.7862 4.46686C21.7573 4.63317 21.779 4.58978 21.7717 4.67656C21.7645 4.7344 21.7645 4.80672 21.7573 4.86456C21.7428 4.92241 21.7284 4.98026 21.7067 5.03811C21.6922 5.09596 21.6705 5.15381 21.6488 5.21165C21.6199 5.2695 21.5982 5.32012 21.5693 5.37797C21.5476 5.4069 21.5331 5.43582 21.5114 5.46474C21.497 5.48643 21.4825 5.50813 21.4681 5.52982C21.4319 5.58044 21.3957 5.63106 21.3596 5.67444C21.3162 5.71783 21.28 5.76844 21.2294 5.8046C21.2294 5.81184 21.2294 5.81184 21.2294 5.81184C21.186 5.848 21.1427 5.89138 21.092 5.92754C20.9402 6.04323 20.7666 6.13001 20.6076 6.23847C20.5569 6.27463 20.5063 6.30355 20.4629 6.34694C20.4123 6.38309 20.3689 6.41925 20.3255 6.46263C20.2749 6.50602 20.2388 6.54941 20.1954 6.60003C20.1592 6.64341 20.1158 6.69403 20.0869 6.74465C20.0508 6.79526 20.0146 6.84588 19.9857 6.8965C19.9567 6.95434 19.9351 7.00496 19.9061 7.06281C19.8845 7.12066 19.8628 7.17128 19.8483 7.22912C19.8266 7.2942 19.8121 7.35205 19.7977 7.4099C19.7904 7.43884 19.7904 7.47498 19.7832 7.5039C19.776 7.53284 19.776 7.56175 19.7688 7.59068C19.7688 7.64853 19.7615 7.71361 19.7615 7.77145C19.7615 7.81484 19.7615 7.85823 19.7688 7.90161C19.7688 7.95946 19.776 8.01731 19.7905 8.08239C19.7977 8.14023 19.8122 8.19808 19.8266 8.25593C19.8483 8.31378 19.8628 8.37163 19.8845 8.42948C19.8989 8.46564 19.9206 8.50179 19.9351 8.53071L18.272 7.88715C17.9899 7.80761 17.7152 7.7353 17.4332 7.67022C17.2813 7.63407 17.1294 7.59791 16.9776 7.56175C16.5437 7.47498 16.1026 7.4099 15.6615 7.36652C15.6471 7.36652 15.6399 7.35928 15.6254 7.35928C15.1915 7.31589 14.7649 7.2942 14.331 7.2942C14.0129 7.2942 13.6947 7.30865 13.3838 7.33035C12.9427 7.35929 12.5016 7.41712 12.0605 7.48943C11.952 7.50388 11.8436 7.52559 11.7351 7.54728C11.5109 7.59067 11.294 7.64129 11.0843 7.6919C10.9758 7.72084 10.8674 7.74975 10.7589 7.77868C10.6504 7.82206 10.5492 7.87268 10.448 7.91607C10.3684 7.95222 10.2889 7.98838 10.2093 8.02453C10.1949 8.03177 10.1804 8.03177 10.1732 8.03898C10.1009 8.07514 10.0358 8.10406 9.97072 8.14022C9.94902 8.14746 9.93456 8.15467 9.9201 8.16191C9.84056 8.19807 9.76101 8.24145 9.69593 8.27761C9.64532 8.2993 9.5947 8.32823 9.55131 8.34992C9.52962 8.36437 9.5007 8.37885 9.48623 8.38607C9.42115 8.42223 9.35607 8.45838 9.29823 8.49454C9.23315 8.53069 9.1753 8.56685 9.12468 8.603C9.07407 8.63916 9.02345 8.66808 8.98006 8.70424C8.97282 8.71148 8.96561 8.71148 8.95837 8.71869C8.91498 8.74762 8.86436 8.78377 8.82098 8.81993C8.82098 8.81993 8.81374 8.82716 8.80653 8.83438C8.77037 8.86331 8.73422 8.89222 8.69806 8.92115C8.68361 8.92839 8.66913 8.94284 8.65467 8.95008C8.61852 8.97902 8.58237 9.01516 8.54621 9.04409C8.53897 9.05854 8.52452 9.06578 8.51728 9.07302C8.47389 9.11641 8.4305 9.15256 8.38712 9.19595C8.37987 9.19595 8.37987 9.20319 8.37266 9.2104C8.32928 9.24656 8.28589 9.28994 8.24251 9.33333C8.23526 9.34057 8.23526 9.34778 8.22805 9.34778C8.1919 9.38393 8.15575 9.42009 8.11959 9.46347C8.10514 9.47793 8.08343 9.49241 8.06897 9.50686C8.03282 9.55025 7.98943 9.59363 7.94605 9.63702C7.9388 9.65147 7.92435 9.65871 7.91711 9.67318C7.85926 9.73103 7.80864 9.78887 7.7508 9.84672C7.74355 9.85396 7.73634 9.86117 7.7291 9.86841C7.6134 9.99134 7.49048 10.1143 7.36032 10.2227C7.23016 10.3384 7.09277 10.4469 6.95538 10.5409C6.81076 10.6421 6.67337 10.7289 6.52152 10.8157C6.3769 10.8952 6.22504 10.9675 6.06596 11.0326C5.91411 11.0977 5.75503 11.1555 5.59594 11.2062C5.29224 11.2712 4.9813 11.3942 4.71376 11.4159C4.65591 11.4159 4.59083 11.4303 4.53298 11.4375C4.4679 11.452 4.41005 11.4665 4.35221 11.4809C4.29436 11.5026 4.23651 11.5243 4.17866 11.546C4.12081 11.5677 4.06296 11.5966 4.00512 11.6256C3.9545 11.6617 3.89665 11.6906 3.84603 11.7268C3.79542 11.7629 3.7448 11.8063 3.70141 11.8497C3.65079 11.8859 3.60018 11.9365 3.55679 11.9799C3.5134 12.0305 3.47002 12.0739 3.43386 12.1245C3.39771 12.1823 3.35432 12.233 3.3254 12.2908C3.28924 12.3414 3.25309 12.3993 3.22416 12.4571C3.19523 12.5222 3.16631 12.5801 3.14462 12.6451C3.12293 12.703 3.10123 12.7681 3.07954 12.8331C3.06509 12.891 3.0506 12.9488 3.04339 13.0067C3.04339 13.0139 3.03614 13.0211 3.03614 13.0284C3.02169 13.0935 3.02169 13.1802 3.01445 13.2236C3.00721 13.2742 3 13.3176 3 13.3682C3 13.3972 3 13.4333 3.00724 13.4622C3.01448 13.5129 3.02169 13.5562 3.03618 13.5996C3.05063 13.643 3.06511 13.6864 3.08679 13.7298C3.08679 13.737 3.08679 13.737 3.08679 13.737C3.10849 13.7804 3.13741 13.8238 3.16633 13.8672C3.19527 13.9106 3.22419 13.954 3.26034 13.9974C3.29649 14.0335 3.33988 14.0769 3.38327 14.113C3.42665 14.1564 3.47004 14.1926 3.52066 14.2287C3.6942 14.3806 3.73759 14.4312 3.96175 14.5469C3.9979 14.5686 4.03406 14.5831 4.07745 14.6048C4.08469 14.6048 4.0919 14.612 4.09914 14.612C4.09914 14.6264 4.09914 14.6337 4.10639 14.6482C4.11363 14.706 4.12808 14.7639 4.14254 14.8217C4.15699 14.8868 4.1787 14.9446 4.20039 14.9952C4.22208 15.0386 4.23655 15.082 4.25824 15.1254C4.26548 15.1399 4.27269 15.1543 4.27993 15.1616C4.30887 15.2194 4.33778 15.27 4.3667 15.3206C4.40286 15.3713 4.43901 15.4219 4.47517 15.4725C4.51132 15.5159 4.55471 15.5665 4.5981 15.6099C4.64148 15.6533 4.68487 15.6894 4.73549 15.7328C4.73549 15.7328 4.74273 15.7401 4.74994 15.7401C4.79333 15.7762 4.83671 15.8124 4.8801 15.8413C4.93071 15.8775 4.98133 15.9064 5.03918 15.9353C5.0898 15.9642 5.14765 15.9931 5.20549 16.0148C5.24888 16.0365 5.2995 16.051 5.35011 16.0655C5.35736 16.0727 5.36457 16.0727 5.37905 16.0799C5.40799 16.0872 5.44413 16.0944 5.47305 16.1016C5.45136 16.4921 5.44412 16.8609 5.50199 16.991C5.56706 17.1356 5.88523 16.6946 6.2034 16.1884C6.16001 16.6873 6.13109 17.273 6.2034 17.4466C6.28294 17.6274 6.7168 17.0633 7.09282 16.4415C12.2196 15.2556 16.8981 18.7988 17.3898 23.8027C17.2958 23.0217 16.3341 22.5879 15.893 22.6963C15.6761 23.2314 15.3073 23.9184 14.7143 24.345C14.765 23.8677 14.7433 23.376 14.642 22.8988C14.4829 23.564 14.172 24.1859 13.7454 24.721C13.0584 24.7716 12.3715 24.439 12.0099 23.9401C11.981 23.9184 11.9738 23.875 11.9521 23.8461C11.9304 23.7954 11.9087 23.7448 11.8942 23.6942C11.8725 23.6436 11.8581 23.593 11.8508 23.5423C11.8436 23.4917 11.8436 23.4411 11.8436 23.3833C11.8436 23.3471 11.8436 23.311 11.8436 23.2748C11.8508 23.2242 11.8653 23.1736 11.8798 23.1229C11.8942 23.0723 11.9087 23.0217 11.9304 22.9711C11.9593 22.9205 11.981 22.8699 12.0171 22.8192C12.1401 22.4721 12.1401 22.1901 11.9159 22.0238C11.8725 21.9949 11.8291 21.9732 11.7785 21.9515C11.7496 21.9443 11.7134 21.9298 11.6845 21.9226C11.6628 21.9153 11.6484 21.9081 11.6267 21.9009C11.576 21.8864 11.5254 21.872 11.4748 21.8647C11.4242 21.8503 11.3736 21.843 11.323 21.843C11.2723 21.8358 11.2145 21.8286 11.1639 21.8286C11.1277 21.8286 11.0916 21.8358 11.0554 21.8358C10.9976 21.8358 10.9469 21.8431 10.8963 21.8575C10.8457 21.8648 10.7951 21.872 10.7445 21.8865C10.6939 21.9009 10.6432 21.9154 10.5926 21.9371C10.542 21.9588 10.4986 21.9805 10.448 22.0022C10.4046 22.0238 10.3612 22.0528 10.3106 22.0745C8.62578 23.1736 9.6309 25.7478 10.7806 26.4926C10.3468 26.5722 9.90568 26.6662 9.78275 26.7602C9.77551 26.7674 9.7683 26.7746 9.7683 26.7746C10.0792 26.9626 10.4046 27.1217 10.7445 27.2591C11.2073 27.411 11.699 27.5484 11.9159 27.6062V27.6134C12.5161 27.7364 13.1235 27.7798 13.7381 27.7436C16.9415 27.5194 19.5664 25.0826 20.0436 21.872C20.0581 21.9371 20.0725 21.9949 20.087 22.06C20.1087 22.1902 20.1376 22.3275 20.1521 22.4649C20.1521 22.4649 20.1521 22.4649 20.1521 22.4722C20.1665 22.5373 20.1738 22.6023 20.181 22.6602C20.181 22.6746 20.181 22.6819 20.181 22.6891C20.1883 22.7542 20.1955 22.8193 20.1955 22.8771C20.2027 22.9567 20.2099 23.0362 20.2099 23.1158C20.2099 23.1519 20.2099 23.1881 20.2099 23.2315C20.2099 23.2676 20.2172 23.311 20.2172 23.3472C20.2172 23.3905 20.2099 23.4339 20.2099 23.4773C20.2099 23.5135 20.2099 23.5496 20.2099 23.5785C20.2099 23.6292 20.2027 23.6726 20.2027 23.7232C20.2027 23.7521 20.2027 23.781 20.1954 23.8172C20.1954 23.8678 20.1882 23.9184 20.1882 23.9763C20.1809 23.9979 20.1809 24.0196 20.1809 24.0413C20.1737 24.0992 20.1665 24.1498 20.1592 24.2077C20.1592 24.2293 20.1592 24.251 20.152 24.2727C20.1447 24.345 20.1303 24.4101 20.1231 24.4824V24.4897V24.4969C20.1086 24.562 20.0941 24.6343 20.0797 24.6994C20.0797 24.7066 20.0797 24.7138 20.0797 24.7211C20.0652 24.7862 20.0507 24.8512 20.0363 24.9163C20.0363 24.9236 20.0291 24.938 20.0291 24.9453C20.0146 25.0103 20.0001 25.0754 19.9784 25.1405C19.9784 25.1477 19.9784 25.1549 19.9784 25.1622C19.9567 25.2345 19.9351 25.2996 19.9206 25.3647C19.9133 25.3719 19.9133 25.3791 19.9133 25.3791C19.8917 25.4514 19.87 25.5237 19.8483 25.596C19.8193 25.6684 19.7977 25.7334 19.7687 25.8057C19.7398 25.878 19.7181 25.9504 19.6892 26.0154C19.6602 26.0878 19.6313 26.1528 19.6024 26.2251H19.5952C19.5662 26.2902 19.5373 26.3625 19.5012 26.4276C19.4939 26.4493 19.4867 26.4638 19.4795 26.4782C19.4722 26.4855 19.4722 26.4927 19.465 26.4999C18.995 27.4472 18.3008 28.2788 17.4331 28.9296C17.3752 28.9657 17.3174 29.0091 17.2595 29.0525C17.2451 29.0669 17.2234 29.0742 17.2089 29.0886C17.1583 29.1248 17.1077 29.1609 17.0498 29.1971L17.0715 29.2405H17.0788C17.18 29.226 17.2812 29.2115 17.3825 29.1971H17.3897C17.5777 29.1682 17.7657 29.132 17.9537 29.0959C18.0044 29.0886 18.0622 29.0742 18.1128 29.0597C18.149 29.0525 18.1779 29.0453 18.2141 29.038C18.2647 29.0308 18.3153 29.0163 18.3659 29.0091C18.4093 28.9946 18.4527 28.9874 18.4961 28.9729C19.2192 28.7994 19.9206 28.5607 20.5931 28.2787C19.4433 29.8479 17.9031 31.1133 16.1026 31.9449C16.9342 31.887 17.7657 31.7496 18.5684 31.5182C21.4825 30.6578 23.9338 28.6981 25.4017 26.0588C25.1052 27.7292 24.44 29.32 23.4566 30.7084C24.158 30.2456 24.8015 29.7105 25.3873 29.1031C27.007 27.411 28.07 25.2634 28.4315 22.9567C28.6774 24.0992 28.7497 25.2779 28.6412 26.4421C33.862 19.1604 29.0751 11.6112 27.0721 9.62265C27.0648 9.6082 27.0576 9.60096 27.0576 9.5865C27.0504 9.59374 27.0504 9.59374 27.0504 9.60095C27.0504 9.59371 27.0504 9.59371 27.0431 9.5865C27.0431 9.67327 27.0359 9.76004 27.0287 9.84681C27.007 10.0131 26.9853 10.1722 26.9564 10.3313C26.9202 10.4904 26.8768 10.6495 26.8335 10.8085C26.7828 10.9604 26.725 11.1195 26.6599 11.2713C26.5948 11.4159 26.5225 11.5678 26.443 11.7124C26.3634 11.8498 26.2767 11.9944 26.1827 12.1246C26.0887 12.262 25.9874 12.3921 25.8862 12.5151C25.7777 12.6452 25.662 12.7609 25.5463 12.8766C25.474 12.9417 25.4089 12.9995 25.3366 13.0574C25.2788 13.108 25.2282 13.1514 25.1703 13.202C25.0402 13.3033 24.91 13.3973 24.7654 13.484C24.628 13.5708 24.4834 13.6576 24.3388 13.7299C24.1869 13.8022 24.035 13.8673 23.8832 13.9324C23.7313 13.9902 23.5723 14.0408 23.4132 14.0842C23.2541 14.1276 23.0878 14.1637 22.9287 14.1927C22.7624 14.2216 22.5961 14.2361 22.437 14.2505C22.3213 14.2578 22.2056 14.265 22.0899 14.265C21.9236 14.265 21.7573 14.2505 21.5982 14.236C21.4319 14.2216 21.2656 14.1999 21.1065 14.1637C20.9402 14.1348 20.7811 14.0914 20.622 14.0408H20.6148C20.7738 14.0263 20.9329 14.0119 21.092 13.9829C21.2583 13.954 21.4174 13.9179 21.5765 13.8745C21.7356 13.8311 21.8946 13.7805 22.0465 13.7226C22.2056 13.6648 22.3574 13.5925 22.5021 13.5202C22.6539 13.4478 22.7913 13.3683 22.9359 13.2815C23.0733 13.1875 23.2107 13.0935 23.3409 12.9923C23.471 12.8911 23.5939 12.7826 23.7096 12.6669C23.8326 12.5584 23.941 12.4355 24.0495 12.3126C24.158 12.1824 24.2592 12.0523 24.3532 11.9221C24.3677 11.9004 24.3821 11.8715 24.3966 11.8498C24.4689 11.7341 24.5412 11.6184 24.6063 11.5027C24.6858 11.3581 24.7581 11.2135 24.8232 11.0616C24.8883 10.9098 24.9461 10.7579 24.9968 10.5988C25.0474 10.447 25.0835 10.2879 25.1197 10.1288C25.1486 9.96249 25.1775 9.8034 25.192 9.64432C25.2065 9.47801 25.2209 9.31169 25.2209 9.15261C25.2209 9.03691 25.2137 8.92122 25.2065 8.80552C25.192 8.63921 25.1703 8.48012 25.1486 8.32104C25.1197 8.15473 25.0836 7.99565 25.0402 7.83656C24.9896 7.68471 24.9389 7.52563 24.8811 7.37378C24.8232 7.22192 24.7509 7.07007 24.6786 6.92545C24.5991 6.78083 24.5195 6.63621 24.4328 6.49882C24.3388 6.36143 24.2448 6.23127 24.1435 6.10111C24.0351 5.97818 23.9266 5.85526 23.8109 5.73233C23.753 5.67448 23.688 5.6094 23.6229 5.55156C23.2975 5.29847 22.9576 5.05984 22.6178 4.84291C22.5672 4.81398 22.5238 4.79229 22.4732 4.7706C22.2345 4.61875 22.0104 4.53921 21.7862 4.4669L21.7862 4.46686Z" fill="#E0234E"/>
</g>
<defs>
<clipPath id="clip0_1796_8242">
<rect width="28" height="28" fill="white" transform="translate(3 4)"/>
</clipPath>
</defs>
</svg>
