<svg width="51" height="51" viewBox="0 0 51 51" fill="none" xmlns="http://www.w3.org/2000/svg">
<g filter="url(#filter0_d_1964_10581)">
<rect x="8" y="4" width="35" height="35" rx="17.5" fill="white"/>
<g clip-path="url(#clip0_1964_10581)">
<path d="M27.4867 8.05469C27.2843 8.05469 27.0962 8.09808 26.9227 8.15592C27.2915 8.40178 27.494 8.72718 27.5952 9.09596C27.6024 9.14657 27.6169 9.18273 27.6241 9.23335C27.6314 9.27673 27.6386 9.32012 27.6386 9.36351C27.6675 9.99984 27.4723 10.0794 27.3349 10.4554C27.1252 10.9399 27.183 11.4605 27.4361 11.8799C27.4578 11.9305 27.4867 11.9884 27.5229 12.039C27.2481 10.2095 28.7738 9.93476 29.0559 9.36351C29.0776 8.86456 28.6654 8.53194 28.34 8.30054C28.0291 8.11254 27.747 8.05469 27.4867 8.05469ZM29.7862 8.46686C29.7573 8.63317 29.779 8.58978 29.7717 8.67656C29.7645 8.7344 29.7645 8.80672 29.7573 8.86456C29.7428 8.92241 29.7284 8.98026 29.7067 9.03811C29.6922 9.09596 29.6705 9.15381 29.6488 9.21165C29.6199 9.2695 29.5982 9.32012 29.5693 9.37797C29.5476 9.4069 29.5331 9.43582 29.5114 9.46474C29.497 9.48643 29.4825 9.50813 29.4681 9.52982C29.4319 9.58044 29.3957 9.63106 29.3596 9.67444C29.3162 9.71783 29.28 9.76844 29.2294 9.8046C29.2294 9.81184 29.2294 9.81184 29.2294 9.81184C29.186 9.848 29.1427 9.89138 29.092 9.92754C28.9402 10.0432 28.7666 10.13 28.6076 10.2385C28.5569 10.2746 28.5063 10.3036 28.4629 10.3469C28.4123 10.3831 28.3689 10.4192 28.3255 10.4626C28.2749 10.506 28.2388 10.5494 28.1954 10.6C28.1592 10.6434 28.1158 10.694 28.0869 10.7446C28.0508 10.7953 28.0146 10.8459 27.9857 10.8965C27.9567 10.9543 27.9351 11.005 27.9061 11.0628C27.8845 11.1207 27.8628 11.1713 27.8483 11.2291C27.8266 11.2942 27.8121 11.3521 27.7977 11.4099C27.7904 11.4388 27.7904 11.475 27.7832 11.5039C27.776 11.5328 27.776 11.5618 27.7688 11.5907C27.7688 11.6485 27.7615 11.7136 27.7615 11.7715C27.7615 11.8148 27.7615 11.8582 27.7688 11.9016C27.7688 11.9595 27.776 12.0173 27.7905 12.0824C27.7977 12.1402 27.8122 12.1981 27.8266 12.2559C27.8483 12.3138 27.8628 12.3716 27.8845 12.4295C27.8989 12.4656 27.9206 12.5018 27.9351 12.5307L26.272 11.8871C25.9899 11.8076 25.7152 11.7353 25.4332 11.6702C25.2813 11.6341 25.1294 11.5979 24.9776 11.5618C24.5437 11.475 24.1026 11.4099 23.6615 11.3665C23.6471 11.3665 23.6399 11.3593 23.6254 11.3593C23.1915 11.3159 22.7649 11.2942 22.331 11.2942C22.0129 11.2942 21.6947 11.3086 21.3838 11.3304C20.9427 11.3593 20.5016 11.4171 20.0605 11.4894C19.952 11.5039 19.8436 11.5256 19.7351 11.5473C19.5109 11.5907 19.294 11.6413 19.0843 11.6919C18.9758 11.7208 18.8674 11.7498 18.7589 11.7787C18.6504 11.8221 18.5492 11.8727 18.448 11.9161C18.3684 11.9522 18.2889 11.9884 18.2093 12.0245C18.1949 12.0318 18.1804 12.0318 18.1732 12.039C18.1009 12.0751 18.0358 12.1041 17.9707 12.1402C17.949 12.1475 17.9346 12.1547 17.9201 12.1619C17.8406 12.1981 17.761 12.2415 17.6959 12.2776C17.6453 12.2993 17.5947 12.3282 17.5513 12.3499C17.5296 12.3644 17.5007 12.3789 17.4862 12.3861C17.4212 12.4222 17.3561 12.4584 17.2982 12.4945C17.2331 12.5307 17.1753 12.5668 17.1247 12.603C17.0741 12.6392 17.0234 12.6681 16.9801 12.7042C16.9728 12.7115 16.9656 12.7115 16.9584 12.7187C16.915 12.7476 16.8644 12.7838 16.821 12.8199C16.821 12.8199 16.8137 12.8272 16.8065 12.8344C16.7704 12.8633 16.7342 12.8922 16.6981 12.9211C16.6836 12.9284 16.6691 12.9428 16.6547 12.9501C16.6185 12.979 16.5824 13.0152 16.5462 13.0441C16.539 13.0585 16.5245 13.0658 16.5173 13.073C16.4739 13.1164 16.4305 13.1526 16.3871 13.196C16.3799 13.196 16.3799 13.2032 16.3727 13.2104C16.3293 13.2466 16.2859 13.2899 16.2425 13.3333C16.2353 13.3406 16.2353 13.3478 16.2281 13.3478C16.1919 13.3839 16.1557 13.4201 16.1196 13.4635C16.1051 13.4779 16.0834 13.4924 16.069 13.5069C16.0328 13.5502 15.9894 13.5936 15.946 13.637C15.9388 13.6515 15.9244 13.6587 15.9171 13.6732C15.8593 13.731 15.8086 13.7889 15.7508 13.8467C15.7436 13.854 15.7363 13.8612 15.7291 13.8684C15.6134 13.9913 15.4905 14.1143 15.3603 14.2227C15.2302 14.3384 15.0928 14.4469 14.9554 14.5409C14.8108 14.6421 14.6734 14.7289 14.5215 14.8157C14.3769 14.8952 14.225 14.9675 14.066 15.0326C13.9141 15.0977 13.755 15.1555 13.5959 15.2062C13.2922 15.2712 12.9813 15.3942 12.7138 15.4159C12.6559 15.4159 12.5908 15.4303 12.533 15.4375C12.4679 15.452 12.4101 15.4665 12.3522 15.4809C12.2944 15.5026 12.2365 15.5243 12.1787 15.546C12.1208 15.5677 12.063 15.5966 12.0051 15.6256C11.9545 15.6617 11.8967 15.6906 11.846 15.7268C11.7954 15.7629 11.7448 15.8063 11.7014 15.8497C11.6508 15.8859 11.6002 15.9365 11.5568 15.9799C11.5134 16.0305 11.47 16.0739 11.4339 16.1245C11.3977 16.1823 11.3543 16.233 11.3254 16.2908C11.2892 16.3414 11.2531 16.3993 11.2242 16.4571C11.1952 16.5222 11.1663 16.5801 11.1446 16.6451C11.1229 16.703 11.1012 16.7681 11.0795 16.8331C11.0651 16.891 11.0506 16.9488 11.0434 17.0067C11.0434 17.0139 11.0361 17.0211 11.0361 17.0284C11.0217 17.0935 11.0217 17.1802 11.0145 17.2236C11.0072 17.2742 11 17.3176 11 17.3682C11 17.3972 11 17.4333 11.0072 17.4622C11.0145 17.5129 11.0217 17.5562 11.0362 17.5996C11.0506 17.643 11.0651 17.6864 11.0868 17.7298C11.0868 17.737 11.0868 17.737 11.0868 17.737C11.1085 17.7804 11.1374 17.8238 11.1663 17.8672C11.1953 17.9106 11.2242 17.954 11.2603 17.9974C11.2965 18.0335 11.3399 18.0769 11.3833 18.113C11.4267 18.1564 11.47 18.1926 11.5207 18.2287C11.6942 18.3806 11.7376 18.4312 11.9618 18.5469C11.9979 18.5686 12.0341 18.5831 12.0774 18.6048C12.0847 18.6048 12.0919 18.612 12.0991 18.612C12.0991 18.6264 12.0991 18.6337 12.1064 18.6482C12.1136 18.706 12.1281 18.7639 12.1425 18.8217C12.157 18.8868 12.1787 18.9446 12.2004 18.9952C12.2221 19.0386 12.2365 19.082 12.2582 19.1254C12.2655 19.1399 12.2727 19.1543 12.2799 19.1616C12.3089 19.2194 12.3378 19.27 12.3667 19.3206C12.4029 19.3713 12.439 19.4219 12.4752 19.4725C12.5113 19.5159 12.5547 19.5665 12.5981 19.6099C12.6415 19.6533 12.6849 19.6894 12.7355 19.7328C12.7355 19.7328 12.7427 19.7401 12.7499 19.7401C12.7933 19.7762 12.8367 19.8124 12.8801 19.8413C12.9307 19.8775 12.9813 19.9064 13.0392 19.9353C13.0898 19.9642 13.1476 19.9931 13.2055 20.0148C13.2489 20.0365 13.2995 20.051 13.3501 20.0655C13.3574 20.0727 13.3646 20.0727 13.3791 20.0799C13.408 20.0872 13.4441 20.0944 13.4731 20.1016C13.4514 20.4921 13.4441 20.8609 13.502 20.991C13.5671 21.1356 13.8852 20.6946 14.2034 20.1884C14.16 20.6873 14.1311 21.273 14.2034 21.4466C14.2829 21.6274 14.7168 21.0633 15.0928 20.4415C20.2196 19.2556 24.8981 22.7988 25.3898 27.8027C25.2958 27.0217 24.3341 26.5879 23.893 26.6963C23.6761 27.2314 23.3073 27.9184 22.7143 28.345C22.765 27.8677 22.7433 27.376 22.642 26.8988C22.4829 27.564 22.172 28.1859 21.7454 28.721C21.0584 28.7716 20.3715 28.439 20.0099 27.9401C19.981 27.9184 19.9738 27.875 19.9521 27.8461C19.9304 27.7954 19.9087 27.7448 19.8942 27.6942C19.8725 27.6436 19.8581 27.593 19.8508 27.5423C19.8436 27.4917 19.8436 27.4411 19.8436 27.3833C19.8436 27.3471 19.8436 27.311 19.8436 27.2748C19.8508 27.2242 19.8653 27.1736 19.8798 27.1229C19.8942 27.0723 19.9087 27.0217 19.9304 26.9711C19.9593 26.9205 19.981 26.8699 20.0171 26.8192C20.1401 26.4721 20.1401 26.1901 19.9159 26.0238C19.8725 25.9949 19.8291 25.9732 19.7785 25.9515C19.7496 25.9443 19.7134 25.9298 19.6845 25.9226C19.6628 25.9153 19.6484 25.9081 19.6267 25.9009C19.576 25.8864 19.5254 25.872 19.4748 25.8647C19.4242 25.8503 19.3736 25.843 19.323 25.843C19.2723 25.8358 19.2145 25.8286 19.1639 25.8286C19.1277 25.8286 19.0916 25.8358 19.0554 25.8358C18.9976 25.8358 18.9469 25.8431 18.8963 25.8575C18.8457 25.8648 18.7951 25.872 18.7445 25.8865C18.6939 25.9009 18.6432 25.9154 18.5926 25.9371C18.542 25.9588 18.4986 25.9805 18.448 26.0022C18.4046 26.0238 18.3612 26.0528 18.3106 26.0745C16.6258 27.1736 17.6309 29.7478 18.7806 30.4926C18.3468 30.5722 17.9057 30.6662 17.7828 30.7602C17.7755 30.7674 17.7683 30.7746 17.7683 30.7746C18.0792 30.9626 18.4046 31.1217 18.7445 31.2591C19.2073 31.411 19.699 31.5484 19.9159 31.6062V31.6134C20.5161 31.7364 21.1235 31.7798 21.7381 31.7436C24.9415 31.5194 27.5664 29.0826 28.0436 25.872C28.0581 25.9371 28.0725 25.9949 28.087 26.06C28.1087 26.1902 28.1376 26.3275 28.1521 26.4649C28.1521 26.4649 28.1521 26.4649 28.1521 26.4722C28.1665 26.5373 28.1738 26.6023 28.181 26.6602C28.181 26.6746 28.181 26.6819 28.181 26.6891C28.1883 26.7542 28.1955 26.8193 28.1955 26.8771C28.2027 26.9567 28.2099 27.0362 28.2099 27.1158C28.2099 27.1519 28.2099 27.1881 28.2099 27.2315C28.2099 27.2676 28.2172 27.311 28.2172 27.3472C28.2172 27.3905 28.2099 27.4339 28.2099 27.4773C28.2099 27.5135 28.2099 27.5496 28.2099 27.5785C28.2099 27.6292 28.2027 27.6726 28.2027 27.7232C28.2027 27.7521 28.2027 27.781 28.1954 27.8172C28.1954 27.8678 28.1882 27.9184 28.1882 27.9763C28.1809 27.9979 28.1809 28.0196 28.1809 28.0413C28.1737 28.0992 28.1665 28.1498 28.1592 28.2077C28.1592 28.2293 28.1592 28.251 28.152 28.2727C28.1447 28.345 28.1303 28.4101 28.1231 28.4824V28.4897V28.4969C28.1086 28.562 28.0941 28.6343 28.0797 28.6994C28.0797 28.7066 28.0797 28.7138 28.0797 28.7211C28.0652 28.7862 28.0507 28.8512 28.0363 28.9163C28.0363 28.9236 28.0291 28.938 28.0291 28.9453C28.0146 29.0103 28.0001 29.0754 27.9784 29.1405C27.9784 29.1477 27.9784 29.1549 27.9784 29.1622C27.9567 29.2345 27.9351 29.2996 27.9206 29.3647C27.9133 29.3719 27.9133 29.3791 27.9133 29.3791C27.8917 29.4514 27.87 29.5237 27.8483 29.596C27.8193 29.6684 27.7977 29.7334 27.7687 29.8057C27.7398 29.878 27.7181 29.9504 27.6892 30.0154C27.6602 30.0878 27.6313 30.1528 27.6024 30.2251H27.5952C27.5662 30.2902 27.5373 30.3625 27.5012 30.4276C27.4939 30.4493 27.4867 30.4638 27.4795 30.4782C27.4722 30.4855 27.4722 30.4927 27.465 30.4999C26.995 31.4472 26.3008 32.2788 25.4331 32.9296C25.3752 32.9657 25.3174 33.0091 25.2595 33.0525C25.2451 33.0669 25.2234 33.0742 25.2089 33.0886C25.1583 33.1248 25.1077 33.1609 25.0498 33.1971L25.0715 33.2405H25.0788C25.18 33.226 25.2812 33.2115 25.3825 33.1971H25.3897C25.5777 33.1682 25.7657 33.132 25.9537 33.0959C26.0044 33.0886 26.0622 33.0742 26.1128 33.0597C26.149 33.0525 26.1779 33.0453 26.2141 33.038C26.2647 33.0308 26.3153 33.0163 26.3659 33.0091C26.4093 32.9946 26.4527 32.9874 26.4961 32.9729C27.2192 32.7994 27.9206 32.5607 28.5931 32.2787C27.4433 33.8479 25.9031 35.1133 24.1026 35.9449C24.9342 35.887 25.7657 35.7496 26.5684 35.5182C29.4825 34.6578 31.9338 32.6981 33.4017 30.0588C33.1052 31.7292 32.44 33.32 31.4566 34.7084C32.158 34.2456 32.8015 33.7105 33.3873 33.1031C35.007 31.411 36.07 29.2634 36.4315 26.9567C36.6774 28.0992 36.7497 29.2779 36.6412 30.4421C41.862 23.1604 37.0751 15.6112 35.0721 13.6227C35.0648 13.6082 35.0576 13.601 35.0576 13.5865C35.0504 13.5937 35.0504 13.5937 35.0504 13.601C35.0504 13.5937 35.0504 13.5937 35.0431 13.5865C35.0431 13.6733 35.0359 13.76 35.0287 13.8468C35.007 14.0131 34.9853 14.1722 34.9564 14.3313C34.9202 14.4904 34.8768 14.6495 34.8335 14.8085C34.7828 14.9604 34.725 15.1195 34.6599 15.2713C34.5948 15.4159 34.5225 15.5678 34.443 15.7124C34.3634 15.8498 34.2767 15.9944 34.1827 16.1246C34.0887 16.262 33.9874 16.3921 33.8862 16.5151C33.7777 16.6452 33.662 16.7609 33.5463 16.8766C33.474 16.9417 33.4089 16.9995 33.3366 17.0574C33.2788 17.108 33.2282 17.1514 33.1703 17.202C33.0402 17.3033 32.91 17.3973 32.7654 17.484C32.628 17.5708 32.4834 17.6576 32.3388 17.7299C32.1869 17.8022 32.035 17.8673 31.8832 17.9324C31.7313 17.9902 31.5723 18.0408 31.4132 18.0842C31.2541 18.1276 31.0878 18.1637 30.9287 18.1927C30.7624 18.2216 30.5961 18.2361 30.437 18.2505C30.3213 18.2578 30.2056 18.265 30.0899 18.265C29.9236 18.265 29.7573 18.2505 29.5982 18.236C29.4319 18.2216 29.2656 18.1999 29.1065 18.1637C28.9402 18.1348 28.7811 18.0914 28.622 18.0408H28.6148C28.7738 18.0263 28.9329 18.0119 29.092 17.9829C29.2583 17.954 29.4174 17.9179 29.5765 17.8745C29.7356 17.8311 29.8946 17.7805 30.0465 17.7226C30.2056 17.6648 30.3574 17.5925 30.5021 17.5202C30.6539 17.4478 30.7913 17.3683 30.9359 17.2815C31.0733 17.1875 31.2107 17.0935 31.3409 16.9923C31.471 16.8911 31.5939 16.7826 31.7096 16.6669C31.8326 16.5584 31.941 16.4355 32.0495 16.3126C32.158 16.1824 32.2592 16.0523 32.3532 15.9221C32.3677 15.9004 32.3821 15.8715 32.3966 15.8498C32.4689 15.7341 32.5412 15.6184 32.6063 15.5027C32.6858 15.3581 32.7581 15.2135 32.8232 15.0616C32.8883 14.9098 32.9461 14.7579 32.9968 14.5988C33.0474 14.447 33.0835 14.2879 33.1197 14.1288C33.1486 13.9625 33.1775 13.8034 33.192 13.6443C33.2065 13.478 33.2209 13.3117 33.2209 13.1526C33.2209 13.0369 33.2137 12.9212 33.2065 12.8055C33.192 12.6392 33.1703 12.4801 33.1486 12.321C33.1197 12.1547 33.0836 11.9956 33.0402 11.8366C32.9896 11.6847 32.9389 11.5256 32.8811 11.3738C32.8232 11.2219 32.7509 11.0701 32.6786 10.9254C32.5991 10.7808 32.5195 10.6362 32.4328 10.4988C32.3388 10.3614 32.2448 10.2313 32.1435 10.1011C32.0351 9.97818 31.9266 9.85526 31.8109 9.73233C31.753 9.67448 31.688 9.6094 31.6229 9.55156C31.2975 9.29847 30.9576 9.05984 30.6178 8.84291C30.5672 8.81398 30.5238 8.79229 30.4732 8.7706C30.2345 8.61875 30.0104 8.53921 29.7862 8.4669L29.7862 8.46686Z" fill="#E0234E"/>
</g>
</g>
<defs>
<filter id="filter0_d_1964_10581" x="0" y="0" width="51" height="51" filterUnits="userSpaceOnUse" color-interpolation-filters="sRGB">
<feFlood flood-opacity="0" result="BackgroundImageFix"/>
<feColorMatrix in="SourceAlpha" type="matrix" values="0 0 0 0 0 0 0 0 0 0 0 0 0 0 0 0 0 0 127 0" result="hardAlpha"/>
<feOffset dy="4"/>
<feGaussianBlur stdDeviation="4"/>
<feComposite in2="hardAlpha" operator="out"/>
<feColorMatrix type="matrix" values="0 0 0 0 0 0 0 0 0 0 0 0 0 0 0 0 0 0 0.15 0"/>
<feBlend mode="normal" in2="BackgroundImageFix" result="effect1_dropShadow_1964_10581"/>
<feBlend mode="normal" in="SourceGraphic" in2="effect1_dropShadow_1964_10581" result="shape"/>
</filter>
<clipPath id="clip0_1964_10581">
<rect width="28" height="28" fill="white" transform="translate(11 8)"/>
</clipPath>
</defs>
</svg>
