<svg width="35" height="35" viewBox="0 0 35 35" fill="none" xmlns="http://www.w3.org/2000/svg">
<rect width="35" height="35" rx="17.5" fill="white"/>
<path d="M28.6483 10.6344L18.992 5.03331C18.3837 4.68681 17.5868 4.68681 16.9736 5.03331L7.24187 10.6344C6.61428 10.9956 6.1875 11.6743 6.1875 12.4004V23.5877C6.1875 24.3137 6.62325 24.9927 7.25106 25.3558L9.81678 26.8188C11.0477 27.4252 11.3887 27.4252 11.9487 27.4252C13.7718 27.4252 14.7185 26.3229 14.7185 24.4003V13.3557C14.7188 13.1997 14.8161 12.9676 14.6628 12.9676H13.4329C13.2772 12.9676 12.9688 13.1997 12.9688 13.3554V24.4001C12.9688 25.2524 12.1778 26.1005 10.7371 25.3801L8.08538 23.846C7.99306 23.7957 7.9375 23.6944 7.9375 23.5877V12.4004C7.9375 12.2949 8.03878 12.1891 8.13241 12.135L17.8401 6.54356C17.9309 6.49216 18.0593 6.49216 18.1496 6.54356L27.7665 12.1337C27.8586 12.1891 27.844 12.2917 27.844 12.4004V23.5877C27.844 23.6944 27.8641 23.7983 27.7733 23.8498L18.1192 29.4445C18.0365 29.4942 17.9289 29.4942 17.8381 29.4445L15.3625 27.9682C15.2879 27.9248 15.198 27.9093 15.1263 27.9493C14.4383 28.3394 14.3106 28.3912 13.6652 28.615C13.5062 28.6703 13.2717 28.7664 13.7545 29.037L16.9916 30.9519C17.3013 31.1313 17.6537 31.2245 18.0081 31.2245C18.3673 31.2245 18.7188 31.1313 19.0288 30.9519L28.6485 25.3558C29.2766 24.9901 29.594 24.3137 29.594 23.5877V12.4004C29.5938 11.6743 29.2763 10.9973 28.6483 10.6344ZM21.0028 21.8149C18.4375 21.8149 17.8727 21.1073 17.6843 19.8317C17.662 19.6944 17.5457 19.5301 17.4057 19.5301H16.1522C15.9971 19.5301 15.8722 19.7182 15.8722 19.8727C15.8722 21.5058 16.7603 23.4847 21.0028 23.4847C24.0736 23.4847 25.8345 22.2914 25.8345 20.1796C25.8345 18.0857 24.4199 17.5362 21.4416 17.142C18.4312 16.7441 18.1253 16.5431 18.1253 15.8378C18.1253 15.2564 18.3843 14.4809 20.6134 14.4809C22.6049 14.4809 23.339 14.9083 23.6411 16.2508C23.6672 16.377 23.7824 16.4676 23.9126 16.4676H25.1713C25.2487 16.4676 25.3224 16.4363 25.3767 16.381C25.4294 16.3215 25.457 16.2469 25.4502 16.1668C25.2548 13.8548 23.7192 12.7775 20.6132 12.7775C17.8499 12.7775 16.2019 13.9443 16.2019 15.9002C16.2019 18.0216 17.8418 18.6078 20.4942 18.8701C23.6672 19.1812 23.9139 19.6449 23.9139 20.269C23.9139 21.3532 23.0437 21.8149 21.0028 21.8149Z" fill="#83CD29"/>
</svg>
