<svg width="51" height="51" viewBox="0 0 51 51" fill="none" xmlns="http://www.w3.org/2000/svg">
<g filter="url(#filter0_d_1964_10578)">
<rect x="8" y="4" width="35" height="35" rx="17.5" fill="white"/>
<path d="M36.6483 14.6354L26.992 9.03429C26.3837 8.68779 25.5868 8.68779 24.9736 9.03429L15.2419 14.6354C14.6143 14.9965 14.1875 15.6753 14.1875 16.4014V27.5887C14.1875 28.3147 14.6233 28.9937 15.2511 29.3568L17.8168 30.8198C19.0477 31.4262 19.3887 31.4262 19.9487 31.4262C21.7718 31.4262 22.7185 30.3239 22.7185 28.4013V17.3566C22.7188 17.2007 22.8161 16.9686 22.6628 16.9686H21.4329C21.2772 16.9686 20.9688 17.2007 20.9688 17.3564V28.4011C20.9688 29.2534 20.1778 30.1014 18.7371 29.3811L16.0854 27.847C15.9931 27.7967 15.9375 27.6954 15.9375 27.5887V16.4014C15.9375 16.2959 16.0388 16.19 16.1324 16.136L25.8401 10.5445C25.9309 10.4931 26.0593 10.4931 26.1496 10.5445L35.7665 16.1347C35.8586 16.19 35.844 16.2926 35.844 16.4014V27.5887C35.844 27.6954 35.8641 27.7993 35.7733 27.8507L26.1192 33.4455C26.0365 33.4951 25.9289 33.4951 25.8381 33.4455L23.3625 31.9691C23.2879 31.9258 23.198 31.9103 23.1263 31.9503C22.4383 32.3404 22.3106 32.3922 21.6652 32.616C21.5062 32.6713 21.2717 32.7674 21.7545 33.0379L24.9916 34.9529C25.3013 35.1323 25.6537 35.2254 26.0081 35.2254C26.3673 35.2254 26.7188 35.1323 27.0288 34.9529L36.6485 29.3568C37.2766 28.9911 37.594 28.3147 37.594 27.5887V16.4014C37.5938 15.6753 37.2763 14.9983 36.6483 14.6354ZM29.0028 25.8159C26.4375 25.8159 25.8727 25.1083 25.6843 23.8327C25.662 23.6954 25.5457 23.5311 25.4057 23.5311H24.1522C23.9971 23.5311 23.8722 23.7192 23.8722 23.8736C23.8722 25.5068 24.7603 27.4856 29.0028 27.4856C32.0736 27.4856 33.8345 26.2924 33.8345 24.1805C33.8345 22.0867 32.4199 21.5372 29.4416 21.143C26.4312 20.7451 26.1253 20.544 26.1253 19.8388C26.1253 19.2574 26.3843 18.4819 28.6134 18.4819C30.6049 18.4819 31.339 18.9093 31.6411 20.2518C31.6672 20.378 31.7824 20.4686 31.9126 20.4686H33.1713C33.2487 20.4686 33.3224 20.4373 33.3767 20.3819C33.4294 20.3224 33.457 20.2479 33.4502 20.1678C33.2548 17.8558 31.7192 16.7785 28.6132 16.7785C25.8499 16.7785 24.2019 17.9453 24.2019 19.9011C24.2019 22.0226 25.8418 22.6088 28.4942 22.8711C31.6672 23.1822 31.9139 23.6459 31.9139 24.27C31.9139 25.3541 31.0437 25.8159 29.0028 25.8159Z" fill="#83CD29"/>
</g>
<defs>
<filter id="filter0_d_1964_10578" x="0" y="0" width="51" height="51" filterUnits="userSpaceOnUse" color-interpolation-filters="sRGB">
<feFlood flood-opacity="0" result="BackgroundImageFix"/>
<feColorMatrix in="SourceAlpha" type="matrix" values="0 0 0 0 0 0 0 0 0 0 0 0 0 0 0 0 0 0 127 0" result="hardAlpha"/>
<feOffset dy="4"/>
<feGaussianBlur stdDeviation="4"/>
<feComposite in2="hardAlpha" operator="out"/>
<feColorMatrix type="matrix" values="0 0 0 0 0 0 0 0 0 0 0 0 0 0 0 0 0 0 0.15 0"/>
<feBlend mode="normal" in2="BackgroundImageFix" result="effect1_dropShadow_1964_10578"/>
<feBlend mode="normal" in="SourceGraphic" in2="effect1_dropShadow_1964_10578" result="shape"/>
</filter>
</defs>
</svg>
