<svg width="35" height="35" viewBox="0 0 35 35" fill="none" xmlns="http://www.w3.org/2000/svg">
<rect width="35" height="35" rx="17.5" fill="white"/>
<path d="M11.1783 15.9089H10.077L9.47617 18.9982H10.4538C11.1025 18.9982 11.5855 18.8757 11.9028 18.6319C12.2202 18.3869 12.4337 17.9797 12.5445 17.4081C12.6518 16.8597 12.6028 16.4724 12.3998 16.2472C12.1957 16.0221 11.7897 15.9089 11.1783 15.9089ZM17 10.6367C9.2685 10.6367 3 13.9337 3 18.0007C3 22.0677 9.2685 25.3659 17 25.3659C24.7315 25.3659 31 22.0677 31 18.0007C31 13.9337 24.7315 10.6367 17 10.6367ZM13.1967 19.3296C12.8922 19.6212 12.5258 19.8406 12.1268 19.9724C11.7348 20.0984 11.2343 20.1637 10.6277 20.1637H9.24983L8.86833 22.1249H7.26067L8.69567 14.7446H11.7873C12.7172 14.7446 13.395 14.9884 13.822 15.4772C14.249 15.9649 14.3773 16.6462 14.207 17.5212C14.1418 17.8675 14.0216 18.201 13.8512 18.5094C13.6843 18.8069 13.4662 19.0811 13.1967 19.3296ZM17.8913 20.1637L18.5248 16.8982C18.5983 16.5272 18.5703 16.2729 18.4455 16.1387C18.3207 16.0034 18.0535 15.9357 17.644 15.9357H16.37L15.5487 20.1649H13.9527L15.3877 12.7834H16.9825L16.601 14.7457H18.022C18.9168 14.7457 19.5328 14.9021 19.8723 15.2136C20.2118 15.5251 20.3133 16.0302 20.1792 16.7291L19.5118 20.1637H17.8913ZM26.7545 17.5212C26.6903 17.8677 26.5701 18.2015 26.3987 18.5094C26.2318 18.8069 26.0137 19.0811 25.7442 19.3296C25.4395 19.6203 25.0741 19.8399 24.6743 19.9724C24.2823 20.0984 23.7818 20.1637 23.174 20.1637H21.7973L21.4158 22.1261H19.8082L21.2432 14.7457H24.3337C25.2635 14.7457 25.9413 14.9896 26.3683 15.4784C26.7953 15.9649 26.9248 16.6462 26.7545 17.5212ZM23.727 15.9089H22.6268L22.0248 18.9982H23.0025C23.6523 18.9982 24.1353 18.8757 24.4515 18.6319C24.7688 18.3869 24.9823 17.9797 25.0943 17.4081C25.2017 16.8597 25.1515 16.4724 24.9485 16.2472C24.7455 16.0221 24.3372 15.9089 23.727 15.9089Z" fill="#6181B6"/>
</svg>
