<svg width="51" height="51" viewBox="0 0 51 51" fill="none" xmlns="http://www.w3.org/2000/svg">
<g filter="url(#filter0_d_1964_10616)">
<rect x="8" y="4" width="35" height="35" rx="17.5" fill="white"/>
<path d="M19.1783 19.9084H18.077L17.4762 22.9977H18.4538C19.1025 22.9977 19.5855 22.8752 19.9028 22.6314C20.2202 22.3864 20.4337 21.9792 20.5445 21.4076C20.6518 20.8592 20.6028 20.4719 20.3998 20.2467C20.1957 20.0216 19.7897 19.9084 19.1783 19.9084ZM25 14.6362C17.2685 14.6362 11 17.9332 11 22.0002C11 26.0672 17.2685 29.3654 25 29.3654C32.7315 29.3654 39 26.0672 39 22.0002C39 17.9332 32.7315 14.6362 25 14.6362ZM21.1967 23.3291C20.8922 23.6207 20.5258 23.8401 20.1268 23.9719C19.7348 24.0979 19.2343 24.1632 18.6277 24.1632H17.2498L16.8683 26.1244H15.2607L16.6957 18.7441H19.7873C20.7172 18.7441 21.395 18.9879 21.822 19.4767C22.249 19.9644 22.3773 20.6457 22.207 21.5207C22.1418 21.867 22.0216 22.2006 21.8512 22.5089C21.6843 22.8064 21.4662 23.0806 21.1967 23.3291ZM25.8913 24.1632L26.5248 20.8977C26.5983 20.5267 26.5703 20.2724 26.4455 20.1382C26.3207 20.0029 26.0535 19.9352 25.644 19.9352H24.37L23.5487 24.1644H21.9527L23.3877 16.7829H24.9825L24.601 18.7452H26.022C26.9168 18.7452 27.5328 18.9016 27.8723 19.2131C28.2118 19.5246 28.3133 20.0297 28.1792 20.7286L27.5118 24.1632H25.8913ZM34.7545 21.5207C34.6903 21.8673 34.5701 22.201 34.3987 22.5089C34.2318 22.8064 34.0137 23.0806 33.7442 23.3291C33.4395 23.6198 33.0741 23.8394 32.6743 23.9719C32.2823 24.0979 31.7818 24.1632 31.174 24.1632H29.7973L29.4158 26.1256H27.8082L29.2432 18.7452H32.3337C33.2635 18.7452 33.9413 18.9891 34.3683 19.4779C34.7953 19.9644 34.9248 20.6457 34.7545 21.5207ZM31.727 19.9084H30.6268L30.0248 22.9977H31.0025C31.6523 22.9977 32.1353 22.8752 32.4515 22.6314C32.7688 22.3864 32.9823 21.9792 33.0943 21.4076C33.2017 20.8592 33.1515 20.4719 32.9485 20.2467C32.7455 20.0216 32.3372 19.9084 31.727 19.9084Z" fill="#6181B6"/>
</g>
<defs>
<filter id="filter0_d_1964_10616" x="0" y="0" width="51" height="51" filterUnits="userSpaceOnUse" color-interpolation-filters="sRGB">
<feFlood flood-opacity="0" result="BackgroundImageFix"/>
<feColorMatrix in="SourceAlpha" type="matrix" values="0 0 0 0 0 0 0 0 0 0 0 0 0 0 0 0 0 0 127 0" result="hardAlpha"/>
<feOffset dy="4"/>
<feGaussianBlur stdDeviation="4"/>
<feComposite in2="hardAlpha" operator="out"/>
<feColorMatrix type="matrix" values="0 0 0 0 0 0 0 0 0 0 0 0 0 0 0 0 0 0 0.15 0"/>
<feBlend mode="normal" in2="BackgroundImageFix" result="effect1_dropShadow_1964_10616"/>
<feBlend mode="normal" in="SourceGraphic" in2="effect1_dropShadow_1964_10616" result="shape"/>
</filter>
</defs>
</svg>
