<svg width="35" height="35" viewBox="0 0 35 35" fill="none" xmlns="http://www.w3.org/2000/svg">
<rect width="35" height="35" rx="17.5" fill="white"/>
<g clip-path="url(#clip0_1796_8267)">
<path d="M16.8985 6.05469C10.8205 6.05469 11.2 8.69049 11.2 8.69049L11.2068 11.4211H17.0069V12.241H8.903C8.903 12.241 5.01367 11.7999 5.01367 17.9327C5.01367 24.0655 8.40836 23.848 8.40836 23.848H10.4343V21.0022C10.4343 21.0022 10.3251 17.6075 13.7748 17.6075H19.5275C19.5275 17.6075 22.7596 17.6597 22.7596 14.4838V9.23255C22.7596 9.23255 23.2503 6.05469 16.8985 6.05469ZM13.7003 7.89094C14.2774 7.89094 14.7438 8.35735 14.7438 8.93442C14.7438 9.51149 14.2774 9.97789 13.7003 9.97789C13.1232 9.9779 12.6568 9.51149 12.6568 8.93442C12.6568 8.35735 13.1232 7.89094 13.7003 7.89094Z" fill="url(#paint0_linear_1796_8267)"/>
<path d="M17.0711 29.8724C23.1491 29.8724 22.7695 27.2366 22.7695 27.2366L22.7628 24.506H16.9626V23.6861H25.0665C25.0665 23.6861 28.9559 24.1272 28.9559 17.9944C28.9559 11.8616 25.5612 12.0791 25.5612 12.0791H23.5352V14.9249C23.5352 14.9249 23.6444 18.3196 20.1947 18.3196H14.442C14.442 18.3196 11.21 18.2674 11.21 21.4433V26.6946C11.21 26.6946 10.7192 29.8724 17.0711 29.8724ZM20.2692 28.0362C19.6922 28.0362 19.2258 27.5698 19.2258 26.9927C19.2258 26.4156 19.6922 25.9492 20.2692 25.9492C20.8463 25.9492 21.3127 26.4156 21.3127 26.9927C21.3127 27.5698 20.8463 28.0362 20.2692 28.0362Z" fill="url(#paint1_linear_1796_8267)"/>
</g>
<defs>
<linearGradient id="paint0_linear_1796_8267" x1="7.31457" y1="8.19701" x2="19.1795" y2="19.9435" gradientUnits="userSpaceOnUse">
<stop stop-color="#387EB8"/>
<stop offset="1" stop-color="#366994"/>
</linearGradient>
<linearGradient id="paint1_linear_1796_8267" x1="14.5972" y1="15.74" x2="27.3388" y2="27.7851" gradientUnits="userSpaceOnUse">
<stop stop-color="#FFE052"/>
<stop offset="1" stop-color="#FFC331"/>
</linearGradient>
<clipPath id="clip0_1796_8267">
<rect width="24" height="24" fill="white" transform="translate(5 6)"/>
</clipPath>
</defs>
</svg>
