<svg width="51" height="51" viewBox="0 0 51 51" fill="none" xmlns="http://www.w3.org/2000/svg">
<g filter="url(#filter0_d_1964_10606)">
<rect x="8" y="4" width="35" height="35" rx="17.5" fill="white"/>
<g clip-path="url(#clip0_1964_10606)">
<path d="M24.8985 10.0537C18.8205 10.0537 19.2 12.6895 19.2 12.6895L19.2068 15.4202H25.0069V16.24H16.903C16.903 16.24 13.0137 15.799 13.0137 21.9317C13.0137 28.0645 16.4084 27.847 16.4084 27.847H18.4343V25.0012C18.4343 25.0012 18.3251 21.6065 21.7748 21.6065H27.5275C27.5275 21.6065 30.7596 21.6588 30.7596 18.4828V13.2316C30.7596 13.2316 31.2503 10.0537 24.8985 10.0537ZM21.7003 11.89C22.2774 11.89 22.7438 12.3564 22.7438 12.9334C22.7438 13.5105 22.2774 13.9769 21.7003 13.9769C21.1232 13.9769 20.6568 13.5105 20.6568 12.9334C20.6568 12.3564 21.1232 11.89 21.7003 11.89Z" fill="url(#paint0_linear_1964_10606)"/>
<path d="M25.0711 33.8714C31.1491 33.8714 30.7695 31.2356 30.7695 31.2356L30.7628 28.505H24.9626V27.6851H33.0665C33.0665 27.6851 36.9559 28.1262 36.9559 21.9934C36.9559 15.8606 33.5612 16.0781 33.5612 16.0781H31.5352V18.924C31.5352 18.924 31.6444 22.3186 28.1947 22.3186H22.442C22.442 22.3186 19.21 22.2664 19.21 25.4423V30.6936C19.21 30.6936 18.7192 33.8714 25.0711 33.8714ZM28.2692 32.0352C27.6922 32.0352 27.2258 31.5688 27.2258 30.9917C27.2258 30.4146 27.6922 29.9482 28.2692 29.9482C28.8463 29.9482 29.3127 30.4146 29.3127 30.9917C29.3127 31.5688 28.8463 32.0352 28.2692 32.0352Z" fill="url(#paint1_linear_1964_10606)"/>
</g>
</g>
<defs>
<filter id="filter0_d_1964_10606" x="0" y="0" width="51" height="51" filterUnits="userSpaceOnUse" color-interpolation-filters="sRGB">
<feFlood flood-opacity="0" result="BackgroundImageFix"/>
<feColorMatrix in="SourceAlpha" type="matrix" values="0 0 0 0 0 0 0 0 0 0 0 0 0 0 0 0 0 0 127 0" result="hardAlpha"/>
<feOffset dy="4"/>
<feGaussianBlur stdDeviation="4"/>
<feComposite in2="hardAlpha" operator="out"/>
<feColorMatrix type="matrix" values="0 0 0 0 0 0 0 0 0 0 0 0 0 0 0 0 0 0 0.15 0"/>
<feBlend mode="normal" in2="BackgroundImageFix" result="effect1_dropShadow_1964_10606"/>
<feBlend mode="normal" in="SourceGraphic" in2="effect1_dropShadow_1964_10606" result="shape"/>
</filter>
<linearGradient id="paint0_linear_1964_10606" x1="15.3146" y1="12.196" x2="27.1795" y2="23.9426" gradientUnits="userSpaceOnUse">
<stop stop-color="#387EB8"/>
<stop offset="1" stop-color="#366994"/>
</linearGradient>
<linearGradient id="paint1_linear_1964_10606" x1="22.5972" y1="19.7391" x2="35.3388" y2="31.7841" gradientUnits="userSpaceOnUse">
<stop stop-color="#FFE052"/>
<stop offset="1" stop-color="#FFC331"/>
</linearGradient>
<clipPath id="clip0_1964_10606">
<rect width="24" height="24" fill="white" transform="translate(13 10)"/>
</clipPath>
</defs>
</svg>
