<svg width="51" height="51" viewBox="0 0 51 51" fill="none" xmlns="http://www.w3.org/2000/svg">
<g filter="url(#filter0_d_1964_10573)">
<rect x="8" y="4" width="35" height="35" rx="17.5" fill="white"/>
<g clip-path="url(#clip0_1964_10573)">
<path d="M16.2595 11.9243C21.7916 6.565 30.6373 6.70906 35.9966 12.27C36.6016 11.4633 37.1203 10.57 37.4949 9.64802C39.2525 15.0073 40.3186 19.5022 39.9152 22.9886C39.7135 25.9275 38.5609 28.7512 36.6593 30.9987C31.7034 36.8766 22.8865 37.6257 17.0086 32.6698L16.8962 32.5698L16.8902 32.5658C16.8718 32.553 16.8536 32.5397 16.8357 32.5258C16.7821 32.484 16.7334 32.4386 16.6896 32.3901L16.6738 32.3721L16.49 32.2088C16.3107 32.0551 16.1314 31.9015 15.9724 31.7276L15.9137 31.6614C10.5544 26.1292 10.7273 17.2835 16.2595 11.9243ZM18.334 30.6817C17.8154 30.2783 17.0662 30.3359 16.6629 30.8546C16.3082 31.3106 16.3099 31.9449 16.6681 32.3656L16.6738 32.3721L16.8962 32.5698L16.918 32.5847C17.4216 32.9158 18.0992 32.8474 18.4857 32.3793L18.5069 32.3529C18.9103 31.8342 18.8239 31.0851 18.334 30.6817ZM37.3508 11.0887C35.9101 14.1141 32.3373 16.4191 29.2543 17.1395C26.3441 17.831 23.8086 17.2547 21.1289 18.292C15.0205 20.6259 15.1358 27.8868 18.4781 29.5292L18.6798 29.6444C18.6798 29.6444 21.0941 29.1644 23.4815 28.5305L23.686 28.4758C24.6396 28.2188 25.5777 27.9387 26.3441 27.6563C30.3204 26.1868 34.7 22.5564 36.1406 18.3496C35.3915 22.7292 31.617 26.9648 27.8424 28.8953C25.8255 29.9326 24.2696 30.1631 20.956 31.3156C20.5527 31.4597 20.2357 31.6037 20.2357 31.6037C20.2761 31.5982 20.3166 31.5927 20.3569 31.5874L20.4374 31.577L20.5175 31.5669C21.2493 31.4762 21.9069 31.4309 21.9069 31.4309C26.6034 31.2003 33.9796 32.7563 37.4084 28.175C40.9236 23.5072 38.9643 15.9581 37.3508 11.0887Z" fill="#6DB33F"/>
<path d="M18.3341 30.6819C18.8239 31.0853 18.9104 31.8344 18.507 32.3531C18.1036 32.8717 17.3544 32.9293 16.8358 32.5259C16.3172 32.1226 16.2595 31.3734 16.6629 30.8548C17.0663 30.3361 17.8155 30.2785 18.3341 30.6819ZM37.3508 11.0889C38.9644 15.9583 40.9237 23.5074 37.4085 28.1751C33.9797 32.7564 26.6035 31.2005 21.9069 31.431C21.9069 31.431 21.2494 31.4764 20.5176 31.5671L20.4375 31.5772C20.3705 31.5857 20.3032 31.5946 20.2358 31.6039C20.2358 31.6039 20.5527 31.4599 20.9561 31.3158C24.2696 30.1633 25.8255 29.9327 27.8425 28.8955C31.617 26.965 35.3915 22.7294 36.1407 18.3498C34.7 22.5566 30.3204 26.187 26.3442 27.6565C23.6069 28.665 18.6798 29.6446 18.6798 29.6446L18.4782 29.5294C15.1358 27.887 15.0206 20.6261 21.129 18.2922C23.8086 17.2549 26.3442 17.8312 29.2543 17.1397C32.3373 16.4193 35.9102 14.1143 37.3508 11.0889Z" fill="white"/>
</g>
</g>
<defs>
<filter id="filter0_d_1964_10573" x="0" y="0" width="51" height="51" filterUnits="userSpaceOnUse" color-interpolation-filters="sRGB">
<feFlood flood-opacity="0" result="BackgroundImageFix"/>
<feColorMatrix in="SourceAlpha" type="matrix" values="0 0 0 0 0 0 0 0 0 0 0 0 0 0 0 0 0 0 127 0" result="hardAlpha"/>
<feOffset dy="4"/>
<feGaussianBlur stdDeviation="4"/>
<feComposite in2="hardAlpha" operator="out"/>
<feColorMatrix type="matrix" values="0 0 0 0 0 0 0 0 0 0 0 0 0 0 0 0 0 0 0.15 0"/>
<feBlend mode="normal" in2="BackgroundImageFix" result="effect1_dropShadow_1964_10573"/>
<feBlend mode="normal" in="SourceGraphic" in2="effect1_dropShadow_1964_10573" result="shape"/>
</filter>
<clipPath id="clip0_1964_10573">
<rect width="28" height="28" fill="white" transform="translate(12 8)"/>
</clipPath>
</defs>
</svg>
