<svg width="35" height="35" viewBox="0 0 35 35" fill="none" xmlns="http://www.w3.org/2000/svg">
<rect width="35" height="35" rx="17.5" fill="white"/>
<g clip-path="url(#clip0_1796_8234)">
<path d="M8.25948 7.92427C13.7916 2.565 22.6373 2.70906 27.9966 8.27003C28.6016 7.46325 29.1203 6.57004 29.4949 5.64802C31.2525 11.0073 32.3186 15.5022 31.9152 18.9886C31.7135 21.9275 30.5609 24.7512 28.6593 26.9987C23.7034 32.8766 14.8865 33.6257 9.00862 28.6698L8.89617 28.5698L8.89019 28.5658C8.87178 28.553 8.85363 28.5397 8.83574 28.5258C8.78209 28.484 8.73337 28.4386 8.68959 28.3901L8.67381 28.3721L8.48998 28.2088C8.3107 28.0551 8.13142 27.9015 7.97237 27.7276L7.91372 27.6614C2.55445 22.1292 2.72733 13.2835 8.25948 7.92427ZM10.334 26.6817C9.81539 26.2783 9.06625 26.3359 8.66286 26.8546C8.30816 27.3106 8.30991 27.9449 8.6681 28.3656L8.67381 28.3721L8.89617 28.5698L8.91799 28.5847C9.42163 28.9158 10.0992 28.8474 10.4857 28.3793L10.5069 28.3529C10.9103 27.8342 10.8239 27.0851 10.334 26.6817ZM29.3508 7.08868C27.9101 10.1141 24.3373 12.4191 21.2543 13.1395C18.3441 13.831 15.8086 13.2547 13.1289 14.292C7.02051 16.6259 7.13576 23.8868 10.4781 25.5292L10.6798 25.6444C10.6798 25.6444 13.0941 25.1644 15.4815 24.5305L15.686 24.4758C16.6396 24.2188 17.5777 23.9387 18.3441 23.6563C22.3204 22.1868 26.7 18.5564 28.1406 14.3496C27.3915 18.7292 23.617 22.9648 19.8424 24.8953C17.8255 25.9326 16.2696 26.1631 12.956 27.3156C12.5527 27.4597 12.2357 27.6037 12.2357 27.6037C12.2761 27.5982 12.3166 27.5927 12.3569 27.5874L12.4374 27.577L12.5175 27.5669C13.2493 27.4762 13.9069 27.4309 13.9069 27.4309C18.6034 27.2003 25.9796 28.7563 29.4084 24.175C32.9236 19.5072 30.9643 11.9581 29.3508 7.08868Z" fill="#6DB33F"/>
<path d="M10.3341 26.6829C10.8239 27.0863 10.9104 27.8354 10.507 28.354C10.1036 28.8727 9.35444 28.9303 8.8358 28.5269C8.31716 28.1235 8.25953 27.3744 8.66292 26.8557C9.06631 26.3371 9.81545 26.2795 10.3341 26.6829ZM29.3508 7.08984C30.9644 11.9593 32.9237 19.5084 29.4085 24.1761C25.9797 28.7574 18.6035 27.2015 13.9069 27.432C13.9069 27.432 13.2494 27.4774 12.5176 27.5681L12.4375 27.5781C12.3705 27.5867 12.3032 27.5956 12.2358 27.6049C12.2358 27.6049 12.5527 27.4608 12.9561 27.3168C16.2696 26.1642 17.8255 25.9337 19.8425 24.8964C23.617 22.966 27.3915 18.7304 28.1407 14.3508C26.7 18.5575 22.3204 22.188 18.3442 23.6575C15.6069 24.6659 10.6798 25.6456 10.6798 25.6456L10.4782 25.5303C7.13582 23.888 7.02056 16.627 13.129 14.2932C15.8086 13.2559 18.3442 13.8321 21.2543 13.1406C24.3373 12.4203 27.9102 10.1152 29.3508 7.08984Z" fill="white"/>
</g>
<defs>
<clipPath id="clip0_1796_8234">
<rect width="28" height="28" fill="white" transform="translate(4 4)"/>
</clipPath>
</defs>
</svg>
