<svg width="12" height="4" viewBox="0 0 12 4" fill="none" xmlns="http://www.w3.org/2000/svg">
<path d="M1.224 3.208C1.8 3.208 2.28 2.76 2.28 2.104C2.28 1.432 1.8 0.968 1.224 0.968C0.648 0.968 0.168 1.432 0.168 2.104C0.168 2.76 0.648 3.208 1.224 3.208ZM5.67713 3.208C6.25313 3.208 6.73313 2.76 6.73313 2.104C6.73313 1.432 6.25313 0.968 5.67713 0.968C5.10113 0.968 4.62113 1.432 4.62113 2.104C4.62113 2.76 5.10113 3.208 5.67713 3.208ZM10.1303 3.208C10.7063 3.208 11.1863 2.76 11.1863 2.104C11.1863 1.432 10.7063 0.968 10.1303 0.968C9.55425 0.968 9.07425 1.432 9.07425 2.104C9.07425 2.76 9.55425 3.208 10.1303 3.208Z" fill="#979797"/>
</svg>
