<svg width="53" height="53" viewBox="0 0 53 53" fill="none" xmlns="http://www.w3.org/2000/svg">
<path d="M26.5 15.6667L15.6667 26.5M15.6667 26.5L26.5 37.3333M15.6667 26.5H37.3333M15.125 50.875H37.875C42.4254 50.875 44.7006 50.875 46.4387 49.9894C47.9675 49.2105 49.2105 47.9675 49.9894 46.4387C50.875 44.7006 50.875 42.4254 50.875 37.875V15.125C50.875 10.5746 50.875 8.29936 49.9894 6.56133C49.2105 5.03251 47.9675 3.78954 46.4387 3.01057C44.7006 2.125 42.4254 2.125 37.875 2.125H15.125C10.5746 2.125 8.29936 2.125 6.56133 3.01057C5.03251 3.78954 3.78954 5.03251 3.01057 6.56133C2.125 8.29936 2.125 10.5746 2.125 15.125V37.875C2.125 42.4254 2.125 44.7006 3.01057 46.4387C3.78954 47.9675 5.03251 49.2105 6.56133 49.9894C8.29936 50.875 10.5746 50.875 15.125 50.875Z" stroke="#8A8A8A" stroke-width="3" stroke-linecap="round" stroke-linejoin="round"/>
</svg>
