<svg width="35" height="35" viewBox="0 0 35 35" fill="none" xmlns="http://www.w3.org/2000/svg">
<g clip-path="url(#clip0_1964_9944)">
<path d="M17.5 21.875C19.9162 21.875 21.875 19.9162 21.875 17.5C21.875 15.0838 19.9162 13.125 17.5 13.125C15.0838 13.125 13.125 15.0838 13.125 17.5C13.125 19.9162 15.0838 21.875 17.5 21.875Z" stroke="#667080" stroke-width="2" stroke-linecap="round" stroke-linejoin="round"/>
<path d="M28.2913 21.8752C28.0972 22.315 28.0393 22.8029 28.1251 23.276C28.2109 23.7491 28.4364 24.1856 28.7726 24.5293L28.8601 24.6168C29.1313 24.8877 29.3464 25.2094 29.4932 25.5635C29.64 25.9175 29.7155 26.2971 29.7155 26.6804C29.7155 27.0637 29.64 27.4432 29.4932 27.7973C29.3464 28.1514 29.1313 28.473 28.8601 28.7439C28.5892 29.0151 28.2675 29.2302 27.9135 29.377C27.5594 29.5238 27.1798 29.5993 26.7966 29.5993C26.4133 29.5993 26.0337 29.5238 25.6796 29.377C25.3256 29.2302 25.0039 29.0151 24.733 28.7439L24.6455 28.6564C24.3018 28.3202 23.8653 28.0947 23.3922 28.0089C22.9191 27.9231 22.4312 27.981 21.9913 28.1752C21.56 28.36 21.1922 28.667 20.933 29.0582C20.6739 29.4495 20.5349 29.908 20.533 30.3772V30.6252C20.533 31.3987 20.2257 32.1406 19.6787 32.6876C19.1318 33.2345 18.3899 33.5418 17.6163 33.5418C16.8428 33.5418 16.1009 33.2345 15.5539 32.6876C15.007 32.1406 14.6997 31.3987 14.6997 30.6252V30.4939C14.6884 30.0112 14.5321 29.5431 14.2513 29.1504C13.9704 28.7576 13.5778 28.4585 13.1247 28.2918C12.6848 28.0977 12.1969 28.0398 11.7238 28.1256C11.2507 28.2114 10.8142 28.4369 10.4705 28.7731L10.383 28.8606C10.1121 29.1318 9.79045 29.3469 9.43638 29.4937C9.0823 29.6405 8.70276 29.716 8.31947 29.716C7.93617 29.716 7.55664 29.6405 7.20256 29.4937C6.84848 29.3469 6.5268 29.1318 6.25592 28.8606C5.98474 28.5897 5.76961 28.268 5.62283 27.9139C5.47605 27.5599 5.40051 27.1803 5.40051 26.797C5.40051 26.4137 5.47605 26.0342 5.62283 25.6801C5.76961 25.3261 5.98474 25.0044 6.25592 24.7335L6.34342 24.646C6.67962 24.3023 6.90515 23.8658 6.99093 23.3927C7.07671 22.9196 7.0188 22.4317 6.82467 21.9918C6.63981 21.5605 6.33286 21.1926 5.9416 20.9335C5.55035 20.6744 5.09186 20.5354 4.62259 20.5335H4.37467C3.60113 20.5335 2.85926 20.2262 2.31228 19.6792C1.7653 19.1322 1.45801 18.3904 1.45801 17.6168C1.45801 16.8433 1.7653 16.1014 2.31228 15.5544C2.85926 15.0075 3.60113 14.7002 4.37467 14.7002H4.50592C4.98862 14.6889 5.45677 14.5326 5.84949 14.2517C6.24221 13.9709 6.54134 13.5783 6.70801 13.1252C6.90213 12.6853 6.96004 12.1974 6.87426 11.7243C6.78849 11.2512 6.56296 10.8147 6.22676 10.471L6.13926 10.3835C5.86808 10.1126 5.65295 9.79094 5.50617 9.43686C5.35939 9.08279 5.28384 8.70325 5.28384 8.31996C5.28384 7.93666 5.35939 7.55712 5.50617 7.20305C5.65295 6.84897 5.86808 6.52729 6.13926 6.25641C6.41014 5.98523 6.73181 5.7701 7.08589 5.62332C7.43997 5.47654 7.81951 5.40099 8.2028 5.40099C8.5861 5.40099 8.96563 5.47654 9.31971 5.62332C9.67379 5.7701 9.99546 5.98523 10.2663 6.25641L10.3538 6.34391C10.6975 6.68011 11.1341 6.90564 11.6072 6.99142C12.0802 7.0772 12.5682 7.01929 13.008 6.82516H13.1247C13.556 6.6403 13.9239 6.33335 14.183 5.94209C14.4421 5.55084 14.5811 5.09235 14.583 4.62308V4.37516C14.583 3.60161 14.8903 2.85975 15.4373 2.31277C15.9843 1.76579 16.7261 1.4585 17.4997 1.4585C18.2732 1.4585 19.0151 1.76579 19.5621 2.31277C20.1091 2.85975 20.4163 3.60161 20.4163 4.37516V4.50641C20.4182 4.97569 20.5573 5.43417 20.8164 5.82543C21.0755 6.21668 21.4433 6.52363 21.8747 6.7085C22.3145 6.90262 22.8025 6.96053 23.2755 6.87475C23.7486 6.78898 24.1851 6.56345 24.5288 6.22725L24.6163 6.13975C24.8872 5.86857 25.2089 5.65343 25.563 5.50666C25.9171 5.35988 26.2966 5.28433 26.6799 5.28433C27.0632 5.28433 27.4427 5.35988 27.7968 5.50666C28.1509 5.65343 28.4725 5.86857 28.7434 6.13975C29.0146 6.41063 29.2297 6.7323 29.3765 7.08638C29.5233 7.44046 29.5988 7.81999 29.5988 8.20329C29.5988 8.58658 29.5233 8.96612 29.3765 9.3202C29.2297 9.67428 29.0146 9.99595 28.7434 10.2668L28.6559 10.3543C28.3197 10.698 28.0942 11.1346 28.0084 11.6076C27.9226 12.0807 27.9806 12.5686 28.1747 13.0085V13.1252C28.3595 13.5565 28.6665 13.9244 29.0577 14.1835C29.449 14.4426 29.9075 14.5816 30.3768 14.5835H30.6247C31.3982 14.5835 32.1401 14.8908 32.6871 15.4378C33.2341 15.9848 33.5413 16.7266 33.5413 17.5002C33.5413 18.2737 33.2341 19.0156 32.6871 19.5626C32.1401 20.1095 31.3982 20.4168 30.6247 20.4168H30.4934C30.0242 20.4187 29.5657 20.5578 29.1744 20.8169C28.7832 21.076 28.4762 21.4438 28.2913 21.8752V21.8752Z" stroke="#667080" stroke-width="2" stroke-linecap="round" stroke-linejoin="round"/>
</g>
<defs>
<clipPath id="clip0_1964_9944">
<rect width="35" height="35" fill="white"/>
</clipPath>
</defs>
</svg>
