<svg width="95" height="95" viewBox="0 0 95 95" fill="none" xmlns="http://www.w3.org/2000/svg">
<path d="M83.9288 77.704C88.7989 71.8492 92.1862 64.9085 93.804 57.469C95.4217 50.0295 95.2224 42.3102 93.2229 34.964C91.2234 27.6177 87.4826 20.8607 82.3168 15.2646C77.1509 9.66844 70.7122 5.39778 63.5452 2.81388C56.3781 0.229976 48.6937 -0.591156 41.1419 0.419947C33.5901 1.43105 26.3931 4.24464 20.1597 8.62271C13.9263 13.0008 8.84 18.8145 5.33094 25.5721C1.82188 32.3297 -0.00665554 39.8324 1.82027e-05 47.4455C0.00257915 58.5127 3.90581 69.2254 11.0248 77.704L10.957 77.7616C11.1944 78.0462 11.4657 78.2902 11.7098 78.5714C12.015 78.9205 12.344 79.2491 12.6594 79.588C13.6089 80.618 14.5856 81.6075 15.6097 82.5359C15.9217 82.8205 16.2439 83.0848 16.5592 83.3559C17.6444 84.2911 18.7601 85.1788 19.9165 86.0056C20.0657 86.1073 20.2014 86.2394 20.3506 86.3445V86.3038C28.2931 91.8885 37.7681 94.8857 47.4802 94.8857C57.1922 94.8857 66.6672 91.8885 74.6097 86.3038V86.3445C74.759 86.2394 74.8912 86.1073 75.0438 86.0056C76.1968 85.1755 77.3159 84.2911 78.4011 83.3559C78.7165 83.0848 79.0387 82.8171 79.3506 82.5359C80.3748 81.6041 81.3514 80.618 82.301 79.588C82.6164 79.2491 82.9419 78.9205 83.2505 78.5714C83.4913 78.2902 83.766 78.0462 84.0034 77.7582L83.9288 77.704ZM47.4768 20.3381C50.495 20.3381 53.4454 21.2324 55.955 22.9079C58.4646 24.5833 60.4205 26.9647 61.5755 29.7509C62.7306 32.5371 63.0328 35.6029 62.444 38.5607C61.8551 41.5185 60.4017 44.2354 58.2675 46.3679C56.1333 48.5003 53.4142 49.9526 50.4539 50.5409C47.4937 51.1292 44.4254 50.8273 41.6369 49.6732C38.8484 48.5191 36.4651 46.5648 34.7882 44.0573C33.1114 41.5498 32.2164 38.6017 32.2164 35.586C32.2164 31.542 33.8242 27.6637 36.6861 24.8041C39.5479 21.9446 43.4295 20.3381 47.4768 20.3381ZM20.3709 77.704C20.4298 73.2549 22.2393 69.0078 25.4081 65.8816C28.5769 62.7554 32.8501 61.0014 37.3032 60.9991H57.6504C62.1035 61.0014 66.3767 62.7554 69.5455 65.8816C72.7143 69.0078 74.5238 73.2549 74.5826 77.704C67.1452 84.4006 57.4885 88.1067 47.4768 88.1067C37.4651 88.1067 27.8084 84.4006 20.3709 77.704Z" fill="#9A9A9A"/>
</svg>
